<svg xmlns="http://www.w3.org/2000/svg" xmlns:xlink="http://www.w3.org/1999/xlink" width="40" zoomAndPan="magnify" viewBox="0 0 30 30.000001" height="40" preserveAspectRatio="xMidYMid meet" version="1.0"><defs><clipPath id="3d4945cdfa"><path d="M 1.375 7.925781 L 29.515625 7.925781 L 29.515625 28.976562 L 1.375 28.976562 Z M 1.375 7.925781 " clip-rule="nonzero"/></clipPath></defs><g clip-path="url(#3d4945cdfa)"><path stroke-linecap="butt" transform="matrix(0.050542, 0, 0, 0.0501033, -2.054834, -9.510494)" fill-opacity="1" fill="#0a0a0a" fill-rule="evenodd" stroke-linejoin="miter" d="M 68.402089 589.14924 C 68.402089 589.14924 103.258627 547.126664 142.597825 534.496502 C 153.263462 542.448826 213.702071 663.215006 224.367708 661.889619 C 236.347228 660.564231 315.334772 550.479114 486.139538 348.630412 C 486.139538 348.630412 535.526075 371.084033 626.493138 375.761871 C 388.680348 562.329637 265.639086 744.141601 254.896162 752.873565 C 224.213134 767.53079 208.523827 759.110682 197.85819 752.405781 C 172.585268 729.796231 69.715972 594.528754 68.402089 589.14924 Z M 68.402089 589.14924 " stroke="#000000" stroke-width="1" stroke-opacity="1" stroke-miterlimit="4"/></g></svg>