<svg width="20" height="14" viewBox="0 0 20 14" fill="none" xmlns="http://www.w3.org/2000/svg">
<path d="M16.6919 0.308114C16.5747 0.190944 16.4158 0.125122 16.25 0.125122C16.0843 0.125122 15.9254 0.190944 15.8081 0.308114L13.8244 2.29186C12.6323 1.70943 11.3266 1.3964 10 1.37499C4.92127 1.37499 0.925648 6.40061 0.758148 6.61436C0.671881 6.72439 0.625 6.86017 0.625 6.99999C0.625 7.1398 0.671881 7.27558 0.758148 7.38561C1.96711 8.84668 3.40773 10.0994 5.02252 11.0937L3.30815 12.8081C3.24845 12.8658 3.20084 12.9347 3.16808 13.011C3.13533 13.0872 3.11809 13.1693 3.11737 13.2522C3.11665 13.3352 3.13246 13.4175 3.16388 13.4943C3.19531 13.5711 3.24172 13.6409 3.3004 13.6996C3.35908 13.7583 3.42887 13.8047 3.50568 13.8361C3.58249 13.8676 3.66479 13.8834 3.74777 13.8826C3.83076 13.8819 3.91277 13.8647 3.98903 13.8319C4.06528 13.7992 4.13424 13.7516 4.1919 13.6919L16.6919 1.19186C16.8091 1.07466 16.8749 0.915716 16.8749 0.749989C16.8749 0.584261 16.8091 0.425319 16.6919 0.308114ZM6.87502 6.99999C6.87602 6.17149 7.20557 5.37721 7.79141 4.79138C8.37725 4.20554 9.17153 3.87598 10 3.87499C10.6094 3.87931 11.2035 4.06561 11.7063 4.40999L7.41002 8.70624C7.06564 8.20351 6.87934 7.60934 6.87502 6.99999Z" fill="#645878"/>
<path d="M19.2422 6.61431C18.3071 5.48129 17.2328 4.47081 16.0447 3.60681L13.0816 6.56994C13.1063 6.71205 13.1209 6.85575 13.1253 6.99994C13.1243 7.82843 12.7948 8.62271 12.2089 9.20855C11.6231 9.79439 10.8288 10.1239 10.0003 10.1249C9.85612 10.1206 9.71243 10.1059 9.57031 10.0812L7.44531 12.2062C8.27043 12.4761 9.1322 12.6173 10.0003 12.6249C15.0791 12.6249 19.0747 7.59931 19.2422 7.38556C19.3285 7.27553 19.3753 7.13975 19.3753 6.99994C19.3753 6.86012 19.3285 6.72434 19.2422 6.61431Z" fill="#645878"/>
</svg>
