<svg width="21" height="20" viewBox="0 0 21 20" fill="none" xmlns="http://www.w3.org/2000/svg">
<path fill-rule="evenodd" clip-rule="evenodd" d="M20.1 10.2273C20.1 9.51825 20.0364 8.83643 19.9182 8.18188H10.5V12.0501H15.8818C15.65 13.3001 14.9455 14.3592 13.8864 15.0682V17.5773H17.1182C19.0091 15.8364 20.1 13.2728 20.1 10.2273Z" fill="#4285F4"/>
<path fill-rule="evenodd" clip-rule="evenodd" d="M10.5008 20C13.2008 20 15.4645 19.1046 17.119 17.5773L13.8872 15.0682C12.9917 15.6682 11.8463 16.0228 10.5008 16.0228C7.89627 16.0228 5.69173 14.2637 4.90536 11.9H1.56445V14.4909C3.20991 17.7591 6.59173 20 10.5008 20Z" fill="#34A853"/>
<path fill-rule="evenodd" clip-rule="evenodd" d="M4.90455 11.9001C4.70455 11.3001 4.59091 10.6592 4.59091 10.0001C4.59091 9.34097 4.70455 8.70006 4.90455 8.10006V5.50916H1.56364C0.886364 6.85916 0.5 8.38643 0.5 10.0001C0.5 11.6137 0.886364 13.141 1.56364 14.491L4.90455 11.9001Z" fill="#FBBC05"/>
<path fill-rule="evenodd" clip-rule="evenodd" d="M10.5008 3.97727C11.969 3.97727 13.2872 4.48182 14.3235 5.47273L17.1917 2.60455C15.4599 0.990909 13.1963 0 10.5008 0C6.59173 0 3.20991 2.24091 1.56445 5.50909L4.90536 8.1C5.69173 5.73636 7.89627 3.97727 10.5008 3.97727Z" fill="#EA4335"/>
</svg>
