<svg width="380" height="147" viewBox="0 0 380 147" fill="none" xmlns="http://www.w3.org/2000/svg">
<g filter="url(#filter0_b_27_5608)">
<g clip-path="url(#clip0_27_5608)">
<rect width="380" height="147" rx="15" fill="black" fill-opacity="0.1"/>
<rect x="14.25" y="14.125" width="118.75" height="118.75" rx="11.4" fill="#FF4A4D"/>
<g clip-path="url(#clip1_27_5608)">
<path d="M106.314 59.7642C102.942 56.6505 98.2769 51.8958 94.4776 48.5237L94.2528 48.3663C93.8788 48.066 93.457 47.8304 93.0051 47.6694C83.8442 45.9609 41.2091 37.9914 40.3773 38.0925C40.1442 38.1252 39.9215 38.2097 39.7254 38.3398L39.5118 38.5084C39.2488 38.7755 39.0491 39.0982 38.9273 39.4526L38.8711 39.5988V40.3968V40.5205C43.6708 53.8854 62.6222 97.667 66.354 107.941C66.5788 108.638 67.006 109.964 67.804 110.031H67.9839C68.411 110.031 70.232 107.626 70.232 107.626C70.232 107.626 102.784 68.1495 106.078 63.9456C106.504 63.4278 106.88 62.8708 107.202 62.282C107.284 61.8214 107.245 61.3473 107.09 60.9061C106.934 60.4648 106.667 60.0714 106.314 59.7642ZM78.5836 64.3615L92.4768 52.84L100.626 60.3487L78.5836 64.3615ZM73.1882 63.6084L49.2685 44.005L87.9694 51.1427L73.1882 63.6084ZM75.3464 68.7453L99.8281 64.7999L71.8394 98.5213L75.3464 68.7453ZM46.02 45.9609L71.1874 67.3177L67.5455 98.5437L46.02 45.9609Z" fill="white"/>
</g>
<g filter="url(#filter1_f_27_5608)">
<ellipse cx="333.925" cy="27.9" rx="70.775" ry="70.775" fill="#A040FD"/>
</g>
<g filter="url(#filter2_f_27_5608)">
<ellipse cx="241.775" cy="132.4" rx="70.775" ry="70.775" fill="#1E96F4" fill-opacity="0.5"/>
</g>
<path d="M164.403 18.2106V20.787H160.162V34.125H156.97V20.787H152.73V18.2106H164.403ZM178.474 27.5358C178.474 27.9918 178.444 28.4022 178.383 28.767H169.149C169.225 29.679 169.544 30.3934 170.107 30.9102C170.669 31.427 171.361 31.6854 172.181 31.6854C173.367 31.6854 174.211 31.1762 174.712 30.1578H178.155C177.79 31.3738 177.091 32.377 176.057 33.1674C175.024 33.9426 173.755 34.3302 172.25 34.3302C171.034 34.3302 169.939 34.0642 168.967 33.5322C168.009 32.985 167.257 32.2174 166.709 31.2294C166.177 30.2414 165.911 29.1014 165.911 27.8094C165.911 26.5022 166.177 25.3546 166.709 24.3666C167.241 23.3786 167.986 22.6186 168.944 22.0866C169.901 21.5546 171.003 21.2886 172.25 21.2886C173.451 21.2886 174.522 21.547 175.465 22.0638C176.422 22.5806 177.159 23.3178 177.676 24.2754C178.208 25.2178 178.474 26.3046 178.474 27.5358ZM175.168 26.6238C175.153 25.803 174.857 25.1494 174.279 24.663C173.701 24.1614 172.995 23.9106 172.159 23.9106C171.368 23.9106 170.699 24.1538 170.152 24.6402C169.62 25.1114 169.293 25.7726 169.172 26.6238H175.168ZM184.52 24.1158V30.2262C184.52 30.6518 184.619 30.9634 184.817 31.161C185.03 31.3434 185.379 31.4346 185.866 31.4346H187.348V34.125H185.341C182.651 34.125 181.306 32.8178 181.306 30.2034V24.1158H179.801V21.4938H181.306V18.3702H184.52V21.4938H187.348V24.1158H184.52ZM196.757 21.3114C197.715 21.3114 198.566 21.5242 199.311 21.9498C200.056 22.3602 200.633 22.9758 201.044 23.7966C201.469 24.6022 201.682 25.575 201.682 26.715V34.125H198.49V27.1482C198.49 26.145 198.239 25.3774 197.738 24.8454C197.236 24.2982 196.552 24.0246 195.686 24.0246C194.804 24.0246 194.105 24.2982 193.588 24.8454C193.086 25.3774 192.836 26.145 192.836 27.1482V34.125H189.644V17.253H192.836V23.067C193.246 22.5198 193.793 22.0942 194.477 21.7902C195.161 21.471 195.921 21.3114 196.757 21.3114ZM216.459 27.5358C216.459 27.9918 216.429 28.4022 216.368 28.767H207.134C207.21 29.679 207.529 30.3934 208.092 30.9102C208.654 31.427 209.346 31.6854 210.167 31.6854C211.352 31.6854 212.196 31.1762 212.697 30.1578H216.14C215.775 31.3738 215.076 32.377 214.043 33.1674C213.009 33.9426 211.74 34.3302 210.235 34.3302C209.019 34.3302 207.925 34.0642 206.952 33.5322C205.994 32.985 205.242 32.2174 204.695 31.2294C204.163 30.2414 203.897 29.1014 203.897 27.8094C203.897 26.5022 204.163 25.3546 204.695 24.3666C205.227 23.3786 205.971 22.6186 206.929 22.0866C207.887 21.5546 208.989 21.2886 210.235 21.2886C211.436 21.2886 212.507 21.547 213.45 22.0638C214.407 22.5806 215.145 23.3178 215.661 24.2754C216.193 25.2178 216.459 26.3046 216.459 27.5358ZM213.153 26.6238C213.138 25.803 212.842 25.1494 212.264 24.663C211.687 24.1614 210.98 23.9106 210.144 23.9106C209.353 23.9106 208.685 24.1538 208.137 24.6402C207.605 25.1114 207.279 25.7726 207.157 26.6238H213.153ZM221.981 23.4546C222.392 22.7858 222.924 22.2614 223.577 21.8814C224.246 21.5014 225.006 21.3114 225.857 21.3114V24.663H225.014C224.01 24.663 223.25 24.8986 222.734 25.3698C222.232 25.841 221.981 26.6618 221.981 27.8322V34.125H218.789V21.4938H221.981V23.4546Z" fill="white"/>
<rect x="230.801" y="14.125" width="31.6" height="13.8" rx="3.8" fill="white" fill-opacity="0.1"/>
<path d="M236.179 17.4035V21.593C236.179 22.182 236.321 22.619 236.606 22.904C236.897 23.189 237.3 23.3315 237.813 23.3315C238.319 23.3315 238.715 23.189 239 22.904C239.291 22.619 239.437 22.182 239.437 21.593V17.4035H240.302V21.5835C240.302 22.1345 240.191 22.6 239.969 22.98C239.747 23.3537 239.447 23.6323 239.067 23.816C238.693 23.9997 238.272 24.0915 237.803 24.0915C237.334 24.0915 236.91 23.9997 236.53 23.816C236.156 23.6323 235.859 23.3537 235.637 22.98C235.422 22.6 235.314 22.1345 235.314 21.5835V17.4035H236.179ZM243.843 24.0915C243.406 24.0915 243.014 24.0155 242.665 23.8635C242.323 23.7052 242.054 23.4898 241.858 23.2175C241.661 22.9388 241.56 22.619 241.554 22.258H242.475C242.507 22.5683 242.634 22.8312 242.855 23.0465C243.083 23.2555 243.413 23.36 243.843 23.36C244.255 23.36 244.578 23.2587 244.812 23.056C245.053 22.847 245.173 22.581 245.173 22.258C245.173 22.0047 245.104 21.7988 244.964 21.6405C244.825 21.4822 244.651 21.3618 244.442 21.2795C244.233 21.1972 243.951 21.1085 243.596 21.0135C243.159 20.8995 242.808 20.7855 242.542 20.6715C242.282 20.5575 242.057 20.3802 241.867 20.1395C241.684 19.8925 241.592 19.5632 241.592 19.1515C241.592 18.7905 241.684 18.4707 241.867 18.192C242.051 17.9133 242.307 17.698 242.637 17.546C242.972 17.394 243.356 17.318 243.786 17.318C244.407 17.318 244.914 17.4732 245.306 17.7835C245.705 18.0938 245.93 18.5055 245.981 19.0185H245.031C244.999 18.7652 244.866 18.5435 244.632 18.3535C244.397 18.1572 244.087 18.059 243.701 18.059C243.34 18.059 243.045 18.154 242.817 18.344C242.589 18.5277 242.475 18.7873 242.475 19.123C242.475 19.3637 242.542 19.56 242.675 19.712C242.814 19.864 242.982 19.9812 243.178 20.0635C243.381 20.1395 243.663 20.2282 244.024 20.3295C244.461 20.4498 244.812 20.5702 245.078 20.6905C245.344 20.8045 245.572 20.985 245.762 21.232C245.952 21.4727 246.047 21.802 246.047 22.22C246.047 22.543 245.962 22.847 245.791 23.132C245.62 23.417 245.366 23.6482 245.031 23.8255C244.695 24.0028 244.299 24.0915 243.843 24.0915ZM249.381 17.4035C250.103 17.4035 250.727 17.5397 251.252 17.812C251.784 18.078 252.19 18.4612 252.468 18.9615C252.753 19.4618 252.896 20.0508 252.896 20.7285C252.896 21.4062 252.753 21.9952 252.468 22.4955C252.19 22.9895 251.784 23.3695 251.252 23.6355C250.727 23.8952 250.103 24.025 249.381 24.025H247.319V17.4035H249.381ZM249.381 23.3125C250.236 23.3125 250.888 23.0877 251.338 22.638C251.788 22.182 252.012 21.5455 252.012 20.7285C252.012 19.9052 251.784 19.2623 251.328 18.8C250.879 18.3377 250.23 18.1065 249.381 18.1065H248.184V23.3125H249.381ZM258.112 17.4035V18.1065H256.307V24.025H255.442V18.1065H253.628V17.4035H258.112Z" fill="white"/>
<path d="M358.436 22.6498L350.265 30.6" stroke="#C6A1F6" stroke-width="1.425" stroke-linecap="square" stroke-linejoin="round"/>
<path d="M350.374 22.5399L358.324 30.7102" stroke="#C6A1F6" stroke-width="1.425" stroke-linecap="square" stroke-linejoin="round"/>
<path d="M160.254 53.2314C160.254 54.113 159.95 54.8477 159.342 55.4354C158.744 56.013 157.827 56.3018 156.59 56.3018H154.554V60.725H153.17V50.1306H156.59C157.786 50.1306 158.693 50.4194 159.311 50.997C159.939 51.5746 160.254 52.3194 160.254 53.2314ZM156.59 55.1618C157.361 55.1618 157.928 54.9946 158.293 54.6602C158.658 54.3258 158.84 53.8495 158.84 53.2314C158.84 51.9242 158.09 51.2706 156.59 51.2706H154.554V55.1618H156.59ZM169.36 52.3954V60.725H167.977V59.4938C167.713 59.9194 167.343 60.2538 166.867 60.497C166.401 60.7301 165.884 60.8466 165.317 60.8466C164.668 60.8466 164.086 60.7149 163.569 60.4514C163.052 60.1778 162.642 59.7725 162.338 59.2354C162.044 58.6983 161.897 58.0447 161.897 57.2746V52.3954H163.265V57.0922C163.265 57.913 163.472 58.5463 163.888 58.9922C164.303 59.4279 164.871 59.6458 165.59 59.6458C166.33 59.6458 166.913 59.4178 167.338 58.9618C167.764 58.5058 167.977 57.8421 167.977 56.9706V52.3954H169.36ZM173.079 53.7482C173.322 53.2719 173.666 52.9021 174.112 52.6386C174.568 52.3751 175.12 52.2434 175.769 52.2434V53.6722H175.404C173.854 53.6722 173.079 54.5133 173.079 56.1954V60.725H171.695V52.3954H173.079V53.7482ZM176.849 56.545C176.849 55.6837 177.021 54.9338 177.366 54.2954C177.71 53.6469 178.187 53.1453 178.795 52.7906C179.413 52.4359 180.117 52.2586 180.907 52.2586C181.931 52.2586 182.772 52.5069 183.431 53.0034C184.099 53.4999 184.54 54.189 184.753 55.0706H183.263C183.121 54.5639 182.843 54.1637 182.427 53.8698C182.022 53.5759 181.515 53.429 180.907 53.429C180.117 53.429 179.479 53.7026 178.992 54.2498C178.506 54.7869 178.263 55.5519 178.263 56.545C178.263 57.5482 178.506 58.3234 178.992 58.8706C179.479 59.4178 180.117 59.6914 180.907 59.6914C181.515 59.6914 182.022 59.5495 182.427 59.2658C182.833 58.9821 183.111 58.5767 183.263 58.0498H184.753C184.53 58.901 184.084 59.585 183.415 60.1018C182.747 60.6085 181.911 60.8618 180.907 60.8618C180.117 60.8618 179.413 60.6845 178.795 60.3298C178.187 59.9751 177.71 59.4735 177.366 58.825C177.021 58.1765 176.849 57.4165 176.849 56.545ZM190.733 52.2434C191.361 52.2434 191.929 52.3802 192.435 52.6538C192.942 52.9173 193.337 53.3175 193.621 53.8546C193.915 54.3917 194.062 55.0453 194.062 55.8154V60.725H192.694V56.013C192.694 55.1821 192.486 54.5487 192.071 54.113C191.655 53.6671 191.088 53.4442 190.368 53.4442C189.639 53.4442 189.056 53.6722 188.62 54.1282C188.195 54.5842 187.982 55.2479 187.982 56.1194V60.725H186.599V49.477H187.982V53.581C188.255 53.1554 188.63 52.8261 189.107 52.593C189.593 52.3599 190.135 52.2434 190.733 52.2434ZM195.804 56.5298C195.804 55.6786 195.977 54.9338 196.321 54.2954C196.666 53.6469 197.137 53.1453 197.735 52.7906C198.343 52.4359 199.017 52.2586 199.756 52.2586C200.486 52.2586 201.119 52.4157 201.656 52.7298C202.193 53.0439 202.594 53.4391 202.857 53.9154V52.3954H204.256V60.725H202.857V59.1746C202.584 59.661 202.173 60.0663 201.626 60.3906C201.089 60.7047 200.461 60.8618 199.741 60.8618C199.001 60.8618 198.333 60.6794 197.735 60.3146C197.137 59.9498 196.666 59.4381 196.321 58.7794C195.977 58.1207 195.804 57.3709 195.804 56.5298ZM202.857 56.545C202.857 55.9167 202.731 55.3695 202.477 54.9034C202.224 54.4373 201.879 54.0826 201.444 53.8394C201.018 53.5861 200.547 53.4594 200.03 53.4594C199.513 53.4594 199.042 53.581 198.616 53.8242C198.191 54.0674 197.851 54.4221 197.598 54.8882C197.345 55.3543 197.218 55.9015 197.218 56.5298C197.218 57.1682 197.345 57.7255 197.598 58.2018C197.851 58.6679 198.191 59.0277 198.616 59.281C199.042 59.5242 199.513 59.6458 200.03 59.6458C200.547 59.6458 201.018 59.5242 201.444 59.281C201.879 59.0277 202.224 58.6679 202.477 58.2018C202.731 57.7255 202.857 57.1733 202.857 56.545ZM209.542 60.8618C208.903 60.8618 208.331 60.7554 207.824 60.5426C207.318 60.3197 206.917 60.0157 206.623 59.6306C206.33 59.2354 206.167 58.7845 206.137 58.2778H207.566C207.606 58.6933 207.799 59.0327 208.143 59.2962C208.498 59.5597 208.959 59.6914 209.527 59.6914C210.054 59.6914 210.469 59.5749 210.773 59.3418C211.077 59.1087 211.229 58.8149 211.229 58.4602C211.229 58.0954 211.067 57.8269 210.743 57.6546C210.418 57.4722 209.917 57.2949 209.238 57.1226C208.62 56.9605 208.113 56.7983 207.718 56.6362C207.333 56.4639 206.998 56.2157 206.715 55.8914C206.441 55.557 206.304 55.1213 206.304 54.5842C206.304 54.1586 206.431 53.7685 206.684 53.4138C206.938 53.0591 207.297 52.7805 207.763 52.5778C208.23 52.365 208.762 52.2586 209.359 52.2586C210.282 52.2586 211.026 52.4917 211.594 52.9578C212.161 53.4239 212.465 54.0623 212.506 54.873H211.123C211.092 54.4373 210.915 54.0877 210.591 53.8242C210.277 53.5607 209.851 53.429 209.314 53.429C208.817 53.429 208.422 53.5354 208.128 53.7482C207.834 53.961 207.687 54.2397 207.687 54.5842C207.687 54.8578 207.774 55.0858 207.946 55.2682C208.128 55.4405 208.351 55.5823 208.615 55.6938C208.888 55.7951 209.263 55.9117 209.739 56.0434C210.337 56.2055 210.824 56.3677 211.199 56.5298C211.574 56.6818 211.893 56.9149 212.156 57.229C212.43 57.5431 212.572 57.9535 212.582 58.4602C212.582 58.9162 212.455 59.3266 212.202 59.6914C211.949 60.0562 211.589 60.345 211.123 60.5578C210.667 60.7605 210.14 60.8618 209.542 60.8618ZM222.134 56.241C222.134 56.5045 222.119 56.7831 222.089 57.077H215.431C215.482 57.8978 215.761 58.5413 216.267 59.0074C216.784 59.4634 217.407 59.6914 218.137 59.6914C218.735 59.6914 219.231 59.5546 219.626 59.281C220.032 58.9973 220.316 58.6223 220.478 58.1562H221.967C221.744 58.9567 221.298 59.6103 220.63 60.117C219.961 60.6135 219.13 60.8618 218.137 60.8618C217.346 60.8618 216.637 60.6845 216.009 60.3298C215.391 59.9751 214.904 59.4735 214.55 58.825C214.195 58.1663 214.018 57.4063 214.018 56.545C214.018 55.6837 214.19 54.9287 214.534 54.2802C214.879 53.6317 215.36 53.1351 215.978 52.7906C216.607 52.4359 217.326 52.2586 218.137 52.2586C218.927 52.2586 219.626 52.4309 220.234 52.7754C220.842 53.1199 221.309 53.5962 221.633 54.2042C221.967 54.8021 222.134 55.481 222.134 56.241ZM220.706 55.9522C220.706 55.4253 220.589 54.9743 220.356 54.5994C220.123 54.2143 219.804 53.9255 219.398 53.733C219.003 53.5303 218.562 53.429 218.076 53.429C217.377 53.429 216.779 53.6519 216.282 54.0978C215.796 54.5437 215.517 55.1618 215.446 55.9522H220.706ZM236.403 53.733L235.825 56.469H237.923V57.685H235.567L234.913 60.725H233.591L234.245 57.685H231.053L230.399 60.725H229.077L229.73 57.685H227.344V56.469H229.989L230.566 53.733H228.21V52.517H230.825L231.478 49.477H232.801L232.147 52.517H235.339L235.993 49.477H237.315L236.661 52.517H238.774V53.733H236.403ZM235.081 53.733H231.889L231.311 56.469H234.503L235.081 53.733ZM240.383 59.6154C241.67 58.5818 242.678 57.7357 243.408 57.077C244.137 56.4082 244.75 55.7141 245.247 54.9946C245.754 54.265 246.007 53.5506 246.007 52.8514C246.007 52.1927 245.845 51.6759 245.521 51.301C245.206 50.9159 244.695 50.7234 243.985 50.7234C243.296 50.7234 242.759 50.9413 242.374 51.377C241.999 51.8026 241.797 52.3751 241.766 53.0946H240.429C240.469 51.9597 240.814 51.0831 241.462 50.465C242.111 49.8469 242.947 49.5378 243.97 49.5378C245.014 49.5378 245.84 49.8266 246.448 50.4042C247.066 50.9818 247.375 51.7773 247.375 52.7906C247.375 53.6317 247.122 54.4525 246.615 55.253C246.118 56.0434 245.551 56.7426 244.913 57.3506C244.274 57.9485 243.458 58.6477 242.465 59.4482H247.694V60.6034H240.383V59.6154ZM251.072 57.7762C251.173 58.3538 251.406 58.7997 251.771 59.1138C252.146 59.4279 252.647 59.585 253.276 59.585C254.117 59.585 254.735 59.2557 255.13 58.597C255.535 57.9383 255.728 56.8287 255.708 55.2682C255.495 55.7242 255.14 56.0839 254.644 56.3474C254.147 56.6007 253.595 56.7274 252.987 56.7274C252.308 56.7274 251.7 56.5906 251.163 56.317C250.636 56.0333 250.22 55.6229 249.916 55.0858C249.612 54.5487 249.46 53.9002 249.46 53.1402C249.46 52.0559 249.775 51.1845 250.403 50.5258C251.031 49.857 251.923 49.5226 253.078 49.5226C254.497 49.5226 255.49 49.9837 256.057 50.9058C256.635 51.8279 256.924 53.201 256.924 55.025C256.924 56.3018 256.807 57.3557 256.574 58.1866C256.351 59.0175 255.966 59.6509 255.419 60.0866C254.882 60.5223 254.142 60.7402 253.2 60.7402C252.166 60.7402 251.36 60.4615 250.783 59.9042C250.205 59.3469 249.876 58.6375 249.795 57.7762H251.072ZM253.215 55.557C253.894 55.557 254.451 55.3493 254.887 54.9338C255.323 54.5082 255.54 53.9357 255.54 53.2162C255.54 52.4562 255.328 51.8431 254.902 51.377C254.476 50.9109 253.879 50.6778 253.108 50.6778C252.399 50.6778 251.832 50.9007 251.406 51.3466C250.991 51.7925 250.783 52.3802 250.783 53.1098C250.783 53.8495 250.991 54.4423 251.406 54.8882C251.821 55.3341 252.424 55.557 253.215 55.557ZM258.7 59.6154C259.987 58.5818 260.995 57.7357 261.725 57.077C262.455 56.4082 263.068 55.7141 263.564 54.9946C264.071 54.265 264.324 53.5506 264.324 52.8514C264.324 52.1927 264.162 51.6759 263.838 51.301C263.524 50.9159 263.012 50.7234 262.303 50.7234C261.614 50.7234 261.076 50.9413 260.691 51.377C260.316 51.8026 260.114 52.3751 260.083 53.0946H258.746C258.786 51.9597 259.131 51.0831 259.779 50.465C260.428 49.8469 261.264 49.5378 262.287 49.5378C263.331 49.5378 264.157 49.8266 264.765 50.4042C265.383 50.9818 265.692 51.7773 265.692 52.7906C265.692 53.6317 265.439 54.4525 264.932 55.253C264.436 56.0434 263.868 56.7426 263.23 57.3506C262.591 57.9485 261.776 58.6477 260.783 59.4482H266.011V60.6034H258.7V59.6154ZM273.736 52.3498C273.513 51.225 272.819 50.6626 271.654 50.6626C270.752 50.6626 270.078 51.0122 269.632 51.7114C269.186 52.4005 268.968 53.5405 268.978 55.1314C269.211 54.6045 269.597 54.1941 270.134 53.9002C270.681 53.5962 271.289 53.4442 271.958 53.4442C273.001 53.4442 273.832 53.7685 274.45 54.417C275.079 55.0655 275.393 55.9623 275.393 57.1074C275.393 57.7965 275.256 58.4146 274.982 58.9618C274.719 59.509 274.314 59.9447 273.766 60.269C273.229 60.5933 272.576 60.7554 271.806 60.7554C270.762 60.7554 269.946 60.5223 269.358 60.0562C268.771 59.5901 268.36 58.9466 268.127 58.1258C267.894 57.305 267.778 56.2917 267.778 55.0858C267.778 51.3669 269.075 49.5074 271.669 49.5074C272.662 49.5074 273.442 49.7759 274.01 50.313C274.577 50.8501 274.911 51.529 275.013 52.3498H273.736ZM271.669 54.6146C271.233 54.6146 270.823 54.7058 270.438 54.8882C270.053 55.0605 269.738 55.329 269.495 55.6938C269.262 56.0485 269.146 56.4842 269.146 57.001C269.146 57.7711 269.369 58.3994 269.814 58.8858C270.26 59.3621 270.899 59.6002 271.73 59.6002C272.439 59.6002 273.001 59.3823 273.417 58.9466C273.842 58.5007 274.055 57.9029 274.055 57.153C274.055 56.3626 273.853 55.7445 273.447 55.2986C273.042 54.8426 272.449 54.6146 271.669 54.6146Z" fill="white" fill-opacity="0.5"/>
<path d="M306.824 55.7546H303.587V59.0378H302.295V55.7546H299.072V54.5842H302.295V51.2858H303.587V54.5842H306.824V55.7546ZM309.038 52.5018C309.109 51.5695 309.468 50.8399 310.117 50.313C310.766 49.7861 311.607 49.5226 312.64 49.5226C313.329 49.5226 313.922 49.6493 314.419 49.9026C314.925 50.1458 315.305 50.4802 315.559 50.9058C315.822 51.3314 315.954 51.8127 315.954 52.3498C315.954 52.9781 315.771 53.5202 315.407 53.9762C315.052 54.4322 314.586 54.7261 314.008 54.8578V54.9338C314.667 55.0959 315.189 55.4151 315.574 55.8914C315.959 56.3677 316.151 56.9909 316.151 57.761C316.151 58.3386 316.02 58.8605 315.756 59.3266C315.493 59.7826 315.098 60.1423 314.571 60.4058C314.044 60.6693 313.41 60.801 312.671 60.801C311.596 60.801 310.715 60.5223 310.026 59.965C309.337 59.3975 308.952 58.597 308.871 57.5634H310.208C310.279 58.1714 310.527 58.6679 310.953 59.053C311.379 59.4381 311.946 59.6306 312.655 59.6306C313.365 59.6306 313.902 59.4482 314.267 59.0834C314.642 58.7085 314.829 58.2271 314.829 57.6394C314.829 56.8794 314.576 56.3322 314.069 55.9978C313.562 55.6634 312.797 55.4962 311.774 55.4962H311.424V54.341H311.789C312.721 54.3309 313.426 54.1789 313.902 53.885C314.378 53.581 314.616 53.1149 314.616 52.4866C314.616 51.9495 314.439 51.5189 314.084 51.1946C313.74 50.8703 313.243 50.7082 312.595 50.7082C311.966 50.7082 311.46 50.8703 311.075 51.1946C310.69 51.5189 310.462 51.9546 310.391 52.5018H309.038ZM319.676 58.8098L317.973 62.8986H317.046L318.156 58.8098H319.676ZM322.811 57.7762C322.912 58.3538 323.145 58.7997 323.51 59.1138C323.885 59.4279 324.386 59.585 325.015 59.585C325.856 59.585 326.474 59.2557 326.869 58.597C327.274 57.9383 327.467 56.8287 327.447 55.2682C327.234 55.7242 326.879 56.0839 326.383 56.3474C325.886 56.6007 325.334 56.7274 324.726 56.7274C324.047 56.7274 323.439 56.5906 322.902 56.317C322.375 56.0333 321.959 55.6229 321.655 55.0858C321.351 54.5487 321.199 53.9002 321.199 53.1402C321.199 52.0559 321.514 51.1845 322.142 50.5258C322.77 49.857 323.662 49.5226 324.817 49.5226C326.236 49.5226 327.229 49.9837 327.796 50.9058C328.374 51.8279 328.663 53.201 328.663 55.025C328.663 56.3018 328.546 57.3557 328.313 58.1866C328.09 59.0175 327.705 59.6509 327.158 60.0866C326.621 60.5223 325.881 60.7402 324.939 60.7402C323.905 60.7402 323.099 60.4615 322.522 59.9042C321.944 59.3469 321.615 58.6375 321.534 57.7762H322.811ZM324.954 55.557C325.633 55.557 326.19 55.3493 326.626 54.9338C327.062 54.5082 327.279 53.9357 327.279 53.2162C327.279 52.4562 327.067 51.8431 326.641 51.377C326.215 50.9109 325.618 50.6778 324.847 50.6778C324.138 50.6778 323.571 50.9007 323.145 51.3466C322.73 51.7925 322.522 52.3802 322.522 53.1098C322.522 53.8495 322.73 54.4423 323.145 54.8882C323.561 55.3341 324.163 55.557 324.954 55.557ZM330.439 59.6154C331.726 58.5818 332.734 57.7357 333.464 57.077C334.194 56.4082 334.807 55.7141 335.303 54.9946C335.81 54.265 336.063 53.5506 336.063 52.8514C336.063 52.1927 335.901 51.6759 335.577 51.301C335.263 50.9159 334.751 50.7234 334.042 50.7234C333.353 50.7234 332.816 50.9413 332.43 51.377C332.056 51.8026 331.853 52.3751 331.822 53.0946H330.485C330.525 51.9597 330.87 51.0831 331.518 50.465C332.167 49.8469 333.003 49.5378 334.026 49.5378C335.07 49.5378 335.896 49.8266 336.504 50.4042C337.122 50.9818 337.431 51.7773 337.431 52.7906C337.431 53.6317 337.178 54.4525 336.671 55.253C336.175 56.0434 335.607 56.7426 334.969 57.3506C334.33 57.9485 333.515 58.6477 332.522 59.4482H337.75V60.6034H330.439V59.6154ZM338.985 50.997V49.7354H341.842V60.725H340.444V50.997H338.985ZM344.887 60.8162C344.624 60.8162 344.401 60.725 344.218 60.5426C344.036 60.3602 343.945 60.1373 343.945 59.8738C343.945 59.6103 344.036 59.3874 344.218 59.205C344.401 59.0226 344.624 58.9314 344.887 58.9314C345.14 58.9314 345.353 59.0226 345.525 59.205C345.708 59.3874 345.799 59.6103 345.799 59.8738C345.799 60.1373 345.708 60.3602 345.525 60.5426C345.353 60.725 345.14 60.8162 344.887 60.8162ZM347.379 52.5018C347.45 51.5695 347.81 50.8399 348.458 50.313C349.107 49.7861 349.948 49.5226 350.982 49.5226C351.671 49.5226 352.263 49.6493 352.76 49.9026C353.267 50.1458 353.647 50.4802 353.9 50.9058C354.163 51.3314 354.295 51.8127 354.295 52.3498C354.295 52.9781 354.113 53.5202 353.748 53.9762C353.393 54.4322 352.927 54.7261 352.35 54.8578V54.9338C353.008 55.0959 353.53 55.4151 353.915 55.8914C354.3 56.3677 354.493 56.9909 354.493 57.761C354.493 58.3386 354.361 58.8605 354.098 59.3266C353.834 59.7826 353.439 60.1423 352.912 60.4058C352.385 60.6693 351.752 60.801 351.012 60.801C349.938 60.801 349.056 60.5223 348.367 59.965C347.678 59.3975 347.293 58.597 347.212 57.5634H348.55C348.621 58.1714 348.869 58.6679 349.294 59.053C349.72 59.4381 350.287 59.6306 350.997 59.6306C351.706 59.6306 352.243 59.4482 352.608 59.0834C352.983 58.7085 353.17 58.2271 353.17 57.6394C353.17 56.8794 352.917 56.3322 352.41 55.9978C351.904 55.6634 351.139 55.4962 350.115 55.4962H349.766V54.341H350.13C351.063 54.3309 351.767 54.1789 352.243 53.885C352.719 53.581 352.958 53.1149 352.958 52.4866C352.958 51.9495 352.78 51.5189 352.426 51.1946C352.081 50.8703 351.585 50.7082 350.936 50.7082C350.308 50.7082 349.801 50.8703 349.416 51.1946C349.031 51.5189 348.803 51.9546 348.732 52.5018H347.379ZM356.026 58.2778V57.229L361.361 49.8418H363.018V57.077H364.538V58.2778H363.018V60.725H361.65V58.2778H356.026ZM361.711 51.2858L357.622 57.077H361.711V51.2858Z" fill="white"/>
<path d="M152.942 124.266C152.942 122.523 153.226 121.165 153.794 120.193C154.361 119.21 155.354 118.718 156.773 118.718C158.181 118.718 159.169 119.21 159.737 120.193C160.304 121.165 160.588 122.523 160.588 124.266C160.588 126.04 160.304 127.418 159.737 128.401C159.169 129.384 158.181 129.875 156.773 129.875C155.354 129.875 154.361 129.384 153.794 128.401C153.226 127.418 152.942 126.04 152.942 124.266ZM159.22 124.266C159.22 123.385 159.159 122.64 159.038 122.032C158.926 121.414 158.688 120.917 158.323 120.542C157.969 120.167 157.452 119.98 156.773 119.98C156.084 119.98 155.557 120.167 155.192 120.542C154.837 120.917 154.599 121.414 154.478 122.032C154.366 122.64 154.31 123.385 154.31 124.266C154.31 125.178 154.366 125.943 154.478 126.561C154.599 127.18 154.837 127.676 155.192 128.051C155.557 128.426 156.084 128.613 156.773 128.613C157.452 128.613 157.969 128.426 158.323 128.051C158.688 127.676 158.926 127.18 159.038 126.561C159.159 125.943 159.22 125.178 159.22 124.266ZM169.251 119.965L165.025 129.875H163.627L167.913 120.101H162.046V118.916H169.251V119.965ZM176.181 115.557L172.016 132.459H170.648L174.797 115.557H176.181ZM177.846 128.765C179.133 127.732 180.141 126.886 180.871 126.227C181.601 125.558 182.214 124.864 182.71 124.145C183.217 123.415 183.47 122.701 183.47 122.001C183.47 121.343 183.308 120.826 182.984 120.451C182.67 120.066 182.158 119.873 181.449 119.873C180.76 119.873 180.223 120.091 179.837 120.527C179.463 120.953 179.26 121.525 179.229 122.245H177.892C177.932 121.11 178.277 120.233 178.925 119.615C179.574 118.997 180.41 118.688 181.433 118.688C182.477 118.688 183.303 118.977 183.911 119.554C184.529 120.132 184.838 120.927 184.838 121.941C184.838 122.782 184.585 123.602 184.078 124.403C183.582 125.193 183.014 125.893 182.376 126.501C181.737 127.098 180.922 127.798 179.929 128.598H185.157V129.753H177.846V128.765ZM186.756 124.266C186.756 122.523 187.04 121.165 187.608 120.193C188.175 119.21 189.168 118.718 190.587 118.718C191.995 118.718 192.983 119.21 193.551 120.193C194.118 121.165 194.402 122.523 194.402 124.266C194.402 126.04 194.118 127.418 193.551 128.401C192.983 129.384 191.995 129.875 190.587 129.875C189.168 129.875 188.175 129.384 187.608 128.401C187.04 127.418 186.756 126.04 186.756 124.266ZM193.034 124.266C193.034 123.385 192.973 122.64 192.852 122.032C192.74 121.414 192.502 120.917 192.137 120.542C191.783 120.167 191.266 119.98 190.587 119.98C189.898 119.98 189.371 120.167 189.006 120.542C188.651 120.917 188.413 121.414 188.292 122.032C188.18 122.64 188.124 123.385 188.124 124.266C188.124 125.178 188.18 125.943 188.292 126.561C188.413 127.18 188.651 127.676 189.006 128.051C189.371 128.426 189.898 128.613 190.587 128.613C191.266 128.613 191.783 128.426 192.137 128.051C192.502 127.676 192.74 127.18 192.852 126.561C192.973 125.943 193.034 125.178 193.034 124.266ZM201.697 115.557L197.532 132.459H196.164L200.314 115.557H201.697ZM203.363 128.765C204.65 127.732 205.658 126.886 206.388 126.227C207.117 125.558 207.73 124.864 208.227 124.145C208.733 123.415 208.987 122.701 208.987 122.001C208.987 121.343 208.825 120.826 208.5 120.451C208.186 120.066 207.674 119.873 206.965 119.873C206.276 119.873 205.739 120.091 205.354 120.527C204.979 120.953 204.776 121.525 204.746 122.245H203.408C203.449 121.11 203.793 120.233 204.442 119.615C205.09 118.997 205.926 118.688 206.95 118.688C207.994 118.688 208.82 118.977 209.428 119.554C210.046 120.132 210.355 120.927 210.355 121.941C210.355 122.782 210.101 123.602 209.595 124.403C209.098 125.193 208.531 125.893 207.892 126.501C207.254 127.098 206.438 127.798 205.445 128.598H210.674V129.753H203.363V128.765ZM212.106 128.765C213.393 127.732 214.401 126.886 215.13 126.227C215.86 125.558 216.473 124.864 216.97 124.145C217.476 123.415 217.73 122.701 217.73 122.001C217.73 121.343 217.568 120.826 217.243 120.451C216.929 120.066 216.417 119.873 215.708 119.873C215.019 119.873 214.482 120.091 214.097 120.527C213.722 120.953 213.519 121.525 213.489 122.245H212.151C212.192 121.11 212.536 120.233 213.185 119.615C213.833 118.997 214.669 118.688 215.693 118.688C216.737 118.688 217.562 118.977 218.17 119.554C218.789 120.132 219.098 120.927 219.098 121.941C219.098 122.782 218.844 123.602 218.338 124.403C217.841 125.193 217.274 125.893 216.635 126.501C215.997 127.098 215.181 127.798 214.188 128.598H219.417V129.753H212.106V128.765Z" fill="white" fill-opacity="0.5"/>
<path d="M313.358 127.428V126.379L318.693 118.992H320.35V126.227H321.87V127.428H320.35V129.875H318.982V127.428H313.358ZM319.043 120.436L314.954 126.227H319.043V120.436ZM323.921 129.966C323.657 129.966 323.434 129.875 323.252 129.693C323.069 129.51 322.978 129.287 322.978 129.024C322.978 128.76 323.069 128.537 323.252 128.355C323.434 128.173 323.657 128.081 323.921 128.081C324.174 128.081 324.387 128.173 324.559 128.355C324.741 128.537 324.833 128.76 324.833 129.024C324.833 129.287 324.741 129.51 324.559 129.693C324.387 129.875 324.174 129.966 323.921 129.966ZM323.921 123.461C323.657 123.461 323.434 123.369 323.252 123.187C323.069 123.005 322.978 122.782 322.978 122.518C322.978 122.255 323.069 122.032 323.252 121.849C323.434 121.667 323.657 121.576 323.921 121.576C324.174 121.576 324.387 121.667 324.559 121.849C324.741 122.032 324.833 122.255 324.833 122.518C324.833 122.782 324.741 123.005 324.559 123.187C324.387 123.369 324.174 123.461 323.921 123.461ZM326.457 121.652C326.528 120.72 326.888 119.99 327.537 119.463C328.185 118.936 329.026 118.673 330.06 118.673C330.749 118.673 331.342 118.799 331.838 119.053C332.345 119.296 332.725 119.63 332.978 120.056C333.242 120.481 333.373 120.963 333.373 121.5C333.373 122.128 333.191 122.67 332.826 123.126C332.471 123.582 332.005 123.876 331.428 124.008V124.084C332.086 124.246 332.608 124.565 332.993 125.041C333.378 125.518 333.571 126.141 333.571 126.911C333.571 127.489 333.439 128.01 333.176 128.477C332.912 128.933 332.517 129.292 331.99 129.556C331.463 129.819 330.83 129.951 330.09 129.951C329.016 129.951 328.134 129.672 327.445 129.115C326.756 128.548 326.371 127.747 326.29 126.713H327.628C327.699 127.321 327.947 127.818 328.373 128.203C328.798 128.588 329.366 128.781 330.075 128.781C330.784 128.781 331.321 128.598 331.686 128.233C332.061 127.858 332.249 127.377 332.249 126.789C332.249 126.029 331.995 125.482 331.489 125.148C330.982 124.813 330.217 124.646 329.193 124.646H328.844V123.491H329.209C330.141 123.481 330.845 123.329 331.321 123.035C331.798 122.731 332.036 122.265 332.036 121.637C332.036 121.1 331.858 120.669 331.504 120.345C331.159 120.02 330.663 119.858 330.014 119.858C329.386 119.858 328.879 120.02 328.494 120.345C328.109 120.669 327.881 121.105 327.81 121.652H326.457ZM335.271 128.765C336.558 127.732 337.566 126.886 338.296 126.227C339.026 125.558 339.639 124.864 340.135 124.145C340.642 123.415 340.895 122.701 340.895 122.001C340.895 121.343 340.733 120.826 340.409 120.451C340.095 120.066 339.583 119.873 338.874 119.873C338.185 119.873 337.648 120.091 337.262 120.527C336.888 120.953 336.685 121.525 336.654 122.245H335.317C335.357 121.11 335.702 120.233 336.35 119.615C336.999 118.997 337.835 118.688 338.858 118.688C339.902 118.688 340.728 118.977 341.336 119.554C341.954 120.132 342.263 120.927 342.263 121.941C342.263 122.782 342.01 123.602 341.503 124.403C341.007 125.193 340.439 125.893 339.801 126.501C339.162 127.098 338.347 127.798 337.354 128.598H342.582V129.753H335.271V128.765ZM351.493 122.381C351.493 123.263 351.189 123.998 350.581 124.585C349.983 125.163 349.066 125.452 347.829 125.452H345.793V129.875H344.409V119.281H347.829C349.025 119.281 349.932 119.569 350.55 120.147C351.179 120.725 351.493 121.469 351.493 122.381ZM347.829 124.312C348.6 124.312 349.167 124.145 349.532 123.81C349.897 123.476 350.079 123 350.079 122.381C350.079 121.074 349.329 120.421 347.829 120.421H345.793V124.312H347.829ZM363.958 119.357V129.875H362.575V122.032L359.079 129.875H358.106L354.595 122.017V129.875H353.212V119.357H354.701L358.593 128.051L362.484 119.357H363.958Z" fill="white" fill-opacity="0.5"/>
</g>
</g>
<defs>
<filter id="filter0_b_27_5608" x="-2" y="-2" width="384" height="151" filterUnits="userSpaceOnUse" color-interpolation-filters="sRGB">
<feFlood flood-opacity="0" result="BackgroundImageFix"/>
<feGaussianBlur in="BackgroundImageFix" stdDeviation="1"/>
<feComposite in2="SourceAlpha" operator="in" result="effect1_backgroundBlur_27_5608"/>
<feBlend mode="normal" in="SourceGraphic" in2="effect1_backgroundBlur_27_5608" result="shape"/>
</filter>
<filter id="filter1_f_27_5608" x="182.4" y="-123.625" width="303.051" height="303.05" filterUnits="userSpaceOnUse" color-interpolation-filters="sRGB">
<feFlood flood-opacity="0" result="BackgroundImageFix"/>
<feBlend mode="normal" in="SourceGraphic" in2="BackgroundImageFix" result="shape"/>
<feGaussianBlur stdDeviation="40.375" result="effect1_foregroundBlur_27_5608"/>
</filter>
<filter id="filter2_f_27_5608" x="-4.75003" y="-114.125" width="493.051" height="493.05" filterUnits="userSpaceOnUse" color-interpolation-filters="sRGB">
<feFlood flood-opacity="0" result="BackgroundImageFix"/>
<feBlend mode="normal" in="SourceGraphic" in2="BackgroundImageFix" result="shape"/>
<feGaussianBlur stdDeviation="87.875" result="effect1_foregroundBlur_27_5608"/>
</filter>
<clipPath id="clip0_27_5608">
<rect width="380" height="147" rx="15" fill="white"/>
</clipPath>
<clipPath id="clip1_27_5608">
<rect width="71.9389" height="71.9389" fill="white" transform="translate(37.1289 38.0926)"/>
</clipPath>
</defs>
</svg>
