<svg width="400" height="155" viewBox="0 0 400 155" fill="none" xmlns="http://www.w3.org/2000/svg">
<g filter="url(#filter0_b_27_5589)">
<g clip-path="url(#clip0_27_5589)">
<rect width="400" height="155" rx="15" fill="black" fill-opacity="0.1"/>
<rect x="15" y="15" width="125" height="125" rx="12" fill="#50AF95"/>
<path fill-rule="evenodd" clip-rule="evenodd" d="M85.2237 80.3016C84.8013 80.3333 82.6194 80.4635 77.7521 80.4635C73.8809 80.4635 71.1323 80.3474 70.168 80.3016C55.2073 79.6435 44.0404 77.0392 44.0404 73.9211C44.0404 70.803 55.2073 68.2022 70.168 67.5335V77.7079C71.1463 77.7783 73.9477 77.9437 77.819 77.9437C82.4645 77.9437 84.7908 77.7501 85.2096 77.7114V67.5405C100.139 68.2057 111.281 70.81 111.281 73.9211C111.281 77.0322 100.142 79.6365 85.2096 80.2981L85.2237 80.3016ZM85.2237 66.4883V57.3838H106.058V43.5H49.3335V57.3838H70.1644V66.4847C53.2329 67.2625 40.5 70.6164 40.5 74.6355C40.5 78.6546 53.2329 82.005 70.1644 82.7863V111.962H85.2201V82.7757C102.113 81.998 114.825 78.6476 114.825 74.632C114.825 70.6164 102.123 67.266 85.2201 66.4847L85.2237 66.4883Z" fill="white"/>
<g filter="url(#filter1_f_27_5589)">
<circle cx="351.5" cy="29.5" r="74.5" fill="#A040FD"/>
</g>
<g filter="url(#filter2_f_27_5589)">
<circle cx="254.5" cy="139.5" r="74.5" fill="#1E96F4" fill-opacity="0.5"/>
</g>
<path d="M173.056 19.248V21.96H168.592V36H165.232V21.96H160.768V19.248H173.056ZM187.868 29.064C187.868 29.544 187.836 29.976 187.772 30.36H178.052C178.132 31.32 178.468 32.072 179.06 32.616C179.652 33.16 180.38 33.432 181.244 33.432C182.492 33.432 183.38 32.896 183.908 31.824H187.532C187.148 33.104 186.412 34.16 185.324 34.992C184.236 35.808 182.9 36.216 181.316 36.216C180.036 36.216 178.884 35.936 177.86 35.376C176.852 34.8 176.06 33.992 175.484 32.952C174.924 31.912 174.644 30.712 174.644 29.352C174.644 27.976 174.924 26.768 175.484 25.728C176.044 24.688 176.828 23.888 177.836 23.328C178.844 22.768 180.004 22.488 181.316 22.488C182.58 22.488 183.708 22.76 184.7 23.304C185.708 23.848 186.484 24.624 187.028 25.632C187.588 26.624 187.868 27.768 187.868 29.064ZM184.388 28.104C184.372 27.24 184.06 26.552 183.452 26.04C182.844 25.512 182.1 25.248 181.22 25.248C180.388 25.248 179.684 25.504 179.108 26.016C178.548 26.512 178.204 27.208 178.076 28.104H184.388ZM194.232 25.464V31.896C194.232 32.344 194.336 32.672 194.544 32.88C194.768 33.072 195.136 33.168 195.648 33.168H197.208V36H195.096C192.264 36 190.848 34.624 190.848 31.872V25.464H189.264V22.704H190.848V19.416H194.232V22.704H197.208V25.464H194.232ZM207.113 22.512C208.121 22.512 209.017 22.736 209.801 23.184C210.585 23.616 211.193 24.264 211.625 25.128C212.073 25.976 212.297 27 212.297 28.2V36H208.937V28.656C208.937 27.6 208.673 26.792 208.145 26.232C207.617 25.656 206.897 25.368 205.985 25.368C205.057 25.368 204.321 25.656 203.777 26.232C203.249 26.792 202.985 27.6 202.985 28.656V36H199.625V18.24H202.985V24.36C203.417 23.784 203.993 23.336 204.713 23.016C205.433 22.68 206.233 22.512 207.113 22.512ZM227.852 29.064C227.852 29.544 227.82 29.976 227.756 30.36H218.036C218.116 31.32 218.452 32.072 219.044 32.616C219.636 33.16 220.364 33.432 221.228 33.432C222.476 33.432 223.364 32.896 223.892 31.824H227.516C227.132 33.104 226.396 34.16 225.308 34.992C224.22 35.808 222.884 36.216 221.3 36.216C220.02 36.216 218.868 35.936 217.844 35.376C216.836 34.8 216.044 33.992 215.468 32.952C214.908 31.912 214.628 30.712 214.628 29.352C214.628 27.976 214.908 26.768 215.468 25.728C216.028 24.688 216.812 23.888 217.82 23.328C218.828 22.768 219.988 22.488 221.3 22.488C222.564 22.488 223.692 22.76 224.684 23.304C225.692 23.848 226.468 24.624 227.012 25.632C227.572 26.624 227.852 27.768 227.852 29.064ZM224.372 28.104C224.356 27.24 224.044 26.552 223.436 26.04C222.828 25.512 222.084 25.248 221.204 25.248C220.372 25.248 219.668 25.504 219.092 26.016C218.532 26.512 218.188 27.208 218.06 28.104H224.372ZM233.664 24.768C234.096 24.064 234.656 23.512 235.344 23.112C236.048 22.712 236.848 22.512 237.744 22.512V26.04H236.856C235.8 26.04 235 26.288 234.456 26.784C233.928 27.28 233.664 28.144 233.664 29.376V36H230.304V22.704H233.664V24.768Z" fill="white"/>
<rect x="243" y="15" width="34" height="15" rx="4" fill="white" fill-opacity="0.1"/>
<path d="M248.66 19.03V23.44C248.66 24.06 248.81 24.52 249.11 24.82C249.417 25.12 249.84 25.27 250.38 25.27C250.913 25.27 251.33 25.12 251.63 24.82C251.937 24.52 252.09 24.06 252.09 23.44V19.03H253V23.43C253 24.01 252.883 24.5 252.65 24.9C252.417 25.2933 252.1 25.5867 251.7 25.78C251.307 25.9733 250.863 26.07 250.37 26.07C249.877 26.07 249.43 25.9733 249.03 25.78C248.637 25.5867 248.323 25.2933 248.09 24.9C247.863 24.5 247.75 24.01 247.75 23.43V19.03H248.66ZM256.728 26.07C256.268 26.07 255.855 25.99 255.488 25.83C255.128 25.6633 254.845 25.4367 254.638 25.15C254.431 24.8567 254.325 24.52 254.318 24.14H255.288C255.321 24.4667 255.455 24.7433 255.688 24.97C255.928 25.19 256.275 25.3 256.728 25.3C257.161 25.3 257.501 25.1933 257.748 24.98C258.001 24.76 258.128 24.48 258.128 24.14C258.128 23.8733 258.055 23.6567 257.908 23.49C257.761 23.3233 257.578 23.1967 257.358 23.11C257.138 23.0233 256.841 22.93 256.468 22.83C256.008 22.71 255.638 22.59 255.358 22.47C255.085 22.35 254.848 22.1633 254.648 21.91C254.455 21.65 254.358 21.3033 254.358 20.87C254.358 20.49 254.455 20.1533 254.648 19.86C254.841 19.5667 255.111 19.34 255.458 19.18C255.811 19.02 256.215 18.94 256.668 18.94C257.321 18.94 257.855 19.1033 258.268 19.43C258.688 19.7567 258.925 20.19 258.978 20.73H257.978C257.945 20.4633 257.805 20.23 257.558 20.03C257.311 19.8233 256.985 19.72 256.578 19.72C256.198 19.72 255.888 19.82 255.648 20.02C255.408 20.2133 255.288 20.4867 255.288 20.84C255.288 21.0933 255.358 21.3 255.498 21.46C255.645 21.62 255.821 21.7433 256.028 21.83C256.241 21.91 256.538 22.0033 256.918 22.11C257.378 22.2367 257.748 22.3633 258.028 22.49C258.308 22.61 258.548 22.8 258.748 23.06C258.948 23.3133 259.048 23.66 259.048 24.1C259.048 24.44 258.958 24.76 258.778 25.06C258.598 25.36 258.331 25.6033 257.978 25.79C257.625 25.9767 257.208 26.07 256.728 26.07ZM262.557 19.03C263.317 19.03 263.974 19.1733 264.527 19.46C265.087 19.74 265.514 20.1433 265.807 20.67C266.107 21.1967 266.257 21.8167 266.257 22.53C266.257 23.2433 266.107 23.8633 265.807 24.39C265.514 24.91 265.087 25.31 264.527 25.59C263.974 25.8633 263.317 26 262.557 26H260.387V19.03H262.557ZM262.557 25.25C263.457 25.25 264.144 25.0133 264.617 24.54C265.091 24.06 265.327 23.39 265.327 22.53C265.327 21.6633 265.087 20.9867 264.607 20.5C264.134 20.0133 263.451 19.77 262.557 19.77H261.297V25.25H262.557ZM271.748 19.03V19.77H269.848V26H268.938V19.77H267.028V19.03H271.748Z" fill="white"/>
<path d="M377.301 23.8156L368.7 32.1843" stroke="#C6A1F6" stroke-width="1.5" stroke-linecap="square" stroke-linejoin="round"/>
<path d="M368.815 23.6998L377.184 32.3001" stroke="#C6A1F6" stroke-width="1.5" stroke-linecap="square" stroke-linejoin="round"/>
<path d="M168.688 56.112C168.688 57.04 168.368 57.8133 167.728 58.432C167.099 59.04 166.133 59.344 164.832 59.344H162.688V64H161.232V52.848H164.832C166.091 52.848 167.045 53.152 167.696 53.76C168.357 54.368 168.688 55.152 168.688 56.112ZM164.832 58.144C165.643 58.144 166.24 57.968 166.624 57.616C167.008 57.264 167.2 56.7627 167.2 56.112C167.2 54.736 166.411 54.048 164.832 54.048H162.688V58.144H164.832ZM178.274 55.232V64H176.818V62.704C176.54 63.152 176.151 63.504 175.65 63.76C175.159 64.0053 174.615 64.128 174.018 64.128C173.335 64.128 172.722 63.9893 172.178 63.712C171.634 63.424 171.202 62.9973 170.882 62.432C170.572 61.8667 170.418 61.1787 170.418 60.368V55.232H171.858V60.176C171.858 61.04 172.076 61.7067 172.514 62.176C172.951 62.6347 173.548 62.864 174.306 62.864C175.084 62.864 175.698 62.624 176.146 62.144C176.594 61.664 176.818 60.9653 176.818 60.048V55.232H178.274ZM182.188 56.656C182.444 56.1547 182.807 55.7653 183.276 55.488C183.756 55.2107 184.337 55.072 185.02 55.072V56.576H184.636C183.004 56.576 182.188 57.4613 182.188 59.232V64H180.732V55.232H182.188V56.656ZM186.157 59.6C186.157 58.6933 186.338 57.904 186.701 57.232C187.063 56.5493 187.565 56.0213 188.205 55.648C188.855 55.2747 189.597 55.088 190.429 55.088C191.506 55.088 192.391 55.3493 193.085 55.872C193.789 56.3947 194.253 57.12 194.477 58.048H192.909C192.759 57.5147 192.466 57.0933 192.029 56.784C191.602 56.4747 191.069 56.32 190.429 56.32C189.597 56.32 188.925 56.608 188.413 57.184C187.901 57.7493 187.645 58.5547 187.645 59.6C187.645 60.656 187.901 61.472 188.413 62.048C188.925 62.624 189.597 62.912 190.429 62.912C191.069 62.912 191.602 62.7627 192.029 62.464C192.455 62.1653 192.749 61.7387 192.909 61.184H194.477C194.242 62.08 193.773 62.8 193.069 63.344C192.365 63.8773 191.485 64.144 190.429 64.144C189.597 64.144 188.855 63.9573 188.205 63.584C187.565 63.2107 187.063 62.6827 186.701 62C186.338 61.3173 186.157 60.5173 186.157 59.6ZM200.772 55.072C201.433 55.072 202.03 55.216 202.564 55.504C203.097 55.7813 203.513 56.2027 203.812 56.768C204.121 57.3333 204.276 58.0213 204.276 58.832V64H202.836V59.04C202.836 58.1653 202.617 57.4987 202.18 57.04C201.742 56.5707 201.145 56.336 200.388 56.336C199.62 56.336 199.006 56.576 198.548 57.056C198.1 57.536 197.876 58.2347 197.876 59.152V64H196.42V52.16H197.876V56.48C198.164 56.032 198.558 55.6853 199.06 55.44C199.572 55.1947 200.142 55.072 200.772 55.072ZM206.11 59.584C206.11 58.688 206.291 57.904 206.654 57.232C207.017 56.5493 207.513 56.0213 208.142 55.648C208.782 55.2747 209.491 55.088 210.27 55.088C211.038 55.088 211.705 55.2533 212.27 55.584C212.835 55.9147 213.257 56.3307 213.534 56.832V55.232H215.006V64H213.534V62.368C213.246 62.88 212.814 63.3067 212.238 63.648C211.673 63.9787 211.011 64.144 210.254 64.144C209.475 64.144 208.771 63.952 208.142 63.568C207.513 63.184 207.017 62.6453 206.654 61.952C206.291 61.2587 206.11 60.4693 206.11 59.584ZM213.534 59.6C213.534 58.9387 213.401 58.3627 213.134 57.872C212.867 57.3813 212.505 57.008 212.046 56.752C211.598 56.4853 211.102 56.352 210.558 56.352C210.014 56.352 209.518 56.48 209.07 56.736C208.622 56.992 208.265 57.3653 207.998 57.856C207.731 58.3467 207.598 58.9227 207.598 59.584C207.598 60.256 207.731 60.8427 207.998 61.344C208.265 61.8347 208.622 62.2133 209.07 62.48C209.518 62.736 210.014 62.864 210.558 62.864C211.102 62.864 211.598 62.736 212.046 62.48C212.505 62.2133 212.867 61.8347 213.134 61.344C213.401 60.8427 213.534 60.2613 213.534 59.6ZM220.57 64.144C219.898 64.144 219.296 64.032 218.762 63.808C218.229 63.5733 217.808 63.2533 217.498 62.848C217.189 62.432 217.018 61.9573 216.986 61.424H218.49C218.533 61.8613 218.736 62.2187 219.098 62.496C219.472 62.7733 219.957 62.912 220.554 62.912C221.109 62.912 221.546 62.7893 221.866 62.544C222.186 62.2987 222.346 61.9893 222.346 61.616C222.346 61.232 222.176 60.9493 221.834 60.768C221.493 60.576 220.965 60.3893 220.25 60.208C219.6 60.0373 219.066 59.8667 218.65 59.696C218.245 59.5147 217.893 59.2533 217.594 58.912C217.306 58.56 217.162 58.1013 217.162 57.536C217.162 57.088 217.296 56.6773 217.562 56.304C217.829 55.9307 218.208 55.6373 218.698 55.424C219.189 55.2 219.749 55.088 220.378 55.088C221.349 55.088 222.133 55.3333 222.73 55.824C223.328 56.3147 223.648 56.9867 223.69 57.84H222.234C222.202 57.3813 222.016 57.0133 221.674 56.736C221.344 56.4587 220.896 56.32 220.33 56.32C219.808 56.32 219.392 56.432 219.082 56.656C218.773 56.88 218.618 57.1733 218.618 57.536C218.618 57.824 218.709 58.064 218.89 58.256C219.082 58.4373 219.317 58.5867 219.594 58.704C219.882 58.8107 220.277 58.9333 220.778 59.072C221.408 59.2427 221.92 59.4133 222.314 59.584C222.709 59.744 223.045 59.9893 223.322 60.32C223.61 60.6507 223.76 61.0827 223.77 61.616C223.77 62.096 223.637 62.528 223.37 62.912C223.104 63.296 222.725 63.6 222.234 63.824C221.754 64.0373 221.2 64.144 220.57 64.144ZM233.826 59.28C233.826 59.5573 233.81 59.8507 233.778 60.16H226.77C226.823 61.024 227.116 61.7013 227.65 62.192C228.194 62.672 228.85 62.912 229.618 62.912C230.247 62.912 230.77 62.768 231.186 62.48C231.612 62.1813 231.911 61.7867 232.082 61.296H233.65C233.415 62.1387 232.946 62.8267 232.242 63.36C231.538 63.8827 230.663 64.144 229.618 64.144C228.786 64.144 228.039 63.9573 227.378 63.584C226.727 63.2107 226.215 62.6827 225.842 62C225.468 61.3067 225.282 60.5067 225.282 59.6C225.282 58.6933 225.463 57.8987 225.826 57.216C226.188 56.5333 226.695 56.0107 227.346 55.648C228.007 55.2747 228.764 55.088 229.618 55.088C230.45 55.088 231.186 55.2693 231.826 55.632C232.466 55.9947 232.956 56.496 233.298 57.136C233.65 57.7653 233.826 58.48 233.826 59.28ZM232.322 58.976C232.322 58.4213 232.199 57.9467 231.954 57.552C231.708 57.1467 231.372 56.8427 230.946 56.64C230.53 56.4267 230.066 56.32 229.554 56.32C228.818 56.32 228.188 56.5547 227.666 57.024C227.154 57.4933 226.86 58.144 226.786 58.976H232.322ZM248.845 56.64L248.237 59.52H250.445V60.8H247.965L247.277 64H245.885L246.573 60.8H243.213L242.525 64H241.133L241.821 60.8H239.309V59.52H242.093L242.701 56.64H240.221V55.36H242.973L243.661 52.16H245.053L244.365 55.36H247.725L248.413 52.16H249.805L249.117 55.36H251.341V56.64H248.845ZM247.453 56.64H244.093L243.485 59.52H246.845L247.453 56.64ZM253.035 62.832C254.389 61.744 255.451 60.8533 256.219 60.16C256.987 59.456 257.632 58.7253 258.155 57.968C258.688 57.2 258.955 56.448 258.955 55.712C258.955 55.0187 258.784 54.4747 258.443 54.08C258.112 53.6747 257.573 53.472 256.827 53.472C256.101 53.472 255.536 53.7013 255.131 54.16C254.736 54.608 254.523 55.2107 254.491 55.968H253.083C253.125 54.7733 253.488 53.8507 254.171 53.2C254.853 52.5493 255.733 52.224 256.811 52.224C257.909 52.224 258.779 52.528 259.419 53.136C260.069 53.744 260.395 54.5813 260.395 55.648C260.395 56.5333 260.128 57.3973 259.595 58.24C259.072 59.072 258.475 59.808 257.803 60.448C257.131 61.0773 256.272 61.8133 255.227 62.656H260.731V63.872H253.035V62.832ZM264.286 60.896C264.393 61.504 264.638 61.9733 265.022 62.304C265.417 62.6347 265.945 62.8 266.606 62.8C267.491 62.8 268.142 62.4533 268.558 61.76C268.985 61.0667 269.187 59.8987 269.166 58.256C268.942 58.736 268.569 59.1147 268.046 59.392C267.523 59.6587 266.942 59.792 266.302 59.792C265.587 59.792 264.947 59.648 264.382 59.36C263.827 59.0613 263.39 58.6293 263.07 58.064C262.75 57.4987 262.59 56.816 262.59 56.016C262.59 54.8747 262.921 53.9573 263.582 53.264C264.243 52.56 265.182 52.208 266.398 52.208C267.891 52.208 268.937 52.6933 269.534 53.664C270.142 54.6347 270.446 56.08 270.446 58C270.446 59.344 270.323 60.4533 270.078 61.328C269.843 62.2027 269.438 62.8693 268.862 63.328C268.297 63.7867 267.518 64.016 266.526 64.016C265.438 64.016 264.59 63.7227 263.982 63.136C263.374 62.5493 263.027 61.8027 262.942 60.896H264.286ZM266.542 58.56C267.257 58.56 267.843 58.3413 268.302 57.904C268.761 57.456 268.99 56.8533 268.99 56.096C268.99 55.296 268.766 54.6507 268.318 54.16C267.87 53.6693 267.241 53.424 266.43 53.424C265.683 53.424 265.086 53.6587 264.638 54.128C264.201 54.5973 263.982 55.216 263.982 55.984C263.982 56.7627 264.201 57.3867 264.638 57.856C265.075 58.3253 265.71 58.56 266.542 58.56ZM272.316 62.832C273.671 61.744 274.732 60.8533 275.5 60.16C276.268 59.456 276.913 58.7253 277.436 57.968C277.969 57.2 278.236 56.448 278.236 55.712C278.236 55.0187 278.065 54.4747 277.724 54.08C277.393 53.6747 276.855 53.472 276.108 53.472C275.383 53.472 274.817 53.7013 274.412 54.16C274.017 54.608 273.804 55.2107 273.772 55.968H272.364C272.407 54.7733 272.769 53.8507 273.452 53.2C274.135 52.5493 275.015 52.224 276.092 52.224C277.191 52.224 278.06 52.528 278.7 53.136C279.351 53.744 279.676 54.5813 279.676 55.648C279.676 56.5333 279.409 57.3973 278.876 58.24C278.353 59.072 277.756 59.808 277.084 60.448C276.412 61.0773 275.553 61.8133 274.508 62.656H280.012V63.872H272.316V62.832ZM288.143 55.184C287.908 54 287.178 53.408 285.951 53.408C285.002 53.408 284.292 53.776 283.823 54.512C283.354 55.2373 283.124 56.4373 283.135 58.112C283.38 57.5573 283.786 57.1253 284.351 56.816C284.927 56.496 285.567 56.336 286.271 56.336C287.37 56.336 288.244 56.6773 288.895 57.36C289.556 58.0427 289.887 58.9867 289.887 60.192C289.887 60.9173 289.743 61.568 289.455 62.144C289.178 62.72 288.751 63.1787 288.175 63.52C287.61 63.8613 286.922 64.032 286.111 64.032C285.012 64.032 284.154 63.7867 283.535 63.296C282.916 62.8053 282.484 62.128 282.239 61.264C281.994 60.4 281.871 59.3333 281.871 58.064C281.871 54.1493 283.236 52.192 285.967 52.192C287.012 52.192 287.834 52.4747 288.431 53.04C289.028 53.6053 289.38 54.32 289.487 55.184H288.143ZM285.967 57.568C285.508 57.568 285.076 57.664 284.671 57.856C284.266 58.0373 283.935 58.32 283.679 58.704C283.434 59.0773 283.311 59.536 283.311 60.08C283.311 60.8907 283.546 61.552 284.015 62.064C284.484 62.5653 285.156 62.816 286.031 62.816C286.778 62.816 287.37 62.5867 287.807 62.128C288.255 61.6587 288.479 61.0293 288.479 60.24C288.479 59.408 288.266 58.7573 287.839 58.288C287.412 57.808 286.788 57.568 285.967 57.568Z" fill="white" fill-opacity="0.5"/>
<path d="M323.552 58.768H320.144V62.224H318.784V58.768H315.392V57.536H318.784V54.064H320.144V57.536H323.552V58.768ZM325.882 55.344C325.957 54.3627 326.335 53.5947 327.018 53.04C327.701 52.4853 328.586 52.208 329.674 52.208C330.399 52.208 331.023 52.3413 331.546 52.608C332.079 52.864 332.479 53.216 332.746 53.664C333.023 54.112 333.162 54.6187 333.162 55.184C333.162 55.8453 332.97 56.416 332.586 56.896C332.213 57.376 331.722 57.6853 331.114 57.824V57.904C331.807 58.0747 332.357 58.4107 332.762 58.912C333.167 59.4133 333.37 60.0693 333.37 60.88C333.37 61.488 333.231 62.0373 332.954 62.528C332.677 63.008 332.261 63.3867 331.706 63.664C331.151 63.9413 330.485 64.08 329.706 64.08C328.575 64.08 327.647 63.7867 326.922 63.2C326.197 62.6027 325.791 61.76 325.706 60.672H327.114C327.189 61.312 327.45 61.8347 327.898 62.24C328.346 62.6453 328.943 62.848 329.69 62.848C330.437 62.848 331.002 62.656 331.386 62.272C331.781 61.8773 331.978 61.3707 331.978 60.752C331.978 59.952 331.711 59.376 331.178 59.024C330.645 58.672 329.839 58.496 328.762 58.496H328.394V57.28H328.778C329.759 57.2693 330.501 57.1093 331.002 56.8C331.503 56.48 331.754 55.9893 331.754 55.328C331.754 54.7627 331.567 54.3093 331.194 53.968C330.831 53.6267 330.309 53.456 329.626 53.456C328.965 53.456 328.431 53.6267 328.026 53.968C327.621 54.3093 327.381 54.768 327.306 55.344H325.882ZM337.08 61.984L335.288 66.288H334.312L335.48 61.984H337.08ZM340.38 60.896C340.486 61.504 340.732 61.9733 341.116 62.304C341.51 62.6347 342.038 62.8 342.7 62.8C343.585 62.8 344.236 62.4533 344.652 61.76C345.078 61.0667 345.281 59.8987 345.26 58.256C345.036 58.736 344.662 59.1147 344.14 59.392C343.617 59.6587 343.036 59.792 342.396 59.792C341.681 59.792 341.041 59.648 340.476 59.36C339.921 59.0613 339.484 58.6293 339.164 58.064C338.844 57.4987 338.684 56.816 338.684 56.016C338.684 54.8747 339.014 53.9573 339.676 53.264C340.337 52.56 341.276 52.208 342.492 52.208C343.985 52.208 345.03 52.6933 345.628 53.664C346.236 54.6347 346.54 56.08 346.54 58C346.54 59.344 346.417 60.4533 346.172 61.328C345.937 62.2027 345.532 62.8693 344.956 63.328C344.39 63.7867 343.612 64.016 342.62 64.016C341.532 64.016 340.684 63.7227 340.076 63.136C339.468 62.5493 339.121 61.8027 339.036 60.896H340.38ZM342.636 58.56C343.35 58.56 343.937 58.3413 344.396 57.904C344.854 57.456 345.084 56.8533 345.084 56.096C345.084 55.296 344.86 54.6507 344.412 54.16C343.964 53.6693 343.334 53.424 342.524 53.424C341.777 53.424 341.18 53.6587 340.732 54.128C340.294 54.5973 340.076 55.216 340.076 55.984C340.076 56.7627 340.294 57.3867 340.732 57.856C341.169 58.3253 341.804 58.56 342.636 58.56ZM348.41 62.832C349.764 61.744 350.826 60.8533 351.594 60.16C352.362 59.456 353.007 58.7253 353.53 57.968C354.063 57.2 354.33 56.448 354.33 55.712C354.33 55.0187 354.159 54.4747 353.818 54.08C353.487 53.6747 352.948 53.472 352.202 53.472C351.476 53.472 350.911 53.7013 350.506 54.16C350.111 54.608 349.898 55.2107 349.866 55.968H348.458C348.5 54.7733 348.863 53.8507 349.546 53.2C350.228 52.5493 351.108 52.224 352.186 52.224C353.284 52.224 354.154 52.528 354.794 53.136C355.444 53.744 355.77 54.5813 355.77 55.648C355.77 56.5333 355.503 57.3973 354.97 58.24C354.447 59.072 353.85 59.808 353.178 60.448C352.506 61.0773 351.647 61.8133 350.602 62.656H356.106V63.872H348.41V62.832ZM357.405 53.76V52.432H360.413V64H358.941V53.76H357.405ZM363.618 64.096C363.341 64.096 363.106 64 362.914 63.808C362.722 63.616 362.626 63.3813 362.626 63.104C362.626 62.8267 362.722 62.592 362.914 62.4C363.106 62.208 363.341 62.112 363.618 62.112C363.885 62.112 364.109 62.208 364.29 62.4C364.482 62.592 364.578 62.8267 364.578 63.104C364.578 63.3813 364.482 63.616 364.29 63.808C364.109 64 363.885 64.096 363.618 64.096ZM366.241 55.344C366.316 54.3627 366.695 53.5947 367.377 53.04C368.06 52.4853 368.945 52.208 370.033 52.208C370.759 52.208 371.383 52.3413 371.905 52.608C372.439 52.864 372.839 53.216 373.105 53.664C373.383 54.112 373.521 54.6187 373.521 55.184C373.521 55.8453 373.329 56.416 372.945 56.896C372.572 57.376 372.081 57.6853 371.473 57.824V57.904C372.167 58.0747 372.716 58.4107 373.121 58.912C373.527 59.4133 373.729 60.0693 373.729 60.88C373.729 61.488 373.591 62.0373 373.313 62.528C373.036 63.008 372.62 63.3867 372.065 63.664C371.511 63.9413 370.844 64.08 370.065 64.08C368.935 64.08 368.007 63.7867 367.281 63.2C366.556 62.6027 366.151 61.76 366.065 60.672H367.473C367.548 61.312 367.809 61.8347 368.257 62.24C368.705 62.6453 369.303 62.848 370.049 62.848C370.796 62.848 371.361 62.656 371.745 62.272C372.14 61.8773 372.337 61.3707 372.337 60.752C372.337 59.952 372.071 59.376 371.537 59.024C371.004 58.672 370.199 58.496 369.121 58.496H368.753V57.28H369.137C370.119 57.2693 370.86 57.1093 371.361 56.8C371.863 56.48 372.113 55.9893 372.113 55.328C372.113 54.7627 371.927 54.3093 371.553 53.968C371.191 53.6267 370.668 53.456 369.985 53.456C369.324 53.456 368.791 53.6267 368.385 53.968C367.98 54.3093 367.74 54.768 367.665 55.344H366.241ZM375.343 61.424V60.32L380.959 52.544H382.703V60.16H384.303V61.424H382.703V64H381.263V61.424H375.343ZM381.327 54.064L377.023 60.16H381.327V54.064Z" fill="white"/>
<path d="M160.992 131.096C160.992 129.261 161.291 127.832 161.888 126.808C162.485 125.773 163.531 125.256 165.024 125.256C166.507 125.256 167.547 125.773 168.144 126.808C168.741 127.832 169.04 129.261 169.04 131.096C169.04 132.963 168.741 134.413 168.144 135.448C167.547 136.483 166.507 137 165.024 137C163.531 137 162.485 136.483 161.888 135.448C161.291 134.413 160.992 132.963 160.992 131.096ZM167.6 131.096C167.6 130.168 167.536 129.384 167.408 128.744C167.291 128.093 167.04 127.571 166.656 127.176C166.283 126.781 165.739 126.584 165.024 126.584C164.299 126.584 163.744 126.781 163.36 127.176C162.987 127.571 162.736 128.093 162.608 128.744C162.491 129.384 162.432 130.168 162.432 131.096C162.432 132.056 162.491 132.861 162.608 133.512C162.736 134.163 162.987 134.685 163.36 135.08C163.744 135.475 164.299 135.672 165.024 135.672C165.739 135.672 166.283 135.475 166.656 135.08C167.04 134.685 167.291 134.163 167.408 133.512C167.536 132.861 167.6 132.056 167.6 131.096ZM178.159 126.568L173.711 137H172.239L176.751 126.712H170.575V125.464H178.159V126.568ZM185.453 121.928L181.069 139.72H179.629L183.997 121.928H185.453ZM187.207 135.832C188.561 134.744 189.623 133.853 190.391 133.16C191.159 132.456 191.804 131.725 192.327 130.968C192.86 130.2 193.127 129.448 193.127 128.712C193.127 128.019 192.956 127.475 192.615 127.08C192.284 126.675 191.745 126.472 190.999 126.472C190.273 126.472 189.708 126.701 189.303 127.16C188.908 127.608 188.695 128.211 188.663 128.968H187.255C187.297 127.773 187.66 126.851 188.343 126.2C189.025 125.549 189.905 125.224 190.983 125.224C192.081 125.224 192.951 125.528 193.591 126.136C194.241 126.744 194.567 127.581 194.567 128.648C194.567 129.533 194.3 130.397 193.767 131.24C193.244 132.072 192.647 132.808 191.975 133.448C191.303 134.077 190.444 134.813 189.399 135.656H194.903V136.872H187.207V135.832ZM196.586 131.096C196.586 129.261 196.884 127.832 197.482 126.808C198.079 125.773 199.124 125.256 200.618 125.256C202.1 125.256 203.14 125.773 203.738 126.808C204.335 127.832 204.634 129.261 204.634 131.096C204.634 132.963 204.335 134.413 203.738 135.448C203.14 136.483 202.1 137 200.618 137C199.124 137 198.079 136.483 197.482 135.448C196.884 134.413 196.586 132.963 196.586 131.096ZM203.194 131.096C203.194 130.168 203.13 129.384 203.002 128.744C202.884 128.093 202.634 127.571 202.25 127.176C201.876 126.781 201.332 126.584 200.618 126.584C199.892 126.584 199.338 126.781 198.954 127.176C198.58 127.571 198.33 128.093 198.202 128.744C198.084 129.384 198.026 130.168 198.026 131.096C198.026 132.056 198.084 132.861 198.202 133.512C198.33 134.163 198.58 134.685 198.954 135.08C199.338 135.475 199.892 135.672 200.618 135.672C201.332 135.672 201.876 135.475 202.25 135.08C202.634 134.685 202.884 134.163 203.002 133.512C203.13 132.861 203.194 132.056 203.194 131.096ZM212.313 121.928L207.929 139.72H206.489L210.857 121.928H212.313ZM214.066 135.832C215.421 134.744 216.482 133.853 217.25 133.16C218.018 132.456 218.663 131.725 219.186 130.968C219.719 130.2 219.986 129.448 219.986 128.712C219.986 128.019 219.815 127.475 219.474 127.08C219.143 126.675 218.605 126.472 217.858 126.472C217.133 126.472 216.567 126.701 216.162 127.16C215.767 127.608 215.554 128.211 215.522 128.968H214.114C214.157 127.773 214.519 126.851 215.202 126.2C215.885 125.549 216.765 125.224 217.842 125.224C218.941 125.224 219.81 125.528 220.45 126.136C221.101 126.744 221.426 127.581 221.426 128.648C221.426 129.533 221.159 130.397 220.626 131.24C220.103 132.072 219.506 132.808 218.834 133.448C218.162 134.077 217.303 134.813 216.258 135.656H221.762V136.872H214.066V135.832ZM223.269 135.832C224.624 134.744 225.685 133.853 226.453 133.16C227.221 132.456 227.866 131.725 228.389 130.968C228.922 130.2 229.189 129.448 229.189 128.712C229.189 128.019 229.018 127.475 228.677 127.08C228.346 126.675 227.808 126.472 227.061 126.472C226.336 126.472 225.77 126.701 225.365 127.16C224.97 127.608 224.757 128.211 224.725 128.968H223.317C223.36 127.773 223.722 126.851 224.405 126.2C225.088 125.549 225.968 125.224 227.045 125.224C228.144 125.224 229.013 125.528 229.653 126.136C230.304 126.744 230.629 127.581 230.629 128.648C230.629 129.533 230.362 130.397 229.829 131.24C229.306 132.072 228.709 132.808 228.037 133.448C227.365 134.077 226.506 134.813 225.461 135.656H230.965V136.872H223.269V135.832Z" fill="white" fill-opacity="0.5"/>
<path d="M329.64 134.424V133.32L335.256 125.544H337V133.16H338.6V134.424H337V137H335.56V134.424H329.64ZM335.624 127.064L331.32 133.16H335.624V127.064ZM340.759 137.096C340.481 137.096 340.247 137 340.055 136.808C339.863 136.616 339.767 136.381 339.767 136.104C339.767 135.827 339.863 135.592 340.055 135.4C340.247 135.208 340.481 135.112 340.759 135.112C341.025 135.112 341.249 135.208 341.431 135.4C341.623 135.592 341.719 135.827 341.719 136.104C341.719 136.381 341.623 136.616 341.431 136.808C341.249 137 341.025 137.096 340.759 137.096ZM340.759 130.248C340.481 130.248 340.247 130.152 340.055 129.96C339.863 129.768 339.767 129.533 339.767 129.256C339.767 128.979 339.863 128.744 340.055 128.552C340.247 128.36 340.481 128.264 340.759 128.264C341.025 128.264 341.249 128.36 341.431 128.552C341.623 128.744 341.719 128.979 341.719 129.256C341.719 129.533 341.623 129.768 341.431 129.96C341.249 130.152 341.025 130.248 340.759 130.248ZM343.429 128.344C343.503 127.363 343.882 126.595 344.565 126.04C345.247 125.485 346.133 125.208 347.221 125.208C347.946 125.208 348.57 125.341 349.093 125.608C349.626 125.864 350.026 126.216 350.293 126.664C350.57 127.112 350.709 127.619 350.709 128.184C350.709 128.845 350.517 129.416 350.133 129.896C349.759 130.376 349.269 130.685 348.661 130.824V130.904C349.354 131.075 349.903 131.411 350.309 131.912C350.714 132.413 350.917 133.069 350.917 133.88C350.917 134.488 350.778 135.037 350.501 135.528C350.223 136.008 349.807 136.387 349.253 136.664C348.698 136.941 348.031 137.08 347.253 137.08C346.122 137.08 345.194 136.787 344.469 136.2C343.743 135.603 343.338 134.76 343.253 133.672H344.661C344.735 134.312 344.997 134.835 345.445 135.24C345.893 135.645 346.49 135.848 347.237 135.848C347.983 135.848 348.549 135.656 348.933 135.272C349.327 134.877 349.525 134.371 349.525 133.752C349.525 132.952 349.258 132.376 348.725 132.024C348.191 131.672 347.386 131.496 346.309 131.496H345.941V130.28H346.325C347.306 130.269 348.047 130.109 348.549 129.8C349.05 129.48 349.301 128.989 349.301 128.328C349.301 127.763 349.114 127.309 348.741 126.968C348.378 126.627 347.855 126.456 347.173 126.456C346.511 126.456 345.978 126.627 345.573 126.968C345.167 127.309 344.927 127.768 344.853 128.344H343.429ZM352.707 135.832C354.061 134.744 355.123 133.853 355.891 133.16C356.659 132.456 357.304 131.725 357.827 130.968C358.36 130.2 358.627 129.448 358.627 128.712C358.627 128.019 358.456 127.475 358.115 127.08C357.784 126.675 357.245 126.472 356.499 126.472C355.773 126.472 355.208 126.701 354.803 127.16C354.408 127.608 354.195 128.211 354.163 128.968H352.755C352.797 127.773 353.16 126.851 353.843 126.2C354.525 125.549 355.405 125.224 356.483 125.224C357.581 125.224 358.451 125.528 359.091 126.136C359.741 126.744 360.067 127.581 360.067 128.648C360.067 129.533 359.8 130.397 359.267 131.24C358.744 132.072 358.147 132.808 357.475 133.448C356.803 134.077 355.944 134.813 354.899 135.656H360.403V136.872H352.707V135.832ZM369.782 129.112C369.782 130.04 369.462 130.813 368.822 131.432C368.192 132.04 367.227 132.344 365.926 132.344H363.782V137H362.326V125.848H365.926C367.184 125.848 368.139 126.152 368.79 126.76C369.451 127.368 369.782 128.152 369.782 129.112ZM365.926 131.144C366.736 131.144 367.334 130.968 367.718 130.616C368.102 130.264 368.294 129.763 368.294 129.112C368.294 127.736 367.504 127.048 365.926 127.048H363.782V131.144H365.926ZM382.903 125.928V137H381.447V128.744L377.767 137H376.743L373.047 128.728V137H371.591V125.928H373.159L377.255 135.08L381.351 125.928H382.903Z" fill="white" fill-opacity="0.5"/>
</g>
</g>
<defs>
<filter id="filter0_b_27_5589" x="-30" y="-30" width="460" height="215" filterUnits="userSpaceOnUse" color-interpolation-filters="sRGB">
<feFlood flood-opacity="0" result="BackgroundImageFix"/>
<feGaussianBlur in="BackgroundImageFix" stdDeviation="15"/>
<feComposite in2="SourceAlpha" operator="in" result="effect1_backgroundBlur_27_5589"/>
<feBlend mode="normal" in="SourceGraphic" in2="effect1_backgroundBlur_27_5589" result="shape"/>
</filter>
<filter id="filter1_f_27_5589" x="192" y="-130" width="319" height="319" filterUnits="userSpaceOnUse" color-interpolation-filters="sRGB">
<feFlood flood-opacity="0" result="BackgroundImageFix"/>
<feBlend mode="normal" in="SourceGraphic" in2="BackgroundImageFix" result="shape"/>
<feGaussianBlur stdDeviation="42.5" result="effect1_foregroundBlur_27_5589"/>
</filter>
<filter id="filter2_f_27_5589" x="-5" y="-120" width="519" height="519" filterUnits="userSpaceOnUse" color-interpolation-filters="sRGB">
<feFlood flood-opacity="0" result="BackgroundImageFix"/>
<feBlend mode="normal" in="SourceGraphic" in2="BackgroundImageFix" result="shape"/>
<feGaussianBlur stdDeviation="92.5" result="effect1_foregroundBlur_27_5589"/>
</filter>
<clipPath id="clip0_27_5589">
<rect width="400" height="155" rx="15" fill="white"/>
</clipPath>
</defs>
</svg>
