<svg width="140" height="50" viewBox="0 0 140 50" fill="none" xmlns="http://www.w3.org/2000/svg">
<g clip-path="url(#clip0_27_2107)">
<rect width="140" height="50" rx="4" fill="white" fill-opacity="0.3"/>
<g opacity="0.3">
<path d="M46.92 18.18H48.76V19.62C48.29 19.98 47.64 20.19 47.06 20.19C45.68 20.19 44.52 18.99 44.52 17.56C44.52 16.14 45.68 14.94 47.06 14.94C47.77 14.94 48.58 15.26 49.05 15.77L49.76 15.09C49.11 14.42 48.03 14.01 47.06 14.01C45.13 14.01 43.48 15.63 43.48 17.56C43.48 19.49 45.13 21.12 47.06 21.12C48.03 21.12 49.11 20.7 49.76 20.04V17.3H46.92V18.18ZM53.5314 20.24C52.6414 20.24 52.0114 19.62 51.8814 18.76H55.9514C55.9514 16.91 55.0414 15.71 53.4614 15.71C52.0314 15.71 50.8814 16.85 50.8814 18.4C50.8814 19.99 52.1014 21.12 53.5414 21.12C54.2714 21.12 55.1714 20.81 55.6314 20.32L55.0114 19.68C54.7014 20 54.0714 20.24 53.5314 20.24ZM53.5014 16.59C54.3914 16.59 54.8814 17.17 54.9914 17.97H51.8914C52.0514 17.13 52.7014 16.59 53.5014 16.59ZM59.5189 20.07C59.4089 20.18 59.2089 20.26 58.9889 20.26C58.6989 20.26 58.4589 20 58.4589 19.64V16.67H59.6789V15.83H58.4589V14.41H57.4889V15.83H56.7089V16.67H57.4889V19.71C57.4889 20.54 58.0489 21.12 58.8489 21.12C59.2189 21.12 59.5989 20.98 59.8789 20.75L59.5189 20.07ZM64.2393 14.97C64.5593 14.97 64.8293 14.69 64.8293 14.37C64.8293 14.06 64.5593 13.78 64.2393 13.78C63.8993 13.78 63.6393 14.06 63.6393 14.37C63.6393 14.69 63.8993 14.97 64.2393 14.97ZM63.7393 21H64.7293V15.83H63.7393V21ZM68.5814 20.07C68.4714 20.18 68.2714 20.26 68.0514 20.26C67.7614 20.26 67.5214 20 67.5214 19.64V16.67H68.7414V15.83H67.5214V14.41H66.5514V15.83H65.7714V16.67H66.5514V19.71C66.5514 20.54 67.1114 21.12 67.9114 21.12C68.2814 21.12 68.6614 20.98 68.9414 20.75L68.5814 20.07ZM76.1418 21.12C78.0718 21.12 79.6918 19.49 79.6918 17.56C79.6918 15.63 78.0718 14.01 76.1418 14.01C74.2118 14.01 72.5718 15.63 72.5718 17.56C72.5718 19.49 74.2118 21.12 76.1418 21.12ZM76.1418 20.19C74.7718 20.19 73.6118 18.99 73.6118 17.56C73.6118 16.14 74.7718 14.94 76.1418 14.94C77.5118 14.94 78.6618 16.14 78.6618 17.56C78.6618 18.99 77.5118 20.19 76.1418 20.19ZM83.5277 15.71C82.8277 15.71 82.1977 16.07 81.8877 16.58V15.83H80.8977V21H81.8877V17.65C81.9677 17.04 82.5877 16.57 83.3077 16.57C84.0077 16.57 84.4977 17.11 84.4977 17.88V21H85.4677V17.71C85.4677 16.54 84.6677 15.71 83.5277 15.71Z" fill="white"/>
<path d="M48.362 30.206H50.602V31.676C50.056 32.068 49.384 32.292 48.726 32.292C47.088 32.292 45.702 30.864 45.702 29.184C45.702 27.518 47.088 26.09 48.726 26.09C49.608 26.09 50.546 26.51 51.12 27.168L52.618 25.824C51.652 24.816 50.168 24.214 48.726 24.214C45.94 24.214 43.574 26.482 43.574 29.184C43.574 31.886 45.94 34.168 48.726 34.168C50.168 34.168 51.652 33.566 52.618 32.558V28.596H48.362V30.206ZM57.8563 34.168C59.9983 34.168 61.7903 32.432 61.7903 30.374C61.7903 28.316 59.9983 26.594 57.8563 26.594C55.7003 26.594 53.8943 28.316 53.8943 30.374C53.8943 32.432 55.7003 34.168 57.8563 34.168ZM57.8563 32.446C56.7643 32.446 55.8543 31.494 55.8543 30.374C55.8543 29.254 56.7643 28.316 57.8563 28.316C58.9343 28.316 59.8443 29.254 59.8443 30.374C59.8443 31.494 58.9343 32.446 57.8563 32.446ZM66.7293 34.168C68.8713 34.168 70.6633 32.432 70.6633 30.374C70.6633 28.316 68.8713 26.594 66.7293 26.594C64.5733 26.594 62.7673 28.316 62.7673 30.374C62.7673 32.432 64.5733 34.168 66.7293 34.168ZM66.7293 32.446C65.6373 32.446 64.7273 31.494 64.7273 30.374C64.7273 29.254 65.6373 28.316 66.7293 28.316C67.8073 28.316 68.7173 29.254 68.7173 30.374C68.7173 31.494 67.8073 32.446 66.7293 32.446ZM77.2824 26.762V27.742C76.7924 27.056 75.8684 26.594 74.8884 26.594C73.0684 26.594 71.6824 28.008 71.6824 30.024C71.6824 32.04 73.0684 33.468 74.8884 33.468C75.8404 33.468 76.7084 33.048 77.2824 32.348V33.146C77.2824 34.084 76.4424 34.686 75.1264 34.686C74.2864 34.686 73.4464 34.42 72.9704 34L72.2564 35.442C72.9704 36.002 74.1744 36.408 75.4484 36.408C77.7304 36.408 79.3404 35.092 79.3404 33.23V26.762H77.2824ZM75.5324 31.746C74.5104 31.746 73.7824 31.032 73.7824 30.024C73.7824 29.016 74.5104 28.316 75.5324 28.316C76.5544 28.316 77.2824 29.016 77.2824 30.024C77.2824 31.032 76.5544 31.746 75.5324 31.746ZM81.1382 34H83.1822V24.214H81.1382V34ZM88.3823 32.362C87.5283 32.362 86.8983 31.83 86.6603 31.046H91.8823C91.8823 28.316 90.5523 26.594 88.2843 26.594C86.1703 26.594 84.5603 28.176 84.5603 30.36C84.5603 32.586 86.2403 34.168 88.3963 34.168C89.4603 34.168 90.7063 33.72 91.3503 33.048L90.0483 31.718C89.6563 32.096 88.9563 32.362 88.3823 32.362ZM88.3683 28.4C89.1943 28.4 89.7263 28.862 89.9223 29.576H86.6883C86.9543 28.848 87.5983 28.4 88.3683 28.4ZM97.2313 34H99.2893V30.878H101.557C103.643 30.878 105.183 29.534 105.183 27.63C105.183 25.726 103.643 24.382 101.557 24.382H97.2313V34ZM99.2893 28.988V26.272H101.333C102.355 26.272 103.055 26.804 103.055 27.63C103.055 28.456 102.355 28.988 101.333 28.988H99.2893ZM106.417 34H108.461V24.214H106.417V34ZM113.48 26.594C112.472 26.594 111.478 26.874 110.456 27.392L111.142 28.75C111.716 28.456 112.346 28.232 113.018 28.232C114.208 28.232 114.684 28.904 114.684 29.674V29.814C114.068 29.576 113.424 29.45 112.836 29.45C111.156 29.45 109.826 30.43 109.826 31.858C109.826 33.244 111.016 34.168 112.556 34.168C113.34 34.168 114.166 33.86 114.684 33.272V34H116.658V29.674C116.658 27.784 115.37 26.594 113.48 26.594ZM113.018 32.754C112.318 32.754 111.8 32.39 111.8 31.802C111.8 31.214 112.388 30.78 113.13 30.78C113.69 30.78 114.222 30.878 114.684 31.046V31.718C114.544 32.39 113.802 32.754 113.018 32.754ZM120.032 36.52C121.166 36.52 122.09 35.778 122.636 34.364L125.604 26.762H123.518L121.712 31.844L119.808 26.762H117.694L120.704 34.07L120.452 34.602C120.298 34.868 119.99 34.994 119.598 34.994C119.36 34.994 118.996 34.868 118.646 34.672L118.212 36.072C118.702 36.338 119.43 36.52 120.032 36.52Z" fill="white"/>
</g>
<g opacity="0.3" filter="url(#filter0_ii_27_2107)">
<path d="M13.463 12.3971C13.172 12.7051 13 13.1831 13 13.8021V35.9181C13 36.5381 13.172 37.0151 13.463 37.3231L13.537 37.3951L25.926 25.0061V24.8601V24.7141L13.537 12.3241L13.463 12.3971Z" fill="white"/>
<path d="M30.0548 29.1371L25.9258 25.0061V24.8601V24.7141L30.0558 20.5841L30.1488 20.6371L35.0418 23.4171C36.4388 24.2111 36.4388 25.5101 35.0418 26.3051L30.1488 29.0851L30.0548 29.1371Z" fill="white" fill-opacity="0.8"/>
<g filter="url(#filter1_i_27_2107)">
<path d="M30.1489 29.084L25.9249 24.86L13.4629 37.323C13.9229 37.811 14.6839 37.871 15.5409 37.385L30.1489 29.084Z" fill="white" fill-opacity="0.5"/>
</g>
<path d="M30.1489 20.6361L15.5409 12.3361C14.6839 11.8491 13.9229 11.9101 13.4629 12.3981L25.9259 24.8611L30.1489 20.6361Z" fill="white" fill-opacity="0.5"/>
</g>
<g filter="url(#filter2_b_27_2107)">
<rect x="38.9434" y="-20" width="159.614" height="19" transform="rotate(15.0797 38.9434 -20)" fill="#0078FF"/>
<path d="M53.0521 -2.66244C52.6079 -2.78211 52.2296 -2.96689 51.9172 -3.21678C51.613 -3.47136 51.3984 -3.76394 51.2734 -4.0945C51.1502 -4.4315 51.1347 -4.78432 51.2272 -5.15297L52.1638 -4.90061C52.111 -4.57652 52.1677 -4.2747 52.3341 -3.99513C52.5086 -3.72027 52.8147 -3.52387 53.2524 -3.40592C53.6708 -3.29319 54.0269 -3.30773 54.3205 -3.44954C54.6224 -3.59606 54.8175 -3.83346 54.906 -4.16175C54.9754 -4.41924 54.9609 -4.64752 54.8627 -4.84661C54.7644 -5.04569 54.6203 -5.21569 54.4305 -5.35661C54.2406 -5.49753 53.9784 -5.66483 53.644 -5.85851C53.231 -6.09405 52.905 -6.30618 52.6658 -6.4949C52.4331 -6.68187 52.2532 -6.92369 52.126 -7.22033C52.0069 -7.52167 52.0038 -7.88155 52.1165 -8.29996C52.2154 -8.66688 52.3963 -8.9668 52.6593 -9.19974C52.9223 -9.43267 53.242 -9.58129 53.6183 -9.64559C54.0011 -9.70815 54.4114 -9.68047 54.8491 -9.56253C55.4799 -9.39255 55.9524 -9.09609 56.2665 -8.67314C56.5871 -8.24845 56.7029 -7.76847 56.6139 -7.23319L55.6483 -7.49335C55.6855 -7.75951 55.611 -8.02123 55.4249 -8.27852C55.2405 -8.54224 54.9519 -8.727 54.5593 -8.8328C54.1924 -8.93166 53.867 -8.91576 53.5832 -8.78508C53.3012 -8.66085 53.1142 -8.42814 53.0223 -8.08698C52.9564 -7.84237 52.9702 -7.62461 53.0638 -7.43369C53.1638 -7.24105 53.3023 -7.076 53.4793 -6.93855C53.6644 -6.8058 53.9266 -6.6385 54.2658 -6.43665C54.677 -6.19467 55.0013 -5.9761 55.2387 -5.78095C55.4778 -5.59224 55.6601 -5.34634 55.7856 -5.04326C55.9128 -4.74662 55.9192 -4.38587 55.8047 -3.96103C55.7162 -3.63273 55.5461 -3.34717 55.2942 -3.10433C55.0424 -2.86149 54.7216 -2.69591 54.3319 -2.6076C53.9421 -2.51928 53.5155 -2.53756 53.0521 -2.66244ZM59.6364 -0.888356C59.012 -1.05659 58.4813 -1.35492 58.0444 -1.78335C57.6092 -2.21821 57.3106 -2.7371 57.1486 -3.34002C56.9947 -3.94765 57.0062 -4.57975 57.1831 -5.23633C57.36 -5.89292 57.6668 -6.44202 58.1034 -6.88364C58.5481 -7.32997 59.067 -7.62859 59.66 -7.7795C60.2548 -7.93686 60.8644 -7.93142 61.4888 -7.76318C62.1196 -7.5932 62.6526 -7.29079 63.0878 -6.85593C63.5247 -6.42751 63.821 -5.9127 63.9766 -5.31151C64.1322 -4.71032 64.1207 -4.07822 63.942 -3.4152C63.7634 -2.75218 63.4558 -2.19985 63.0192 -1.75823C62.5826 -1.31661 62.0669 -1.01712 61.4722 -0.859771C60.8792 -0.708854 60.2672 -0.718383 59.6364 -0.888356ZM59.8419 -1.65115C60.3118 -1.52454 60.7629 -1.52037 61.1953 -1.63863C61.634 -1.75516 62.0143 -1.98758 62.3359 -2.33588C62.6641 -2.68245 62.9001 -3.12287 63.0441 -3.65715C63.1898 -4.19786 63.2069 -4.69726 63.0956 -5.15533C62.9925 -5.6181 62.7837 -6.00922 62.4693 -6.32867C62.1549 -6.64813 61.7596 -6.87203 61.2832 -7.00038C60.8069 -7.12873 60.3525 -7.13377 59.9202 -7.0155C59.4879 -6.89724 59.1077 -6.66482 58.7795 -6.31825C58.4596 -5.97639 58.2268 -5.5351 58.0811 -4.99438C57.9371 -4.4601 57.9167 -3.96158 58.0199 -3.49881C58.1295 -3.0343 58.3415 -2.64232 58.6558 -2.32286C58.9767 -2.00167 59.372 -1.77776 59.8419 -1.65115ZM67.227 1.15687C66.6026 0.988628 66.072 0.690298 65.635 0.261875C65.1999 -0.172985 64.9012 -0.691876 64.7392 -1.2948C64.5853 -1.90242 64.5968 -2.53453 64.7737 -3.19111C64.9506 -3.8477 65.2574 -4.3968 65.694 -4.83842C66.1387 -5.28475 66.6576 -5.58337 67.2506 -5.73428C67.8454 -5.89164 68.455 -5.88619 69.0794 -5.71795C69.7102 -5.54798 70.2432 -5.24557 70.6784 -4.81071C71.1153 -4.38228 71.4116 -3.86748 71.5672 -3.26629C71.7228 -2.6651 71.7113 -2.033 71.5327 -1.36997C71.354 -0.706954 71.0464 -0.154632 70.6098 0.286989C70.1732 0.728611 69.6575 1.0281 69.0628 1.18545C68.4698 1.33637 67.8579 1.32684 67.227 1.15687ZM67.4325 0.394071C67.9025 0.520683 68.3536 0.524857 68.7859 0.406592C69.2246 0.290061 69.6049 0.0576447 69.9266 -0.290657C70.2547 -0.637224 70.4907 -1.07765 70.6347 -1.61193C70.7804 -2.15264 70.7976 -2.65204 70.6862 -3.11011C70.5831 -3.57288 70.3743 -3.96399 70.0599 -4.28345C69.7456 -4.60291 69.3502 -4.82681 68.8738 -4.95516C68.3975 -5.08351 67.9432 -5.08855 67.5108 -4.97028C67.0785 -4.85202 66.6983 -4.6196 66.3702 -4.27303C66.0502 -3.93117 65.8174 -3.48988 65.6717 -2.94916C65.5277 -2.41488 65.5073 -1.91636 65.6105 -1.45358C65.7201 -0.989076 65.9321 -0.597093 66.2465 -0.277636C66.5673 0.0435562 66.9626 0.267458 67.4325 0.394071ZM77.076 3.73808L76.1973 3.50133L74.1072 -2.80975L72.6633 2.54913L71.7847 2.31239L73.6006 -4.42726L74.4793 -4.19051L76.5719 2.11092L78.0132 -3.23831L78.8919 -3.00157L77.076 3.73808Z" fill="white"/>
<path d="M90.2247 -0.688871L89.8463 0.887209C89.5238 2.23093 90.3074 3.59251 91.6313 3.98872L93.1841 4.45344L91.608 4.07511C90.2643 3.75256 88.9027 4.53615 88.5065 5.86002L88.0417 7.41282L88.4201 5.83674C88.7426 4.49302 87.959 3.13144 86.6352 2.73523L85.0824 2.27051L86.6584 2.64884C88.0022 2.97139 89.3637 2.1878 89.76 0.86393L90.2247 -0.688871Z" fill="black"/>
<path d="M101.478 10.3856C101.034 10.2659 100.655 10.0811 100.343 9.83126C100.039 9.57667 99.8241 9.2841 99.6992 8.95354C99.5759 8.61654 99.5605 8.26371 99.653 7.89506L100.59 8.14742C100.537 8.47151 100.594 8.77334 100.76 9.0529C100.934 9.32777 101.24 9.52417 101.678 9.64211C102.097 9.75485 102.453 9.74031 102.746 9.59849C103.048 9.45198 103.243 9.21457 103.332 8.88628C103.401 8.6288 103.387 8.40051 103.288 8.20143C103.19 8.00234 103.046 7.83234 102.856 7.69143C102.666 7.55051 102.404 7.38321 102.07 7.18952C101.657 6.95398 101.331 6.74185 101.092 6.55314C100.859 6.36616 100.679 6.12435 100.552 5.82771C100.433 5.52636 100.43 5.16648 100.542 4.74807C100.641 4.38116 100.822 4.08123 101.085 3.8483C101.348 3.61536 101.668 3.46675 102.044 3.40245C102.427 3.33988 102.837 3.36757 103.275 3.48551C103.906 3.65548 104.378 3.95194 104.692 4.37489C105.013 4.79958 105.129 5.27956 105.04 5.81484L104.074 5.55468C104.111 5.28853 104.037 5.0268 103.851 4.76952C103.666 4.50579 103.378 4.32103 102.985 4.21523C102.618 4.11637 102.293 4.13228 102.009 4.26295C101.727 4.38719 101.54 4.61989 101.448 4.96106C101.382 5.20567 101.396 5.42343 101.49 5.61434C101.59 5.80699 101.728 5.97204 101.905 6.10949C102.09 6.24223 102.352 6.40953 102.692 6.61139C103.103 6.85337 103.427 7.07193 103.664 7.26708C103.904 7.4558 104.086 7.70169 104.211 8.00477C104.339 8.30142 104.345 8.66216 104.23 9.08701C104.142 9.4153 103.972 9.70087 103.72 9.94371C103.468 10.1865 103.147 10.3521 102.758 10.4404C102.368 10.5288 101.941 10.5105 101.478 10.3856ZM108.062 12.1597C107.438 11.9914 106.907 11.6931 106.47 11.2647C106.035 10.8298 105.736 10.3109 105.574 9.70801C105.42 9.10039 105.432 8.46828 105.609 7.8117C105.786 7.15512 106.093 6.60601 106.529 6.16439C106.974 5.71807 107.493 5.41945 108.086 5.26853C108.681 5.11118 109.29 5.11662 109.915 5.28486C110.545 5.45483 111.078 5.75725 111.514 6.19211C111.95 6.62053 112.247 7.13534 112.402 7.73652C112.558 8.33771 112.546 8.96982 112.368 9.63284C112.189 10.2959 111.882 10.8482 111.445 11.2898C111.008 11.7314 110.493 12.0309 109.898 12.1883C109.305 12.3392 108.693 12.3297 108.062 12.1597ZM108.268 11.3969C108.738 11.5235 109.189 11.5277 109.621 11.4094C110.06 11.2929 110.44 11.0605 110.762 10.7122C111.09 10.3656 111.326 9.92517 111.47 9.39089C111.616 8.85017 111.633 8.35078 111.521 7.89271C111.418 7.42993 111.209 7.03882 110.895 6.71936C110.581 6.3999 110.185 6.176 109.709 6.04765C109.233 5.91931 108.778 5.91427 108.346 6.03253C107.914 6.1508 107.533 6.38321 107.205 6.72978C106.885 7.07164 106.653 7.51293 106.507 8.05365C106.363 8.58793 106.342 9.08646 106.446 9.54923C106.555 10.0137 106.767 10.4057 107.082 10.7252C107.402 11.0464 107.798 11.2703 108.268 11.3969ZM115.653 14.2049C115.028 14.0367 114.498 13.7383 114.061 13.3099C113.626 12.875 113.327 12.3562 113.165 11.7532C113.011 11.1456 113.023 10.5135 113.199 9.85692C113.376 9.20034 113.683 8.65124 114.12 8.20961C114.565 7.76329 115.083 7.46467 115.676 7.31375C116.271 7.1564 116.881 7.16184 117.505 7.33008C118.136 7.50005 118.669 7.80247 119.104 8.23733C119.541 8.66575 119.837 9.18056 119.993 9.78175C120.149 10.3829 120.137 11.015 119.958 11.6781C119.78 12.3411 119.472 12.8934 119.036 13.335C118.599 13.7766 118.083 14.0761 117.489 14.2335C116.896 14.3844 116.284 14.3749 115.653 14.2049ZM115.858 13.4421C116.328 13.5687 116.779 13.5729 117.212 13.4546C117.65 13.3381 118.031 13.1057 118.352 12.7574C118.68 12.4108 118.917 11.9704 119.06 11.4361C119.206 10.8954 119.223 10.396 119.112 9.93793C119.009 9.47516 118.8 9.08404 118.486 8.76458C118.171 8.44513 117.776 8.22122 117.3 8.09288C116.823 7.96453 116.369 7.95949 115.937 8.07775C115.504 8.19602 115.124 8.42844 114.796 8.775C114.476 9.11687 114.243 9.55816 114.097 10.0989C113.954 10.6332 113.933 11.1317 114.036 11.5945C114.146 12.059 114.358 12.4509 114.672 12.7704C114.993 13.0916 115.388 13.3155 115.858 13.4421ZM125.502 16.7861L124.623 16.5494L122.533 10.2383L121.089 15.5972L120.21 15.3604L122.026 8.62078L122.905 8.85753L124.998 15.159L126.439 9.80972L127.318 10.0465L125.502 16.7861Z" fill="white"/>
<path d="M138.65 12.359L138.272 13.9351C137.95 15.2788 138.733 16.6404 140.057 17.0366L141.61 17.5014L140.034 17.123C138.69 16.8005 137.328 17.5841 136.932 18.9079L136.468 20.4607L136.846 18.8847C137.168 17.5409 136.385 16.1794 135.061 15.7831L133.508 15.3184L135.084 15.6968C136.428 16.0193 137.79 15.2357 138.186 13.9118L138.65 12.359Z" fill="black"/>
<rect x="39.0779" y="-19.7663" width="159.232" height="18.6186" transform="rotate(15.0797 39.0779 -19.7663)" stroke="url(#paint0_linear_27_2107)" stroke-width="0.381392"/>
</g>
</g>
<defs>
<filter id="filter0_ii_27_2107" x="13" y="12" width="23.0898" height="25.7207" filterUnits="userSpaceOnUse" color-interpolation-filters="sRGB">
<feFlood flood-opacity="0" result="BackgroundImageFix"/>
<feBlend mode="normal" in="SourceGraphic" in2="BackgroundImageFix" result="shape"/>
<feColorMatrix in="SourceAlpha" type="matrix" values="0 0 0 0 0 0 0 0 0 0 0 0 0 0 0 0 0 0 127 0" result="hardAlpha"/>
<feOffset dy="-0.15"/>
<feComposite in2="hardAlpha" operator="arithmetic" k2="-1" k3="1"/>
<feColorMatrix type="matrix" values="0 0 0 0 0 0 0 0 0 0 0 0 0 0 0 0 0 0 0.12 0"/>
<feBlend mode="normal" in2="shape" result="effect1_innerShadow_27_2107"/>
<feColorMatrix in="SourceAlpha" type="matrix" values="0 0 0 0 0 0 0 0 0 0 0 0 0 0 0 0 0 0 127 0" result="hardAlpha"/>
<feOffset dy="0.15"/>
<feComposite in2="hardAlpha" operator="arithmetic" k2="-1" k3="1"/>
<feColorMatrix type="matrix" values="0 0 0 0 1 0 0 0 0 1 0 0 0 0 1 0 0 0 0.25 0"/>
<feBlend mode="normal" in2="effect1_innerShadow_27_2107" result="effect2_innerShadow_27_2107"/>
</filter>
<filter id="filter1_i_27_2107" x="13.4629" y="24.86" width="16.6855" height="12.8607" filterUnits="userSpaceOnUse" color-interpolation-filters="sRGB">
<feFlood flood-opacity="0" result="BackgroundImageFix"/>
<feBlend mode="normal" in="SourceGraphic" in2="BackgroundImageFix" result="shape"/>
<feColorMatrix in="SourceAlpha" type="matrix" values="0 0 0 0 0 0 0 0 0 0 0 0 0 0 0 0 0 0 127 0" result="hardAlpha"/>
<feOffset dy="-0.15"/>
<feComposite in2="hardAlpha" operator="arithmetic" k2="-1" k3="1"/>
<feColorMatrix type="matrix" values="0 0 0 0 0 0 0 0 0 0 0 0 0 0 0 0 0 0 0.08 0"/>
<feBlend mode="normal" in2="shape" result="effect1_innerShadow_27_2107"/>
</filter>
<filter id="filter2_b_27_2107" x="22.5582" y="-31.4418" width="181.944" height="82.7547" filterUnits="userSpaceOnUse" color-interpolation-filters="sRGB">
<feFlood flood-opacity="0" result="BackgroundImageFix"/>
<feGaussianBlur in="BackgroundImageFix" stdDeviation="5.72088"/>
<feComposite in2="SourceAlpha" operator="in" result="effect1_backgroundBlur_27_2107"/>
<feBlend mode="normal" in="SourceGraphic" in2="effect1_backgroundBlur_27_2107" result="shape"/>
</filter>
<linearGradient id="paint0_linear_27_2107" x1="46.1205" y1="-20.0004" x2="198.73" y2="-18.4883" gradientUnits="userSpaceOnUse">
<stop stop-color="white"/>
<stop offset="1" stop-color="white" stop-opacity="0"/>
</linearGradient>
<clipPath id="clip0_27_2107">
<rect width="140" height="50" fill="white"/>
</clipPath>
</defs>
</svg>
