<svg width="140" height="50" viewBox="0 0 140 50" fill="none" xmlns="http://www.w3.org/2000/svg">
<g clip-path="url(#clip0_27_2130)">
<rect width="140" height="50" rx="4" fill="white" fill-opacity="0.3"/>
<g opacity="0.3">
<path d="M30.7973 25.5804C30.819 23.8994 31.7217 22.3088 33.1539 21.4283C32.2504 20.138 30.7371 19.3199 29.1627 19.2706C27.4835 19.0944 25.8555 20.2754 24.9998 20.2754C24.1275 20.2754 22.81 19.2881 21.3913 19.3173C19.5421 19.3771 17.8181 20.4284 16.9184 22.0452C14.9844 25.3936 16.427 30.3146 18.2796 33.0213C19.2065 34.3466 20.2898 35.8271 21.7072 35.7746C23.0943 35.717 23.6123 34.8901 25.2866 34.8901C26.9454 34.8901 27.4314 35.7746 28.8776 35.7412C30.366 35.717 31.3038 34.4099 32.1981 33.072C32.8641 32.1277 33.3766 31.084 33.7166 29.9795C31.9674 29.2397 30.7994 27.4795 30.7973 25.5804Z" fill="white"/>
<path d="M28.0656 17.4906C28.8772 16.5164 29.277 15.2642 29.1802 14C27.9403 14.1302 26.7951 14.7228 25.9726 15.6596C25.1683 16.5749 24.7497 17.8051 24.8289 19.021C26.0692 19.0338 27.2885 18.4573 28.0656 17.4906Z" fill="white"/>
</g>
<g opacity="0.3">
<path d="M41.87 21H44.24C46.46 21 48.04 19.57 48.04 17.56C48.04 15.55 46.46 14.13 44.24 14.13H41.87V21ZM42.88 20.08V15.05H44.3C45.89 15.05 47 16.09 47 17.56C47 19.04 45.89 20.08 44.3 20.08H42.88ZM51.7872 21.12C53.2572 21.12 54.4972 19.88 54.4972 18.41C54.4972 16.94 53.2572 15.71 51.7872 15.71C50.3072 15.71 49.0572 16.94 49.0572 18.41C49.0572 19.88 50.3072 21.12 51.7872 21.12ZM51.7872 20.26C50.8372 20.26 50.0472 19.42 50.0472 18.41C50.0472 17.41 50.8372 16.57 51.7872 16.57C52.7172 16.57 53.5072 17.41 53.5072 18.41C53.5072 19.42 52.7172 20.26 51.7872 20.26ZM56.7507 21H57.6607L58.9107 17.16L60.1507 21H61.0607L62.8007 15.83H61.7907L60.6107 19.68L59.3307 15.83H58.4907L57.2107 19.68L56.0207 15.83H55.0107L56.7507 21ZM66.4301 15.71C65.7301 15.71 65.1001 16.07 64.7901 16.58V15.83H63.8001V21H64.7901V17.65C64.8701 17.04 65.4901 16.57 66.2101 16.57C66.9101 16.57 67.4001 17.11 67.4001 17.88V21H68.3701V17.71C68.3701 16.54 67.5701 15.71 66.4301 15.71ZM69.7864 21H70.7664V14.01H69.7864V21ZM74.6583 21.12C76.1283 21.12 77.3683 19.88 77.3683 18.41C77.3683 16.94 76.1283 15.71 74.6583 15.71C73.1783 15.71 71.9283 16.94 71.9283 18.41C71.9283 19.88 73.1783 21.12 74.6583 21.12ZM74.6583 20.26C73.7083 20.26 72.9183 19.42 72.9183 18.41C72.9183 17.41 73.7083 16.57 74.6583 16.57C75.5883 16.57 76.3783 17.41 76.3783 18.41C76.3783 19.42 75.5883 20.26 74.6583 20.26ZM80.6966 15.71C80.1266 15.71 79.4766 15.86 78.7366 16.23L79.0966 16.96C79.5466 16.73 80.0466 16.53 80.5566 16.53C81.5866 16.53 81.8866 17.22 81.8866 17.87V18.03C81.3866 17.86 80.8366 17.75 80.3266 17.75C79.1866 17.75 78.2566 18.44 78.2566 19.47C78.2566 20.48 79.0666 21.12 80.1666 21.12C80.7966 21.12 81.5066 20.83 81.8866 20.29V21H82.8566V17.87C82.8566 16.59 82.0866 15.71 80.6966 15.71ZM80.3566 20.34C79.7066 20.34 79.2066 20 79.2066 19.44C79.2066 18.88 79.7866 18.49 80.4766 18.49C80.9866 18.49 81.4666 18.56 81.8866 18.69V19.38C81.7166 20.02 80.9966 20.34 80.3566 20.34ZM88.2684 14.01V16.72C87.8684 16.09 87.2284 15.71 86.4284 15.71C85.0684 15.71 84.0484 16.83 84.0484 18.41C84.0484 20 85.0684 21.12 86.4284 21.12C87.2284 21.12 87.8684 20.74 88.2684 20.1V21H89.2484V14.01H88.2684ZM86.6684 20.26C85.7184 20.26 85.0484 19.49 85.0484 18.41C85.0484 17.33 85.7184 16.57 86.6684 16.57C87.5984 16.57 88.2684 17.33 88.2684 18.41C88.2684 19.49 87.5984 20.26 86.6684 20.26ZM96.045 21.12C97.515 21.12 98.755 19.88 98.755 18.41C98.755 16.94 97.515 15.71 96.045 15.71C94.565 15.71 93.315 16.94 93.315 18.41C93.315 19.88 94.565 21.12 96.045 21.12ZM96.045 20.26C95.095 20.26 94.305 19.42 94.305 18.41C94.305 17.41 95.095 16.57 96.045 16.57C96.975 16.57 97.765 17.41 97.765 18.41C97.765 19.42 96.975 20.26 96.045 20.26ZM102.543 15.71C101.843 15.71 101.213 16.07 100.903 16.58V15.83H99.9134V21H100.903V17.65C100.983 17.04 101.603 16.57 102.323 16.57C103.023 16.57 103.513 17.11 103.513 17.88V21H104.483V17.71C104.483 16.54 103.683 15.71 102.543 15.71ZM111.181 20.07C111.071 20.18 110.871 20.26 110.651 20.26C110.361 20.26 110.121 20 110.121 19.64V16.67H111.341V15.83H110.121V14.41H109.151V15.83H108.371V16.67H109.151V19.71C109.151 20.54 109.711 21.12 110.511 21.12C110.881 21.12 111.261 20.98 111.541 20.75L111.181 20.07ZM115.18 15.71C114.47 15.71 113.84 16.08 113.53 16.6V14.01H112.55V21H113.53V17.79C113.53 17.12 114.18 16.57 114.96 16.57C115.66 16.57 116.15 17.11 116.15 17.88V21H117.12V17.71C117.12 16.54 116.32 15.71 115.18 15.71ZM120.906 20.24C120.016 20.24 119.386 19.62 119.256 18.76H123.326C123.326 16.91 122.416 15.71 120.836 15.71C119.406 15.71 118.256 16.85 118.256 18.4C118.256 19.99 119.476 21.12 120.916 21.12C121.646 21.12 122.546 20.81 123.006 20.32L122.386 19.68C122.076 20 121.446 20.24 120.906 20.24ZM120.876 16.59C121.766 16.59 122.256 17.17 122.366 17.97H119.266C119.426 17.13 120.076 16.59 120.876 16.59Z" fill="white"/>
<path d="M49.008 34H51.332L47.412 24.382H45.102L41.182 34H43.492L44.108 32.488H48.392L49.008 34ZM44.822 30.738L46.25 27.224L47.678 30.738H44.822ZM56.8757 26.594C55.8677 26.594 55.0277 27.028 54.4537 27.77V26.762H52.4097V36.408H54.4537V32.978C55.0277 33.734 55.8677 34.168 56.8757 34.168C58.8077 34.168 60.2077 32.6 60.2077 30.374C60.2077 28.162 58.8077 26.594 56.8757 26.594ZM56.2877 32.446C55.2937 32.446 54.5657 31.718 54.4537 30.654V30.094C54.5657 29.044 55.2937 28.316 56.2877 28.316C57.4217 28.316 58.2197 29.17 58.2197 30.374C58.2197 31.592 57.4217 32.446 56.2877 32.446ZM66.1179 26.594C65.1099 26.594 64.2699 27.028 63.6959 27.77V26.762H61.6519V36.408H63.6959V32.978C64.2699 33.734 65.1099 34.168 66.1179 34.168C68.0499 34.168 69.4499 32.6 69.4499 30.374C69.4499 28.162 68.0499 26.594 66.1179 26.594ZM65.5299 32.446C64.5359 32.446 63.8079 31.718 63.6959 30.654V30.094C63.8079 29.044 64.5359 28.316 65.5299 28.316C66.6639 28.316 67.4619 29.17 67.4619 30.374C67.4619 31.592 66.6639 32.446 65.5299 32.446ZM78.5002 34.168C80.8522 34.168 82.2382 32.95 82.2382 31.116C82.2382 29.338 80.8662 28.722 78.7942 28.26C77.3102 27.924 76.7362 27.7 76.7362 27C76.7362 26.426 77.2682 25.964 78.1502 25.964C79.0742 25.964 80.0402 26.342 80.8942 27.028L81.9722 25.544C80.9922 24.704 79.7742 24.214 78.2062 24.214C76.1062 24.214 74.6502 25.432 74.6502 27.21C74.6502 29.072 76.0922 29.646 78.1222 30.108C79.5922 30.444 80.1522 30.654 80.1522 31.34C80.1522 31.942 79.6202 32.418 78.5842 32.418C77.3662 32.418 76.3302 31.942 75.4202 31.158L74.2302 32.572C75.3502 33.608 76.8342 34.168 78.5002 34.168ZM87.4716 32.208C87.3316 32.348 87.0516 32.446 86.7716 32.446C86.3936 32.446 86.0856 32.11 86.0856 31.634V28.414H87.6536V26.762H86.0856V24.774H84.1256V26.762H83.1316V28.414H84.1256V31.956C84.1256 33.258 85.0216 34.168 86.2956 34.168C86.8836 34.168 87.5416 33.916 87.9616 33.538L87.4716 32.208ZM92.7977 34.168C94.9397 34.168 96.7317 32.432 96.7317 30.374C96.7317 28.316 94.9397 26.594 92.7977 26.594C90.6417 26.594 88.8357 28.316 88.8357 30.374C88.8357 32.432 90.6417 34.168 92.7977 34.168ZM92.7977 32.446C91.7057 32.446 90.7957 31.494 90.7957 30.374C90.7957 29.254 91.7057 28.316 92.7977 28.316C93.8757 28.316 94.7857 29.254 94.7857 30.374C94.7857 31.494 93.8757 32.446 92.7977 32.446ZM100.159 28.106V26.762H98.1148V34H100.159V30.542C100.159 29.184 101.125 28.316 102.637 28.316V26.594C101.531 26.594 100.635 27.168 100.159 28.106ZM107.232 32.362C106.378 32.362 105.748 31.83 105.51 31.046H110.732C110.732 28.316 109.402 26.594 107.134 26.594C105.02 26.594 103.41 28.176 103.41 30.36C103.41 32.586 105.09 34.168 107.246 34.168C108.31 34.168 109.556 33.72 110.2 33.048L108.898 31.718C108.506 32.096 107.806 32.362 107.232 32.362ZM107.218 28.4C108.044 28.4 108.576 28.862 108.772 29.576H105.538C105.804 28.848 106.448 28.4 107.218 28.4Z" fill="white"/>
</g>
<g filter="url(#filter0_b_27_2130)">
<rect x="38.9434" y="-18" width="159.614" height="19" transform="rotate(15.0797 38.9434 -18)" fill="#0078FF"/>
<path d="M53.0521 -0.66244C52.6079 -0.782115 52.2296 -0.966894 51.9172 -1.21678C51.613 -1.47136 51.3984 -1.76394 51.2734 -2.0945C51.1502 -2.4315 51.1347 -2.78432 51.2272 -3.15297L52.1638 -2.90061C52.111 -2.57652 52.1677 -2.2747 52.3341 -1.99513C52.5086 -1.72027 52.8147 -1.52387 53.2524 -1.40592C53.6708 -1.29319 54.0269 -1.30773 54.3205 -1.44954C54.6224 -1.59606 54.8175 -1.83346 54.906 -2.16175C54.9754 -2.41924 54.9609 -2.64752 54.8627 -2.84661C54.7644 -3.04569 54.6203 -3.21569 54.4305 -3.35661C54.2406 -3.49753 53.9784 -3.66483 53.644 -3.85851C53.231 -4.09405 52.905 -4.30618 52.6658 -4.4949C52.4331 -4.68187 52.2532 -4.92369 52.126 -5.22033C52.0069 -5.52167 52.0038 -5.88155 52.1165 -6.29996C52.2154 -6.66688 52.3963 -6.9668 52.6593 -7.19974C52.9223 -7.43267 53.242 -7.58129 53.6183 -7.64559C54.0011 -7.70815 54.4114 -7.68047 54.8491 -7.56253C55.4799 -7.39255 55.9524 -7.09609 56.2665 -6.67314C56.5871 -6.24845 56.7029 -5.76847 56.6139 -5.23319L55.6483 -5.49335C55.6855 -5.75951 55.611 -6.02123 55.4249 -6.27852C55.2405 -6.54224 54.9519 -6.727 54.5593 -6.8328C54.1924 -6.93166 53.867 -6.91576 53.5832 -6.78508C53.3012 -6.66085 53.1142 -6.42814 53.0223 -6.08698C52.9564 -5.84237 52.9702 -5.62461 53.0638 -5.43369C53.1638 -5.24105 53.3023 -5.076 53.4793 -4.93855C53.6644 -4.8058 53.9266 -4.6385 54.2658 -4.43665C54.677 -4.19467 55.0013 -3.9761 55.2387 -3.78095C55.4778 -3.59224 55.6601 -3.34634 55.7856 -3.04326C55.9128 -2.74662 55.9192 -2.38587 55.8047 -1.96103C55.7162 -1.63273 55.5461 -1.34717 55.2942 -1.10433C55.0424 -0.861487 54.7216 -0.69591 54.3319 -0.607595C53.9421 -0.519281 53.5155 -0.537562 53.0521 -0.66244ZM59.6364 1.11164C59.012 0.943406 58.4813 0.645075 58.0444 0.216653C57.6092 -0.218207 57.3106 -0.737098 57.1486 -1.34002C56.9947 -1.94765 57.0062 -2.57975 57.1831 -3.23633C57.36 -3.89292 57.6668 -4.44202 58.1034 -4.88364C58.5481 -5.32997 59.067 -5.62859 59.66 -5.7795C60.2548 -5.93686 60.8644 -5.93142 61.4888 -5.76318C62.1196 -5.5932 62.6526 -5.29079 63.0878 -4.85593C63.5247 -4.42751 63.821 -3.9127 63.9766 -3.31151C64.1322 -2.71032 64.1207 -2.07822 63.942 -1.4152C63.7634 -0.752176 63.4558 -0.199855 63.0192 0.241767C62.5826 0.683389 62.0669 0.982876 61.4722 1.14023C60.8792 1.29115 60.2672 1.28162 59.6364 1.11164ZM59.8419 0.348848C60.3118 0.475461 60.7629 0.479634 61.1953 0.361369C61.634 0.244838 62.0143 0.0124222 62.3359 -0.335879C62.6641 -0.682446 62.9001 -1.12287 63.0441 -1.65715C63.1898 -2.19786 63.2069 -2.69726 63.0956 -3.15533C62.9925 -3.6181 62.7837 -4.00922 62.4693 -4.32867C62.1549 -4.64813 61.7596 -4.87203 61.2832 -5.00038C60.8069 -5.12873 60.3525 -5.13377 59.9202 -5.0155C59.4879 -4.89724 59.1077 -4.66482 58.7795 -4.31825C58.4596 -3.97639 58.2268 -3.5351 58.0811 -2.99438C57.9371 -2.4601 57.9167 -1.96158 58.0199 -1.49881C58.1295 -1.0343 58.3415 -0.642316 58.6558 -0.322858C58.9767 -0.00166638 59.372 0.222236 59.8419 0.348848ZM67.227 3.15687C66.6026 2.98863 66.072 2.6903 65.635 2.26188C65.1999 1.82702 64.9012 1.30812 64.7392 0.705202C64.5853 0.0975763 64.5968 -0.534528 64.7737 -1.19111C64.9506 -1.8477 65.2574 -2.3968 65.694 -2.83842C66.1387 -3.28475 66.6576 -3.58337 67.2506 -3.73428C67.8454 -3.89164 68.455 -3.88619 69.0794 -3.71795C69.7102 -3.54798 70.2432 -3.24557 70.6784 -2.81071C71.1153 -2.38228 71.4116 -1.86748 71.5672 -1.26629C71.7228 -0.665101 71.7113 -0.0329961 71.5327 0.630025C71.354 1.29305 71.0464 1.84537 70.6098 2.28699C70.1732 2.72861 69.6575 3.0281 69.0628 3.18545C68.4698 3.33637 67.8579 3.32684 67.227 3.15687ZM67.4325 2.39407C67.9025 2.52068 68.3536 2.52486 68.7859 2.40659C69.2246 2.29006 69.6049 2.05764 69.9266 1.70934C70.2547 1.36278 70.4907 0.922353 70.6347 0.388074C70.7804 -0.152642 70.7976 -0.652036 70.6862 -1.11011C70.5831 -1.57288 70.3743 -1.96399 70.0599 -2.28345C69.7456 -2.60291 69.3502 -2.82681 68.8738 -2.95516C68.3975 -3.08351 67.9432 -3.08855 67.5108 -2.97028C67.0785 -2.85202 66.6983 -2.6196 66.3702 -2.27303C66.0502 -1.93117 65.8174 -1.48988 65.6717 -0.949161C65.5277 -0.414882 65.5073 0.0836441 65.6105 0.546417C65.7201 1.01092 65.9321 1.40291 66.2465 1.72236C66.5673 2.04356 66.9626 2.26746 67.4325 2.39407ZM77.076 5.73808L76.1973 5.50133L74.1072 -0.80975L72.6633 4.54913L71.7847 4.31239L73.6006 -2.42726L74.4793 -2.19051L76.5719 4.11092L78.0132 -1.23831L78.8919 -1.00157L77.076 5.73808Z" fill="white"/>
<path d="M90.2247 1.31113L89.8463 2.88721C89.5238 4.23093 90.3074 5.59251 91.6313 5.98872L93.1841 6.45344L91.608 6.07511C90.2643 5.75256 88.9027 6.53615 88.5065 7.86002L88.0417 9.41282L88.4201 7.83674C88.7426 6.49302 87.959 5.13144 86.6352 4.73523L85.0824 4.27051L86.6584 4.64884C88.0022 4.97139 89.3637 4.1878 89.76 2.86393L90.2247 1.31113Z" fill="black"/>
<path d="M101.478 12.3856C101.034 12.2659 100.655 12.0811 100.343 11.8313C100.039 11.5767 99.8241 11.2841 99.6992 10.9535C99.5759 10.6165 99.5605 10.2637 99.653 9.89506L100.59 10.1474C100.537 10.4715 100.594 10.7733 100.76 11.0529C100.934 11.3278 101.24 11.5242 101.678 11.6421C102.097 11.7548 102.453 11.7403 102.746 11.5985C103.048 11.452 103.243 11.2146 103.332 10.8863C103.401 10.6288 103.387 10.4005 103.288 10.2014C103.19 10.0023 103.046 9.83234 102.856 9.69143C102.666 9.55051 102.404 9.38321 102.07 9.18952C101.657 8.95398 101.331 8.74185 101.092 8.55314C100.859 8.36616 100.679 8.12435 100.552 7.82771C100.433 7.52636 100.43 7.16648 100.542 6.74807C100.641 6.38116 100.822 6.08123 101.085 5.8483C101.348 5.61536 101.668 5.46675 102.044 5.40245C102.427 5.33988 102.837 5.36757 103.275 5.48551C103.906 5.65548 104.378 5.95194 104.692 6.37489C105.013 6.79958 105.129 7.27956 105.04 7.81484L104.074 7.55468C104.111 7.28853 104.037 7.0268 103.851 6.76952C103.666 6.50579 103.378 6.32103 102.985 6.21523C102.618 6.11637 102.293 6.13228 102.009 6.26295C101.727 6.38719 101.54 6.61989 101.448 6.96106C101.382 7.20567 101.396 7.42343 101.49 7.61434C101.59 7.80699 101.728 7.97204 101.905 8.10949C102.09 8.24223 102.352 8.40953 102.692 8.61139C103.103 8.85337 103.427 9.07193 103.664 9.26708C103.904 9.4558 104.086 9.70169 104.211 10.0048C104.339 10.3014 104.345 10.6622 104.23 11.087C104.142 11.4153 103.972 11.7009 103.72 11.9437C103.468 12.1865 103.147 12.3521 102.758 12.4404C102.368 12.5288 101.941 12.5105 101.478 12.3856ZM108.062 14.1597C107.438 13.9914 106.907 13.6931 106.47 13.2647C106.035 12.8298 105.736 12.3109 105.574 11.708C105.42 11.1004 105.432 10.4683 105.609 9.8117C105.786 9.15512 106.093 8.60601 106.529 8.16439C106.974 7.71807 107.493 7.41945 108.086 7.26853C108.681 7.11118 109.29 7.11662 109.915 7.28486C110.545 7.45483 111.078 7.75725 111.514 8.19211C111.95 8.62053 112.247 9.13534 112.402 9.73652C112.558 10.3377 112.546 10.9698 112.368 11.6328C112.189 12.2959 111.882 12.8482 111.445 13.2898C111.008 13.7314 110.493 14.0309 109.898 14.1883C109.305 14.3392 108.693 14.3297 108.062 14.1597ZM108.268 13.3969C108.738 13.5235 109.189 13.5277 109.621 13.4094C110.06 13.2929 110.44 13.0605 110.762 12.7122C111.09 12.3656 111.326 11.9252 111.47 11.3909C111.616 10.8502 111.633 10.3508 111.521 9.89271C111.418 9.42993 111.209 9.03882 110.895 8.71936C110.581 8.3999 110.185 8.176 109.709 8.04765C109.233 7.91931 108.778 7.91427 108.346 8.03253C107.914 8.1508 107.533 8.38321 107.205 8.72978C106.885 9.07164 106.653 9.51293 106.507 10.0537C106.363 10.5879 106.342 11.0865 106.446 11.5492C106.555 12.0137 106.767 12.4057 107.082 12.7252C107.402 13.0464 107.798 13.2703 108.268 13.3969ZM115.653 16.2049C115.028 16.0367 114.498 15.7383 114.061 15.3099C113.626 14.875 113.327 14.3562 113.165 13.7532C113.011 13.1456 113.023 12.5135 113.199 11.8569C113.376 11.2003 113.683 10.6512 114.12 10.2096C114.565 9.76329 115.083 9.46467 115.676 9.31375C116.271 9.1564 116.881 9.16184 117.505 9.33008C118.136 9.50005 118.669 9.80247 119.104 10.2373C119.541 10.6658 119.837 11.1806 119.993 11.7817C120.149 12.3829 120.137 13.015 119.958 13.6781C119.78 14.3411 119.472 14.8934 119.036 15.335C118.599 15.7766 118.083 16.0761 117.489 16.2335C116.896 16.3844 116.284 16.3749 115.653 16.2049ZM115.858 15.4421C116.328 15.5687 116.779 15.5729 117.212 15.4546C117.65 15.3381 118.031 15.1057 118.352 14.7574C118.68 14.4108 118.917 13.9704 119.06 13.4361C119.206 12.8954 119.223 12.396 119.112 11.9379C119.009 11.4752 118.8 11.084 118.486 10.7646C118.171 10.4451 117.776 10.2212 117.3 10.0929C116.823 9.96453 116.369 9.95949 115.937 10.0778C115.504 10.196 115.124 10.4284 114.796 10.775C114.476 11.1169 114.243 11.5582 114.097 12.0989C113.954 12.6332 113.933 13.1317 114.036 13.5945C114.146 14.059 114.358 14.4509 114.672 14.7704C114.993 15.0916 115.388 15.3155 115.858 15.4421ZM125.502 18.7861L124.623 18.5494L122.533 12.2383L121.089 17.5972L120.21 17.3604L122.026 10.6208L122.905 10.8575L124.998 17.159L126.439 11.8097L127.318 12.0465L125.502 18.7861Z" fill="white"/>
<path d="M138.65 14.359L138.272 15.9351C137.95 17.2788 138.733 18.6404 140.057 19.0366L141.61 19.5014L140.034 19.123C138.69 18.8005 137.328 19.5841 136.932 20.9079L136.468 22.4607L136.846 20.8847C137.168 19.5409 136.385 18.1794 135.061 17.7831L133.508 17.3184L135.084 17.6968C136.428 18.0193 137.79 17.2357 138.186 15.9118L138.65 14.359Z" fill="black"/>
<rect x="39.0779" y="-17.7663" width="159.232" height="18.6186" transform="rotate(15.0797 39.0779 -17.7663)" stroke="url(#paint0_linear_27_2130)" stroke-width="0.381392"/>
</g>
</g>
<defs>
<filter id="filter0_b_27_2130" x="22.5582" y="-29.4418" width="181.944" height="82.7547" filterUnits="userSpaceOnUse" color-interpolation-filters="sRGB">
<feFlood flood-opacity="0" result="BackgroundImageFix"/>
<feGaussianBlur in="BackgroundImageFix" stdDeviation="5.72088"/>
<feComposite in2="SourceAlpha" operator="in" result="effect1_backgroundBlur_27_2130"/>
<feBlend mode="normal" in="SourceGraphic" in2="effect1_backgroundBlur_27_2130" result="shape"/>
</filter>
<linearGradient id="paint0_linear_27_2130" x1="46.1205" y1="-18.0004" x2="198.73" y2="-16.4883" gradientUnits="userSpaceOnUse">
<stop stop-color="white"/>
<stop offset="1" stop-color="white" stop-opacity="0"/>
</linearGradient>
<clipPath id="clip0_27_2130">
<rect width="140" height="50" fill="white"/>
</clipPath>
</defs>
</svg>
