<svg width="540" height="155" viewBox="0 0 540 155" fill="none" xmlns="http://www.w3.org/2000/svg">
<g filter="url(#filter0_b_27_5897)">
<g clip-path="url(#clip0_27_5897)">
<rect width="540" height="155" rx="15" fill="#22113E"/>
<g style="mix-blend-mode:overlay" filter="url(#filter1_f_27_5897)">
<circle cx="8" cy="55" r="135" transform="rotate(-90 8 55)" fill="url(#paint0_linear_27_5897)"/>
</g>
<g style="mix-blend-mode:overlay" opacity="0.5" filter="url(#filter2_f_27_5897)">
<circle cx="8" cy="55" r="135" transform="rotate(-90 8 55)" fill="url(#paint1_linear_27_5897)"/>
</g>
<g style="mix-blend-mode:overlay" filter="url(#filter3_f_27_5897)">
<circle cx="460" cy="13" r="93" transform="rotate(90 460 13)" fill="url(#paint2_linear_27_5897)"/>
</g>
<g style="mix-blend-mode:overlay" opacity="0.5" filter="url(#filter4_f_27_5897)">
<circle cx="460" cy="13" r="93" transform="rotate(90 460 13)" fill="url(#paint3_linear_27_5897)"/>
</g>
<g clip-path="url(#clip1_27_5897)">
<rect x="15" y="15" width="125" height="125" rx="12" fill="#E84142"/>
<path d="M114.749 37.7568H40.0898V105.658H114.749V37.7568Z" fill="white"/>
<path fill-rule="evenodd" clip-rule="evenodd" d="M137.878 77.5001C137.878 110.869 110.828 137.92 77.4586 137.92C44.0898 137.92 17.0391 110.869 17.0391 77.5001C17.0391 44.1313 44.0898 17.0806 77.4586 17.0806C110.828 17.0806 137.878 44.1313 137.878 77.5001ZM60.3374 101.544H48.6117C46.1478 101.544 44.9307 101.544 44.1886 101.069C43.3871 100.55 42.8973 99.6888 42.8379 98.7387C42.7933 97.8633 43.4019 96.7943 44.619 94.6569L73.5713 43.6245C74.8033 41.4575 75.4266 40.3739 76.2133 39.9732C77.0593 39.5428 78.0687 39.5428 78.9147 39.9732C79.7014 40.3739 80.3248 41.4575 81.5567 43.6245L87.5087 54.0144L87.539 54.0675C88.8696 56.3923 89.5444 57.5712 89.839 58.8086C90.1655 60.1593 90.1655 61.5842 89.839 62.9349C89.5421 64.1817 88.8742 65.3691 87.5235 67.7291L72.3155 94.6124L72.2762 94.6813C70.9368 97.0253 70.2581 98.2133 69.3173 99.1095C68.2932 100.089 67.0612 100.801 65.7105 101.203C64.4785 101.544 63.0982 101.544 60.3374 101.544ZM89.9488 101.544H106.75C109.229 101.544 110.476 101.544 111.219 101.055C112.02 100.535 112.524 99.659 112.57 98.7097C112.612 97.8625 112.017 96.8352 110.85 94.822C110.81 94.7535 110.77 94.6837 110.729 94.6128L102.313 80.2154L102.217 80.0533C101.034 78.0534 100.437 77.0435 99.6706 76.6531C98.8251 76.2226 97.8299 76.2226 96.9843 76.6531C96.2124 77.0538 95.5891 78.1077 94.3571 80.2302L85.9709 94.6276L85.9422 94.6772C84.7146 96.7963 84.1011 97.8553 84.1453 98.7242C84.2047 99.6743 84.6945 100.55 85.4959 101.069C86.2233 101.544 87.4701 101.544 89.9488 101.544Z" fill="#E84142"/>
</g>
<path d="M171.928 39.808H165.256L164.152 43H160.624L166.648 26.224H170.56L176.584 43H173.032L171.928 39.808ZM171.016 37.12L168.592 30.112L166.168 37.12H171.016ZM184.38 39.904L187.74 29.704H191.316L186.396 43H182.316L177.42 29.704H181.02L184.38 39.904ZM192.339 36.304C192.339 34.96 192.603 33.768 193.131 32.728C193.675 31.688 194.403 30.888 195.315 30.328C196.243 29.768 197.275 29.488 198.411 29.488C199.403 29.488 200.267 29.688 201.003 30.088C201.755 30.488 202.355 30.992 202.803 31.6V29.704H206.187V43H202.803V41.056C202.371 41.68 201.771 42.2 201.003 42.616C200.251 43.016 199.379 43.216 198.387 43.216C197.267 43.216 196.243 42.928 195.315 42.352C194.403 41.776 193.675 40.968 193.131 39.928C192.603 38.872 192.339 37.664 192.339 36.304ZM202.803 36.352C202.803 35.536 202.643 34.84 202.323 34.264C202.003 33.672 201.571 33.224 201.027 32.92C200.483 32.6 199.899 32.44 199.275 32.44C198.651 32.44 198.075 32.592 197.547 32.896C197.019 33.2 196.587 33.648 196.251 34.24C195.931 34.816 195.771 35.504 195.771 36.304C195.771 37.104 195.931 37.808 196.251 38.416C196.587 39.008 197.019 39.464 197.547 39.784C198.091 40.104 198.667 40.264 199.275 40.264C199.899 40.264 200.483 40.112 201.027 39.808C201.571 39.488 202.003 39.04 202.323 38.464C202.643 37.872 202.803 37.168 202.803 36.352ZM212.829 25.24V43H209.469V25.24H212.829ZM215.284 36.304C215.284 34.96 215.548 33.768 216.076 32.728C216.62 31.688 217.348 30.888 218.26 30.328C219.188 29.768 220.22 29.488 221.356 29.488C222.348 29.488 223.212 29.688 223.948 30.088C224.7 30.488 225.3 30.992 225.748 31.6V29.704H229.132V43H225.748V41.056C225.316 41.68 224.716 42.2 223.948 42.616C223.196 43.016 222.324 43.216 221.332 43.216C220.212 43.216 219.188 42.928 218.26 42.352C217.348 41.776 216.62 40.968 216.076 39.928C215.548 38.872 215.284 37.664 215.284 36.304ZM225.748 36.352C225.748 35.536 225.588 34.84 225.268 34.264C224.948 33.672 224.516 33.224 223.972 32.92C223.428 32.6 222.844 32.44 222.22 32.44C221.596 32.44 221.02 32.592 220.492 32.896C219.964 33.2 219.532 33.648 219.196 34.24C218.876 34.816 218.716 35.504 218.716 36.304C218.716 37.104 218.876 37.808 219.196 38.416C219.532 39.008 219.964 39.464 220.492 39.784C221.036 40.104 221.612 40.264 222.22 40.264C222.844 40.264 223.428 40.112 223.972 39.808C224.516 39.488 224.948 39.04 225.268 38.464C225.588 37.872 225.748 37.168 225.748 36.352ZM239.782 29.512C241.366 29.512 242.646 30.016 243.622 31.024C244.598 32.016 245.086 33.408 245.086 35.2V43H241.726V35.656C241.726 34.6 241.462 33.792 240.934 33.232C240.406 32.656 239.686 32.368 238.774 32.368C237.846 32.368 237.11 32.656 236.566 33.232C236.038 33.792 235.774 34.6 235.774 35.656V43H232.414V29.704H235.774V31.36C236.222 30.784 236.79 30.336 237.478 30.016C238.182 29.68 238.95 29.512 239.782 29.512ZM247.417 36.352C247.417 34.976 247.697 33.776 248.257 32.752C248.817 31.712 249.593 30.912 250.585 30.352C251.577 29.776 252.713 29.488 253.993 29.488C255.641 29.488 257.001 29.904 258.073 30.736C259.161 31.552 259.889 32.704 260.257 34.192H256.633C256.441 33.616 256.113 33.168 255.649 32.848C255.201 32.512 254.641 32.344 253.969 32.344C253.009 32.344 252.249 32.696 251.689 33.4C251.129 34.088 250.849 35.072 250.849 36.352C250.849 37.616 251.129 38.6 251.689 39.304C252.249 39.992 253.009 40.336 253.969 40.336C255.329 40.336 256.217 39.728 256.633 38.512H260.257C259.889 39.952 259.161 41.096 258.073 41.944C256.985 42.792 255.625 43.216 253.993 43.216C252.713 43.216 251.577 42.936 250.585 42.376C249.593 41.8 248.817 41 248.257 39.976C247.697 38.936 247.417 37.728 247.417 36.352ZM270.207 29.512C271.215 29.512 272.111 29.736 272.895 30.184C273.679 30.616 274.287 31.264 274.719 32.128C275.167 32.976 275.391 34 275.391 35.2V43H272.031V35.656C272.031 34.6 271.767 33.792 271.239 33.232C270.711 32.656 269.991 32.368 269.079 32.368C268.151 32.368 267.415 32.656 266.871 33.232C266.343 33.792 266.079 34.6 266.079 35.656V43H262.719V25.24H266.079V31.36C266.511 30.784 267.087 30.336 267.807 30.016C268.527 29.68 269.327 29.512 270.207 29.512ZM290.946 36.064C290.946 36.544 290.914 36.976 290.85 37.36H281.13C281.21 38.32 281.546 39.072 282.138 39.616C282.73 40.16 283.458 40.432 284.322 40.432C285.57 40.432 286.458 39.896 286.986 38.824H290.61C290.226 40.104 289.49 41.16 288.402 41.992C287.314 42.808 285.978 43.216 284.394 43.216C283.114 43.216 281.962 42.936 280.938 42.376C279.93 41.8 279.138 40.992 278.562 39.952C278.002 38.912 277.722 37.712 277.722 36.352C277.722 34.976 278.002 33.768 278.562 32.728C279.122 31.688 279.906 30.888 280.914 30.328C281.922 29.768 283.082 29.488 284.394 29.488C285.658 29.488 286.786 29.76 287.778 30.304C288.786 30.848 289.562 31.624 290.106 32.632C290.666 33.624 290.946 34.768 290.946 36.064ZM287.466 35.104C287.45 34.24 287.138 33.552 286.53 33.04C285.922 32.512 285.178 32.248 284.298 32.248C283.466 32.248 282.762 32.504 282.186 33.016C281.626 33.512 281.282 34.208 281.154 35.104H287.466Z" fill="white"/>
<rect x="296" y="22" width="35" height="15" rx="4" fill="white" fill-opacity="0.1"/>
<path d="M304.89 31.45H301.85L301.29 33H300.33L302.85 26.07H303.9L306.41 33H305.45L304.89 31.45ZM304.63 30.71L303.37 27.19L302.11 30.71H304.63ZM313.268 26.03L310.638 33H309.588L306.958 26.03H307.928L310.118 32.04L312.308 26.03H313.268ZM318.386 31.45H315.346L314.786 33H313.826L316.346 26.07H317.396L319.906 33H318.946L318.386 31.45ZM318.126 30.71L316.866 27.19L315.606 30.71H318.126ZM323.854 29.52L325.994 33H324.964L323.294 30.28L321.704 33H320.694L322.824 29.52L320.684 26.03H321.704L323.384 28.76L324.984 26.03H326.004L323.854 29.52Z" fill="white"/>
<path d="M506.731 26.5099L508.491 30.0299C508.731 30.5199 509.371 30.9899 509.911 31.0799L513.101 31.6099C515.141 31.9499 515.621 33.4299 514.151 34.8899L511.671 37.3699C511.251 37.7899 511.021 38.5999 511.151 39.1799L511.861 42.2499C512.421 44.6799 511.131 45.6199 508.981 44.3499L505.991 42.5799C505.451 42.2599 504.561 42.2599 504.011 42.5799L501.021 44.3499C498.881 45.6199 497.581 44.6699 498.141 42.2499L498.851 39.1799C498.981 38.5999 498.751 37.7899 498.331 37.3699L495.851 34.8899C494.391 33.4299 494.861 31.9499 496.901 31.6099L500.091 31.0799C500.621 30.9899 501.261 30.5199 501.501 30.0299L503.261 26.5099C504.221 24.5999 505.781 24.5999 506.731 26.5099Z" stroke="white" stroke-opacity="0.5" stroke-width="1.5" stroke-linecap="round" stroke-linejoin="round"/>
<rect x="485.5" y="15.5" width="39" height="39" rx="19.5" stroke="white" stroke-opacity="0.15"/>
<path d="M167.536 66.848V68.032H162.688V71.792H166.624V72.976H162.688V78H161.232V66.848H167.536ZM170.751 66.16V78H169.295V66.16H170.751ZM177.056 78.144C176.235 78.144 175.488 77.9573 174.816 77.584C174.155 77.2107 173.632 76.6827 173.248 76C172.875 75.3067 172.688 74.5067 172.688 73.6C172.688 72.704 172.88 71.9147 173.264 71.232C173.659 70.5387 174.192 70.0107 174.864 69.648C175.536 69.2747 176.288 69.088 177.12 69.088C177.952 69.088 178.704 69.2747 179.376 69.648C180.048 70.0107 180.576 70.5333 180.96 71.216C181.355 71.8987 181.552 72.6933 181.552 73.6C181.552 74.5067 181.349 75.3067 180.944 76C180.549 76.6827 180.011 77.2107 179.328 77.584C178.645 77.9573 177.888 78.144 177.056 78.144ZM177.056 76.864C177.579 76.864 178.069 76.7413 178.528 76.496C178.987 76.2507 179.355 75.8827 179.632 75.392C179.92 74.9013 180.064 74.304 180.064 73.6C180.064 72.896 179.925 72.2987 179.648 71.808C179.371 71.3173 179.008 70.9547 178.56 70.72C178.112 70.4747 177.627 70.352 177.104 70.352C176.571 70.352 176.08 70.4747 175.632 70.72C175.195 70.9547 174.843 71.3173 174.576 71.808C174.309 72.2987 174.176 72.896 174.176 73.6C174.176 74.3147 174.304 74.9173 174.56 75.408C174.827 75.8987 175.179 76.2667 175.616 76.512C176.053 76.7467 176.533 76.864 177.056 76.864ZM187.29 78.144C186.469 78.144 185.722 77.9573 185.05 77.584C184.389 77.2107 183.866 76.6827 183.482 76C183.109 75.3067 182.922 74.5067 182.922 73.6C182.922 72.704 183.114 71.9147 183.498 71.232C183.893 70.5387 184.426 70.0107 185.098 69.648C185.77 69.2747 186.522 69.088 187.354 69.088C188.186 69.088 188.938 69.2747 189.61 69.648C190.282 70.0107 190.81 70.5333 191.194 71.216C191.589 71.8987 191.786 72.6933 191.786 73.6C191.786 74.5067 191.584 75.3067 191.178 76C190.784 76.6827 190.245 77.2107 189.562 77.584C188.88 77.9573 188.122 78.144 187.29 78.144ZM187.29 76.864C187.813 76.864 188.304 76.7413 188.762 76.496C189.221 76.2507 189.589 75.8827 189.866 75.392C190.154 74.9013 190.298 74.304 190.298 73.6C190.298 72.896 190.16 72.2987 189.882 71.808C189.605 71.3173 189.242 70.9547 188.794 70.72C188.346 70.4747 187.861 70.352 187.338 70.352C186.805 70.352 186.314 70.4747 185.866 70.72C185.429 70.9547 185.077 71.3173 184.81 71.808C184.544 72.2987 184.41 72.896 184.41 73.6C184.41 74.3147 184.538 74.9173 184.794 75.408C185.061 75.8987 185.413 76.2667 185.85 76.512C186.288 76.7467 186.768 76.864 187.29 76.864ZM195.157 70.656C195.413 70.1547 195.775 69.7653 196.245 69.488C196.725 69.2107 197.306 69.072 197.989 69.072V70.576H197.605C195.973 70.576 195.157 71.4613 195.157 73.232V78H193.701V69.232H195.157V70.656ZM205.391 70.848C205.679 70.3467 206.106 69.9307 206.671 69.6C207.247 69.2587 207.914 69.088 208.671 69.088C209.45 69.088 210.154 69.2747 210.783 69.648C211.423 70.0213 211.924 70.5493 212.287 71.232C212.65 71.904 212.831 72.688 212.831 73.584C212.831 74.4693 212.65 75.2587 212.287 75.952C211.924 76.6453 211.423 77.184 210.783 77.568C210.154 77.952 209.45 78.144 208.671 78.144C207.924 78.144 207.263 77.9787 206.687 77.648C206.122 77.3067 205.69 76.8853 205.391 76.384V82.16H203.935V69.232H205.391V70.848ZM211.343 73.584C211.343 72.9227 211.21 72.3467 210.943 71.856C210.676 71.3653 210.314 70.992 209.855 70.736C209.407 70.48 208.911 70.352 208.367 70.352C207.834 70.352 207.338 70.4853 206.879 70.752C206.431 71.008 206.068 71.3867 205.791 71.888C205.524 72.3787 205.391 72.9493 205.391 73.6C205.391 74.2613 205.524 74.8427 205.791 75.344C206.068 75.8347 206.431 76.2133 206.879 76.48C207.338 76.736 207.834 76.864 208.367 76.864C208.911 76.864 209.407 76.736 209.855 76.48C210.314 76.2133 210.676 75.8347 210.943 75.344C211.21 74.8427 211.343 74.256 211.343 73.584ZM216.204 70.656C216.46 70.1547 216.822 69.7653 217.292 69.488C217.772 69.2107 218.353 69.072 219.036 69.072V70.576H218.652C217.02 70.576 216.204 71.4613 216.204 73.232V78H214.748V69.232H216.204V70.656ZM221.468 67.808C221.191 67.808 220.956 67.712 220.764 67.52C220.572 67.328 220.476 67.0933 220.476 66.816C220.476 66.5387 220.572 66.304 220.764 66.112C220.956 65.92 221.191 65.824 221.468 65.824C221.735 65.824 221.959 65.92 222.14 66.112C222.332 66.304 222.428 66.5387 222.428 66.816C222.428 67.0933 222.332 67.328 222.14 67.52C221.959 67.712 221.735 67.808 221.468 67.808ZM222.172 69.232V78H220.716V69.232H222.172ZM224.11 73.6C224.11 72.6933 224.291 71.904 224.654 71.232C225.017 70.5493 225.518 70.0213 226.158 69.648C226.809 69.2747 227.55 69.088 228.382 69.088C229.459 69.088 230.345 69.3493 231.038 69.872C231.742 70.3947 232.206 71.12 232.43 72.048H230.862C230.713 71.5147 230.419 71.0933 229.982 70.784C229.555 70.4747 229.022 70.32 228.382 70.32C227.55 70.32 226.878 70.608 226.366 71.184C225.854 71.7493 225.598 72.5547 225.598 73.6C225.598 74.656 225.854 75.472 226.366 76.048C226.878 76.624 227.55 76.912 228.382 76.912C229.022 76.912 229.555 76.7627 229.982 76.464C230.409 76.1653 230.702 75.7387 230.862 75.184H232.43C232.195 76.08 231.726 76.8 231.022 77.344C230.318 77.8773 229.438 78.144 228.382 78.144C227.55 78.144 226.809 77.9573 226.158 77.584C225.518 77.2107 225.017 76.6827 224.654 76C224.291 75.3173 224.11 74.5173 224.11 73.6ZM242.373 73.28C242.373 73.5573 242.357 73.8507 242.325 74.16H235.317C235.37 75.024 235.663 75.7013 236.197 76.192C236.741 76.672 237.397 76.912 238.165 76.912C238.794 76.912 239.317 76.768 239.733 76.48C240.159 76.1813 240.458 75.7867 240.629 75.296H242.197C241.962 76.1387 241.493 76.8267 240.789 77.36C240.085 77.8827 239.21 78.144 238.165 78.144C237.333 78.144 236.586 77.9573 235.925 77.584C235.274 77.2107 234.762 76.6827 234.389 76C234.015 75.3067 233.829 74.5067 233.829 73.6C233.829 72.6933 234.01 71.8987 234.373 71.216C234.735 70.5333 235.242 70.0107 235.893 69.648C236.554 69.2747 237.311 69.088 238.165 69.088C238.997 69.088 239.733 69.2693 240.373 69.632C241.013 69.9947 241.503 70.496 241.845 71.136C242.197 71.7653 242.373 72.48 242.373 73.28ZM240.869 72.976C240.869 72.4213 240.746 71.9467 240.501 71.552C240.255 71.1467 239.919 70.8427 239.493 70.64C239.077 70.4267 238.613 70.32 238.101 70.32C237.365 70.32 236.735 70.5547 236.213 71.024C235.701 71.4933 235.407 72.144 235.333 72.976H240.869ZM244.759 78.096C244.481 78.096 244.247 78 244.055 77.808C243.863 77.616 243.767 77.3813 243.767 77.104C243.767 76.8267 243.863 76.592 244.055 76.4C244.247 76.208 244.481 76.112 244.759 76.112C245.025 76.112 245.249 76.208 245.431 76.4C245.623 76.592 245.719 76.8267 245.719 77.104C245.719 77.3813 245.623 77.616 245.431 77.808C245.249 78 245.025 78.096 244.759 78.096ZM244.759 71.248C244.481 71.248 244.247 71.152 244.055 70.96C243.863 70.768 243.767 70.5333 243.767 70.256C243.767 69.9787 243.863 69.744 244.055 69.552C244.247 69.36 244.481 69.264 244.759 69.264C245.025 69.264 245.249 69.36 245.431 69.552C245.623 69.744 245.719 69.9787 245.719 70.256C245.719 70.5333 245.623 70.768 245.431 70.96C245.249 71.152 245.025 71.248 244.759 71.248Z" fill="white" fill-opacity="0.5"/>
<path d="M263.432 74.944C263.432 75.456 263.304 75.9467 263.048 76.416C262.792 76.8747 262.413 77.2587 261.912 77.568C261.421 77.8773 260.829 78.0533 260.136 78.096V79.392H259.272V78.096C258.301 78.0107 257.512 77.7013 256.904 77.168C256.296 76.624 255.987 75.936 255.976 75.104H257.528C257.571 75.552 257.736 75.9413 258.024 76.272C258.323 76.6027 258.739 76.8107 259.272 76.896V72.896C258.557 72.7147 257.981 72.528 257.544 72.336C257.107 72.144 256.733 71.8453 256.424 71.44C256.115 71.0347 255.96 70.4907 255.96 69.808C255.96 68.944 256.259 68.2293 256.856 67.664C257.464 67.0987 258.269 66.784 259.272 66.72V65.392H260.136V66.72C261.043 66.7947 261.773 67.088 262.328 67.6C262.883 68.1013 263.203 68.7573 263.288 69.568H261.736C261.683 69.1947 261.517 68.8587 261.24 68.56C260.963 68.2507 260.595 68.048 260.136 67.952V71.856C260.84 72.0373 261.411 72.224 261.848 72.416C262.296 72.5973 262.669 72.8907 262.968 73.296C263.277 73.7013 263.432 74.2507 263.432 74.944ZM257.448 69.728C257.448 70.2507 257.603 70.6507 257.912 70.928C258.221 71.2053 258.675 71.4347 259.272 71.616V67.92C258.717 67.9733 258.275 68.1547 257.944 68.464C257.613 68.7627 257.448 69.184 257.448 69.728ZM260.136 76.912C260.712 76.848 261.16 76.64 261.48 76.288C261.811 75.936 261.976 75.5147 261.976 75.024C261.976 74.5013 261.816 74.1013 261.496 73.824C261.176 73.536 260.723 73.3067 260.136 73.136V76.912ZM265.561 67.76V66.432H268.569V78H267.097V67.76H265.561ZM278.446 67.696H272.83V71.344C273.075 71.0027 273.438 70.7253 273.918 70.512C274.398 70.288 274.915 70.176 275.47 70.176C276.355 70.176 277.075 70.3627 277.63 70.736C278.185 71.0987 278.579 71.5733 278.814 72.16C279.059 72.736 279.182 73.3493 279.182 74C279.182 74.768 279.038 75.456 278.75 76.064C278.462 76.672 278.019 77.152 277.422 77.504C276.835 77.856 276.105 78.032 275.23 78.032C274.11 78.032 273.203 77.744 272.51 77.168C271.817 76.592 271.395 75.824 271.246 74.864H272.67C272.809 75.472 273.102 75.9467 273.55 76.288C273.998 76.6293 274.563 76.8 275.246 76.8C276.089 76.8 276.723 76.5493 277.15 76.048C277.577 75.536 277.79 74.864 277.79 74.032C277.79 73.2 277.577 72.56 277.15 72.112C276.723 71.6533 276.094 71.424 275.262 71.424C274.697 71.424 274.201 71.5627 273.774 71.84C273.358 72.1067 273.054 72.4747 272.862 72.944H271.486V66.416H278.446V67.696ZM281.821 78.096C281.544 78.096 281.309 78 281.117 77.808C280.925 77.616 280.829 77.3813 280.829 77.104C280.829 76.8267 280.925 76.592 281.117 76.4C281.309 76.208 281.544 76.112 281.821 76.112C282.088 76.112 282.312 76.208 282.493 76.4C282.685 76.592 282.781 76.8267 282.781 77.104C282.781 77.3813 282.685 77.616 282.493 77.808C282.312 78 282.088 78.096 281.821 78.096ZM291.596 67.568L287.148 78H285.676L290.188 67.712H284.012V66.464H291.596V67.568ZM293.211 72.096C293.211 70.2613 293.509 68.832 294.107 67.808C294.704 66.7733 295.749 66.256 297.243 66.256C298.725 66.256 299.765 66.7733 300.363 67.808C300.96 68.832 301.259 70.2613 301.259 72.096C301.259 73.9627 300.96 75.4133 300.363 76.448C299.765 77.4827 298.725 78 297.243 78C295.749 78 294.704 77.4827 294.107 76.448C293.509 75.4133 293.211 73.9627 293.211 72.096ZM299.819 72.096C299.819 71.168 299.755 70.384 299.627 69.744C299.509 69.0933 299.259 68.5707 298.875 68.176C298.501 67.7813 297.957 67.584 297.243 67.584C296.517 67.584 295.963 67.7813 295.579 68.176C295.205 68.5707 294.955 69.0933 294.827 69.744C294.709 70.384 294.651 71.168 294.651 72.096C294.651 73.056 294.709 73.8613 294.827 74.512C294.955 75.1627 295.205 75.6853 295.579 76.08C295.963 76.4747 296.517 76.672 297.243 76.672C297.957 76.672 298.501 76.4747 298.875 76.08C299.259 75.6853 299.509 75.1627 299.627 74.512C299.755 73.8613 299.819 73.056 299.819 72.096Z" fill="white"/>
<path d="M483 76L477.804 70H488.196L483 76Z" fill="#FF2828"/>
<path d="M497.608 67.76V66.432H500.616V78H499.144V67.76H497.608ZM503.821 78.096C503.544 78.096 503.309 78 503.117 77.808C502.925 77.616 502.829 77.3813 502.829 77.104C502.829 76.8267 502.925 76.592 503.117 76.4C503.309 76.208 503.544 76.112 503.821 76.112C504.088 76.112 504.312 76.208 504.493 76.4C504.685 76.592 504.781 76.8267 504.781 77.104C504.781 77.3813 504.685 77.616 504.493 77.808C504.312 78 504.088 78.096 503.821 78.096ZM513.596 67.568L509.148 78H507.676L512.188 67.712H506.012V66.464H513.596V67.568ZM517.083 74.896C517.189 75.504 517.435 75.9733 517.819 76.304C518.213 76.6347 518.741 76.8 519.403 76.8C520.288 76.8 520.939 76.4533 521.355 75.76C521.781 75.0667 521.984 73.8987 521.963 72.256C521.739 72.736 521.365 73.1147 520.843 73.392C520.32 73.6587 519.739 73.792 519.099 73.792C518.384 73.792 517.744 73.648 517.179 73.36C516.624 73.0613 516.187 72.6293 515.867 72.064C515.547 71.4987 515.387 70.816 515.387 70.016C515.387 68.8747 515.717 67.9573 516.379 67.264C517.04 66.56 517.979 66.208 519.195 66.208C520.688 66.208 521.733 66.6933 522.331 67.664C522.939 68.6347 523.243 70.08 523.243 72C523.243 73.344 523.12 74.4533 522.875 75.328C522.64 76.2027 522.235 76.8693 521.659 77.328C521.093 77.7867 520.315 78.016 519.323 78.016C518.235 78.016 517.387 77.7227 516.779 77.136C516.171 76.5493 515.824 75.8027 515.739 74.896H517.083ZM519.339 72.56C520.053 72.56 520.64 72.3413 521.099 71.904C521.557 71.456 521.787 70.8533 521.787 70.096C521.787 69.296 521.563 68.6507 521.115 68.16C520.667 67.6693 520.037 67.424 519.227 67.424C518.48 67.424 517.883 67.6587 517.435 68.128C516.997 68.5973 516.779 69.216 516.779 69.984C516.779 70.7627 516.997 71.3867 517.435 71.856C517.872 72.3253 518.507 72.56 519.339 72.56Z" fill="#FF2828"/>
<rect x="160" y="106" width="107" height="34" rx="17" fill="black" fill-opacity="0.3"/>
<path d="M183.104 129L180.448 124.44H178.688V129H177.232V117.848H180.832C181.675 117.848 182.384 117.992 182.96 118.28C183.547 118.568 183.984 118.957 184.272 119.448C184.56 119.939 184.704 120.499 184.704 121.128C184.704 121.896 184.48 122.573 184.032 123.16C183.595 123.747 182.933 124.136 182.048 124.328L184.848 129H183.104ZM178.688 123.272H180.832C181.621 123.272 182.213 123.08 182.608 122.696C183.003 122.301 183.2 121.779 183.2 121.128C183.2 120.467 183.003 119.955 182.608 119.592C182.224 119.229 181.632 119.048 180.832 119.048H178.688V123.272ZM186.422 124.584C186.422 123.688 186.604 122.904 186.966 122.232C187.329 121.549 187.825 121.021 188.454 120.648C189.094 120.275 189.804 120.088 190.582 120.088C191.35 120.088 192.017 120.253 192.582 120.584C193.148 120.915 193.569 121.331 193.846 121.832V120.232H195.318V129H193.846V127.368C193.558 127.88 193.126 128.307 192.55 128.648C191.985 128.979 191.324 129.144 190.566 129.144C189.788 129.144 189.084 128.952 188.454 128.568C187.825 128.184 187.329 127.645 186.966 126.952C186.604 126.259 186.422 125.469 186.422 124.584ZM193.846 124.6C193.846 123.939 193.713 123.363 193.446 122.872C193.18 122.381 192.817 122.008 192.358 121.752C191.91 121.485 191.414 121.352 190.87 121.352C190.326 121.352 189.83 121.48 189.382 121.736C188.934 121.992 188.577 122.365 188.31 122.856C188.044 123.347 187.91 123.923 187.91 124.584C187.91 125.256 188.044 125.843 188.31 126.344C188.577 126.835 188.934 127.213 189.382 127.48C189.83 127.736 190.326 127.864 190.87 127.864C191.414 127.864 191.91 127.736 192.358 127.48C192.817 127.213 193.18 126.835 193.446 126.344C193.713 125.843 193.846 125.261 193.846 124.6ZM202.051 120.072C203.118 120.072 203.982 120.397 204.643 121.048C205.304 121.688 205.635 122.616 205.635 123.832V129H204.195V124.04C204.195 123.165 203.976 122.499 203.539 122.04C203.102 121.571 202.504 121.336 201.747 121.336C200.979 121.336 200.366 121.576 199.907 122.056C199.459 122.536 199.235 123.235 199.235 124.152V129H197.779V120.232H199.235V121.48C199.523 121.032 199.912 120.685 200.403 120.44C200.904 120.195 201.454 120.072 202.051 120.072ZM212.909 129L209.469 125.128V129H208.013V117.16H209.469V124.12L212.845 120.232H214.877L210.749 124.6L214.893 129H212.909ZM220.801 129V117.576H222.417L227.617 126.984H227.681C227.671 126.707 227.655 126.387 227.633 126.024C227.612 125.661 227.596 125.299 227.585 124.936C227.575 124.563 227.569 124.243 227.569 123.976V117.576H228.833V129H227.265L222.001 119.56H221.937C221.959 119.837 221.975 120.168 221.985 120.552C222.007 120.925 222.023 121.299 222.033 121.672C222.055 122.045 222.065 122.376 222.065 122.664V129H220.801ZM230.353 129V127.896H234.465V129H230.353ZM232.401 126.856C231.943 126.856 231.532 126.755 231.169 126.552C230.817 126.339 230.54 126.029 230.337 125.624C230.135 125.219 230.033 124.723 230.033 124.136C230.033 123.261 230.247 122.595 230.673 122.136C231.111 121.667 231.703 121.432 232.449 121.432C232.908 121.432 233.313 121.539 233.665 121.752C234.028 121.955 234.311 122.259 234.513 122.664C234.727 123.059 234.833 123.549 234.833 124.136C234.833 125.011 234.615 125.683 234.177 126.152C233.74 126.621 233.148 126.856 232.401 126.856ZM232.433 125.928C232.903 125.928 233.239 125.779 233.441 125.48C233.644 125.171 233.745 124.723 233.745 124.136C233.745 123.539 233.644 123.101 233.441 122.824C233.239 122.536 232.903 122.392 232.433 122.392C231.975 122.392 231.639 122.536 231.425 122.824C231.212 123.101 231.105 123.539 231.105 124.136C231.105 124.723 231.207 125.171 231.409 125.48C231.623 125.779 231.964 125.928 232.433 125.928ZM236.202 118.76V117.432H239.21V129H237.738V118.76H236.202ZM248.159 120.184C247.924 119 247.193 118.408 245.967 118.408C245.017 118.408 244.308 118.776 243.839 119.512C243.369 120.237 243.14 121.437 243.151 123.112C243.396 122.557 243.801 122.125 244.367 121.816C244.943 121.496 245.583 121.336 246.287 121.336C247.385 121.336 248.26 121.677 248.911 122.36C249.572 123.043 249.903 123.987 249.903 125.192C249.903 125.917 249.759 126.568 249.471 127.144C249.193 127.72 248.767 128.179 248.191 128.52C247.625 128.861 246.937 129.032 246.127 129.032C245.028 129.032 244.169 128.787 243.551 128.296C242.932 127.805 242.5 127.128 242.255 126.264C242.009 125.4 241.887 124.333 241.887 123.064C241.887 119.149 243.252 117.192 245.983 117.192C247.028 117.192 247.849 117.475 248.447 118.04C249.044 118.605 249.396 119.32 249.503 120.184H248.159ZM245.983 122.568C245.524 122.568 245.092 122.664 244.687 122.856C244.281 123.037 243.951 123.32 243.695 123.704C243.449 124.077 243.327 124.536 243.327 125.08C243.327 125.891 243.561 126.552 244.031 127.064C244.5 127.565 245.172 127.816 246.047 127.816C246.793 127.816 247.385 127.587 247.823 127.128C248.271 126.659 248.495 126.029 248.495 125.24C248.495 124.408 248.281 123.757 247.855 123.288C247.428 122.808 246.804 122.568 245.983 122.568Z" fill="white"/>
<rect x="271" y="106" width="69" height="34" rx="17" fill="black" fill-opacity="0.3"/>
<path d="M287.688 123.416C287.688 122.328 287.933 121.352 288.424 120.488C288.915 119.613 289.581 118.931 290.424 118.44C291.277 117.949 292.221 117.704 293.256 117.704C294.472 117.704 295.533 117.997 296.44 118.584C297.347 119.171 298.008 120.003 298.424 121.08H296.68C296.371 120.408 295.923 119.891 295.336 119.528C294.76 119.165 294.067 118.984 293.256 118.984C292.477 118.984 291.779 119.165 291.16 119.528C290.541 119.891 290.056 120.408 289.704 121.08C289.352 121.741 289.176 122.52 289.176 123.416C289.176 124.301 289.352 125.08 289.704 125.752C290.056 126.413 290.541 126.925 291.16 127.288C291.779 127.651 292.477 127.832 293.256 127.832C294.067 127.832 294.76 127.656 295.336 127.304C295.923 126.941 296.371 126.424 296.68 125.752H298.424C298.008 126.819 297.347 127.645 296.44 128.232C295.533 128.808 294.472 129.096 293.256 129.096C292.221 129.096 291.277 128.856 290.424 128.376C289.581 127.885 288.915 127.208 288.424 126.344C287.933 125.48 287.688 124.504 287.688 123.416ZM304.415 129.144C303.594 129.144 302.847 128.957 302.175 128.584C301.514 128.211 300.991 127.683 300.607 127C300.234 126.307 300.047 125.507 300.047 124.6C300.047 123.704 300.239 122.915 300.623 122.232C301.018 121.539 301.551 121.011 302.223 120.648C302.895 120.275 303.647 120.088 304.479 120.088C305.311 120.088 306.063 120.275 306.735 120.648C307.407 121.011 307.935 121.533 308.319 122.216C308.714 122.899 308.911 123.693 308.911 124.6C308.911 125.507 308.709 126.307 308.303 127C307.909 127.683 307.37 128.211 306.687 128.584C306.005 128.957 305.247 129.144 304.415 129.144ZM304.415 127.864C304.938 127.864 305.429 127.741 305.887 127.496C306.346 127.251 306.714 126.883 306.991 126.392C307.279 125.901 307.423 125.304 307.423 124.6C307.423 123.896 307.285 123.299 307.007 122.808C306.73 122.317 306.367 121.955 305.919 121.72C305.471 121.475 304.986 121.352 304.463 121.352C303.93 121.352 303.439 121.475 302.991 121.72C302.554 121.955 302.202 122.317 301.935 122.808C301.669 123.299 301.535 123.896 301.535 124.6C301.535 125.315 301.663 125.917 301.919 126.408C302.186 126.899 302.538 127.267 302.975 127.512C303.413 127.747 303.893 127.864 304.415 127.864ZM311.578 118.808C311.3 118.808 311.066 118.712 310.874 118.52C310.682 118.328 310.586 118.093 310.586 117.816C310.586 117.539 310.682 117.304 310.874 117.112C311.066 116.92 311.3 116.824 311.578 116.824C311.844 116.824 312.068 116.92 312.25 117.112C312.442 117.304 312.538 117.539 312.538 117.816C312.538 118.093 312.442 118.328 312.25 118.52C312.068 118.712 311.844 118.808 311.578 118.808ZM312.282 120.232V129H310.826V120.232H312.282ZM319.035 120.072C320.102 120.072 320.966 120.397 321.627 121.048C322.289 121.688 322.619 122.616 322.619 123.832V129H321.179V124.04C321.179 123.165 320.961 122.499 320.523 122.04C320.086 121.571 319.489 121.336 318.731 121.336C317.963 121.336 317.35 121.576 316.891 122.056C316.443 122.536 316.219 123.235 316.219 124.152V129H314.763V120.232H316.219V121.48C316.507 121.032 316.897 120.685 317.387 120.44C317.889 120.195 318.438 120.072 319.035 120.072Z" fill="white"/>
<rect x="344" y="106" width="169" height="34" rx="17" fill="black" fill-opacity="0.3"/>
<path d="M362.864 125.896C362.971 126.504 363.216 126.973 363.6 127.304C363.995 127.635 364.523 127.8 365.184 127.8C366.069 127.8 366.72 127.453 367.136 126.76C367.563 126.067 367.765 124.899 367.744 123.256C367.52 123.736 367.147 124.115 366.624 124.392C366.101 124.659 365.52 124.792 364.88 124.792C364.165 124.792 363.525 124.648 362.96 124.36C362.405 124.061 361.968 123.629 361.648 123.064C361.328 122.499 361.168 121.816 361.168 121.016C361.168 119.875 361.499 118.957 362.16 118.264C362.821 117.56 363.76 117.208 364.976 117.208C366.469 117.208 367.515 117.693 368.112 118.664C368.72 119.635 369.024 121.08 369.024 123C369.024 124.344 368.901 125.453 368.656 126.328C368.421 127.203 368.016 127.869 367.44 128.328C366.875 128.787 366.096 129.016 365.104 129.016C364.016 129.016 363.168 128.723 362.56 128.136C361.952 127.549 361.605 126.803 361.52 125.896H362.864ZM365.12 123.56C365.835 123.56 366.421 123.341 366.88 122.904C367.339 122.456 367.568 121.853 367.568 121.096C367.568 120.296 367.344 119.651 366.896 119.16C366.448 118.669 365.819 118.424 365.008 118.424C364.261 118.424 363.664 118.659 363.216 119.128C362.779 119.597 362.56 120.216 362.56 120.984C362.56 121.763 362.779 122.387 363.216 122.856C363.653 123.325 364.288 123.56 365.12 123.56ZM370.894 127.832C372.249 126.744 373.31 125.853 374.078 125.16C374.846 124.456 375.491 123.725 376.014 122.968C376.547 122.2 376.814 121.448 376.814 120.712C376.814 120.019 376.643 119.475 376.302 119.08C375.971 118.675 375.433 118.472 374.686 118.472C373.961 118.472 373.395 118.701 372.99 119.16C372.595 119.608 372.382 120.211 372.35 120.968H370.942C370.985 119.773 371.347 118.851 372.03 118.2C372.713 117.549 373.593 117.224 374.67 117.224C375.769 117.224 376.638 117.528 377.278 118.136C377.929 118.744 378.254 119.581 378.254 120.648C378.254 121.533 377.987 122.397 377.454 123.24C376.931 124.072 376.334 124.808 375.662 125.448C374.99 126.077 374.131 126.813 373.086 127.656H378.59V128.872H370.894V127.832ZM380.097 127.832C381.452 126.744 382.513 125.853 383.281 125.16C384.049 124.456 384.695 123.725 385.217 122.968C385.751 122.2 386.017 121.448 386.017 120.712C386.017 120.019 385.847 119.475 385.505 119.08C385.175 118.675 384.636 118.472 383.889 118.472C383.164 118.472 382.599 118.701 382.193 119.16C381.799 119.608 381.585 120.211 381.553 120.968H380.145C380.188 119.773 380.551 118.851 381.233 118.2C381.916 117.549 382.796 117.224 383.873 117.224C384.972 117.224 385.841 117.528 386.481 118.136C387.132 118.744 387.457 119.581 387.457 120.648C387.457 121.533 387.191 122.397 386.657 123.24C386.135 124.072 385.537 124.808 384.865 125.448C384.193 126.077 383.335 126.813 382.289 127.656H387.793V128.872H380.097V127.832ZM391.22 126.984L389.428 131.288H388.452L389.62 126.984H391.22ZM392.472 127.832C393.827 126.744 394.888 125.853 395.656 125.16C396.424 124.456 397.07 123.725 397.592 122.968C398.126 122.2 398.392 121.448 398.392 120.712C398.392 120.019 398.222 119.475 397.88 119.08C397.55 118.675 397.011 118.472 396.264 118.472C395.539 118.472 394.974 118.701 394.568 119.16C394.174 119.608 393.96 120.211 393.928 120.968H392.52C392.563 119.773 392.926 118.851 393.608 118.2C394.291 117.549 395.171 117.224 396.248 117.224C397.347 117.224 398.216 117.528 398.856 118.136C399.507 118.744 399.832 119.581 399.832 120.648C399.832 121.533 399.566 122.397 399.032 123.24C398.51 124.072 397.912 124.808 397.24 125.448C396.568 126.077 395.71 126.813 394.664 127.656H400.168V128.872H392.472V127.832ZM401.851 123.096C401.851 121.261 402.15 119.832 402.747 118.808C403.345 117.773 404.39 117.256 405.883 117.256C407.366 117.256 408.406 117.773 409.003 118.808C409.601 119.832 409.899 121.261 409.899 123.096C409.899 124.963 409.601 126.413 409.003 127.448C408.406 128.483 407.366 129 405.883 129C404.39 129 403.345 128.483 402.747 127.448C402.15 126.413 401.851 124.963 401.851 123.096ZM408.459 123.096C408.459 122.168 408.395 121.384 408.267 120.744C408.15 120.093 407.899 119.571 407.515 119.176C407.142 118.781 406.598 118.584 405.883 118.584C405.158 118.584 404.603 118.781 404.219 119.176C403.846 119.571 403.595 120.093 403.467 120.744C403.35 121.384 403.291 122.168 403.291 123.096C403.291 124.056 403.35 124.861 403.467 125.512C403.595 126.163 403.846 126.685 404.219 127.08C404.603 127.475 405.158 127.672 405.883 127.672C406.598 127.672 407.142 127.475 407.515 127.08C407.899 126.685 408.15 126.163 408.267 125.512C408.395 124.861 408.459 124.056 408.459 123.096ZM411.866 120.344C411.941 119.363 412.32 118.595 413.002 118.04C413.685 117.485 414.57 117.208 415.658 117.208C416.384 117.208 417.008 117.341 417.53 117.608C418.064 117.864 418.464 118.216 418.73 118.664C419.008 119.112 419.146 119.619 419.146 120.184C419.146 120.845 418.954 121.416 418.57 121.896C418.197 122.376 417.706 122.685 417.098 122.824V122.904C417.792 123.075 418.341 123.411 418.746 123.912C419.152 124.413 419.354 125.069 419.354 125.88C419.354 126.488 419.216 127.037 418.938 127.528C418.661 128.008 418.245 128.387 417.69 128.664C417.136 128.941 416.469 129.08 415.69 129.08C414.56 129.08 413.632 128.787 412.906 128.2C412.181 127.603 411.776 126.76 411.69 125.672H413.098C413.173 126.312 413.434 126.835 413.882 127.24C414.33 127.645 414.928 127.848 415.674 127.848C416.421 127.848 416.986 127.656 417.37 127.272C417.765 126.877 417.962 126.371 417.962 125.752C417.962 124.952 417.696 124.376 417.162 124.024C416.629 123.672 415.824 123.496 414.746 123.496H414.378V122.28H414.762C415.744 122.269 416.485 122.109 416.986 121.8C417.488 121.48 417.738 120.989 417.738 120.328C417.738 119.763 417.552 119.309 417.178 118.968C416.816 118.627 416.293 118.456 415.61 118.456C414.949 118.456 414.416 118.627 414.01 118.968C413.605 119.309 413.365 119.768 413.29 120.344H411.866ZM437.506 120.232L434.77 129H433.266L431.154 122.04L429.042 129H427.538L424.786 120.232H426.274L428.29 127.592L430.466 120.232H431.954L434.082 127.608L436.066 120.232H437.506ZM438.407 124.584C438.407 123.688 438.588 122.904 438.951 122.232C439.313 121.549 439.809 121.021 440.439 120.648C441.079 120.275 441.788 120.088 442.567 120.088C443.335 120.088 444.001 120.253 444.567 120.584C445.132 120.915 445.553 121.331 445.831 121.832V120.232H447.303V129H445.831V127.368C445.543 127.88 445.111 128.307 444.535 128.648C443.969 128.979 443.308 129.144 442.551 129.144C441.772 129.144 441.068 128.952 440.439 128.568C439.809 128.184 439.313 127.645 438.951 126.952C438.588 126.259 438.407 125.469 438.407 124.584ZM445.831 124.6C445.831 123.939 445.697 123.363 445.431 122.872C445.164 122.381 444.801 122.008 444.343 121.752C443.895 121.485 443.399 121.352 442.855 121.352C442.311 121.352 441.815 121.48 441.367 121.736C440.919 121.992 440.561 122.365 440.295 122.856C440.028 123.347 439.895 123.923 439.895 124.584C439.895 125.256 440.028 125.843 440.295 126.344C440.561 126.835 440.919 127.213 441.367 127.48C441.815 127.736 442.311 127.864 442.855 127.864C443.399 127.864 443.895 127.736 444.343 127.48C444.801 127.213 445.164 126.835 445.431 126.344C445.697 125.843 445.831 125.261 445.831 124.6ZM451.539 121.432V126.6C451.539 127.027 451.63 127.331 451.811 127.512C451.993 127.683 452.307 127.768 452.755 127.768H453.827V129H452.515C451.705 129 451.097 128.813 450.691 128.44C450.286 128.067 450.083 127.453 450.083 126.6V121.432H448.947V120.232H450.083V118.024H451.539V120.232H453.827V121.432H451.539ZM455.047 124.6C455.047 123.693 455.229 122.904 455.591 122.232C455.954 121.549 456.455 121.021 457.095 120.648C457.746 120.275 458.487 120.088 459.319 120.088C460.397 120.088 461.282 120.349 461.975 120.872C462.679 121.395 463.143 122.12 463.367 123.048H461.799C461.65 122.515 461.357 122.093 460.919 121.784C460.493 121.475 459.959 121.32 459.319 121.32C458.487 121.32 457.815 121.608 457.303 122.184C456.791 122.749 456.535 123.555 456.535 124.6C456.535 125.656 456.791 126.472 457.303 127.048C457.815 127.624 458.487 127.912 459.319 127.912C459.959 127.912 460.493 127.763 460.919 127.464C461.346 127.165 461.639 126.739 461.799 126.184H463.367C463.133 127.08 462.663 127.8 461.959 128.344C461.255 128.877 460.375 129.144 459.319 129.144C458.487 129.144 457.746 128.957 457.095 128.584C456.455 128.211 455.954 127.683 455.591 127C455.229 126.317 455.047 125.517 455.047 124.6ZM469.662 120.072C470.323 120.072 470.921 120.216 471.454 120.504C471.987 120.781 472.403 121.203 472.702 121.768C473.011 122.333 473.166 123.021 473.166 123.832V129H471.726V124.04C471.726 123.165 471.507 122.499 471.07 122.04C470.633 121.571 470.035 121.336 469.278 121.336C468.51 121.336 467.897 121.576 467.438 122.056C466.99 122.536 466.766 123.235 466.766 124.152V129H465.31V117.16H466.766V121.48C467.054 121.032 467.449 120.685 467.95 120.44C468.462 120.195 469.033 120.072 469.662 120.072ZM477.001 117.16V129H475.545V117.16H477.001ZM480.234 118.808C479.957 118.808 479.722 118.712 479.53 118.52C479.338 118.328 479.242 118.093 479.242 117.816C479.242 117.539 479.338 117.304 479.53 117.112C479.722 116.92 479.957 116.824 480.234 116.824C480.501 116.824 480.725 116.92 480.906 117.112C481.098 117.304 481.194 117.539 481.194 117.816C481.194 118.093 481.098 118.328 480.906 118.52C480.725 118.712 480.501 118.808 480.234 118.808ZM480.938 120.232V129H479.482V120.232H480.938ZM486.524 129.144C485.852 129.144 485.249 129.032 484.716 128.808C484.182 128.573 483.761 128.253 483.452 127.848C483.142 127.432 482.972 126.957 482.94 126.424H484.444C484.486 126.861 484.689 127.219 485.052 127.496C485.425 127.773 485.91 127.912 486.508 127.912C487.062 127.912 487.5 127.789 487.82 127.544C488.14 127.299 488.3 126.989 488.3 126.616C488.3 126.232 488.129 125.949 487.788 125.768C487.446 125.576 486.918 125.389 486.204 125.208C485.553 125.037 485.02 124.867 484.604 124.696C484.198 124.515 483.846 124.253 483.548 123.912C483.26 123.56 483.116 123.101 483.116 122.536C483.116 122.088 483.249 121.677 483.516 121.304C483.782 120.931 484.161 120.637 484.652 120.424C485.142 120.2 485.702 120.088 486.332 120.088C487.302 120.088 488.086 120.333 488.684 120.824C489.281 121.315 489.601 121.987 489.644 122.84H488.188C488.156 122.381 487.969 122.013 487.628 121.736C487.297 121.459 486.849 121.32 486.284 121.32C485.761 121.32 485.345 121.432 485.036 121.656C484.726 121.88 484.572 122.173 484.572 122.536C484.572 122.824 484.662 123.064 484.844 123.256C485.036 123.437 485.27 123.587 485.548 123.704C485.836 123.811 486.23 123.933 486.732 124.072C487.361 124.243 487.873 124.413 488.268 124.584C488.662 124.744 488.998 124.989 489.276 125.32C489.564 125.651 489.713 126.083 489.724 126.616C489.724 127.096 489.59 127.528 489.324 127.912C489.057 128.296 488.678 128.6 488.188 128.824C487.708 129.037 487.153 129.144 486.524 129.144ZM493.555 121.432V126.6C493.555 127.027 493.646 127.331 493.827 127.512C494.008 127.683 494.323 127.768 494.771 127.768H495.843V129H494.531C493.72 129 493.112 128.813 492.707 128.44C492.302 128.067 492.099 127.453 492.099 126.6V121.432H490.963V120.232H492.099V118.024H493.555V120.232H495.843V121.432H493.555Z" fill="white"/>
</g>
</g>
<defs>
<filter id="filter0_b_27_5897" x="-30" y="-30" width="600" height="215" filterUnits="userSpaceOnUse" color-interpolation-filters="sRGB">
<feFlood flood-opacity="0" result="BackgroundImageFix"/>
<feGaussianBlur in="BackgroundImageFix" stdDeviation="15"/>
<feComposite in2="SourceAlpha" operator="in" result="effect1_backgroundBlur_27_5897"/>
<feBlend mode="normal" in="SourceGraphic" in2="effect1_backgroundBlur_27_5897" result="shape"/>
</filter>
<filter id="filter1_f_27_5897" x="-265.009" y="-218.009" width="546.018" height="546.018" filterUnits="userSpaceOnUse" color-interpolation-filters="sRGB">
<feFlood flood-opacity="0" result="BackgroundImageFix"/>
<feBlend mode="normal" in="SourceGraphic" in2="BackgroundImageFix" result="shape"/>
<feGaussianBlur stdDeviation="69.0046" result="effect1_foregroundBlur_27_5897"/>
</filter>
<filter id="filter2_f_27_5897" x="-265.009" y="-218.009" width="546.018" height="546.018" filterUnits="userSpaceOnUse" color-interpolation-filters="sRGB">
<feFlood flood-opacity="0" result="BackgroundImageFix"/>
<feBlend mode="normal" in="SourceGraphic" in2="BackgroundImageFix" result="shape"/>
<feGaussianBlur stdDeviation="69.0046" result="effect1_foregroundBlur_27_5897"/>
</filter>
<filter id="filter3_f_27_5897" x="271.927" y="-175.073" width="376.146" height="376.146" filterUnits="userSpaceOnUse" color-interpolation-filters="sRGB">
<feFlood flood-opacity="0" result="BackgroundImageFix"/>
<feBlend mode="normal" in="SourceGraphic" in2="BackgroundImageFix" result="shape"/>
<feGaussianBlur stdDeviation="47.5365" result="effect1_foregroundBlur_27_5897"/>
</filter>
<filter id="filter4_f_27_5897" x="271.927" y="-175.073" width="376.146" height="376.146" filterUnits="userSpaceOnUse" color-interpolation-filters="sRGB">
<feFlood flood-opacity="0" result="BackgroundImageFix"/>
<feBlend mode="normal" in="SourceGraphic" in2="BackgroundImageFix" result="shape"/>
<feGaussianBlur stdDeviation="47.5365" result="effect1_foregroundBlur_27_5897"/>
</filter>
<linearGradient id="paint0_linear_27_5897" x1="-95.0263" y1="-27.8947" x2="31.6842" y2="109.474" gradientUnits="userSpaceOnUse">
<stop stop-color="#C496FF"/>
<stop offset="1" stop-color="#FFA996"/>
</linearGradient>
<linearGradient id="paint1_linear_27_5897" x1="-95.0263" y1="-27.8947" x2="31.6842" y2="109.474" gradientUnits="userSpaceOnUse">
<stop stop-color="#129EF3"/>
<stop offset="1" stop-color="#F920FF"/>
</linearGradient>
<linearGradient id="paint2_linear_27_5897" x1="389.026" y1="-44.1053" x2="476.316" y2="50.5263" gradientUnits="userSpaceOnUse">
<stop stop-color="#C496FF"/>
<stop offset="1" stop-color="#FFA996"/>
</linearGradient>
<linearGradient id="paint3_linear_27_5897" x1="389.026" y1="-44.1053" x2="476.316" y2="50.5263" gradientUnits="userSpaceOnUse">
<stop stop-color="#129EF3"/>
<stop offset="1" stop-color="#F920FF"/>
</linearGradient>
<clipPath id="clip0_27_5897">
<rect width="540" height="155" rx="15" fill="white"/>
</clipPath>
<clipPath id="clip1_27_5897">
<rect x="15" y="15" width="125" height="125" rx="12" fill="white"/>
</clipPath>
</defs>
</svg>
