<svg width="540" height="155" viewBox="0 0 540 155" fill="none" xmlns="http://www.w3.org/2000/svg">
<g filter="url(#filter0_b_27_5931)">
<g clip-path="url(#clip0_27_5931)">
<rect width="540" height="155" rx="15" fill="#22113E"/>
<g style="mix-blend-mode:overlay" filter="url(#filter1_f_27_5931)">
<circle cx="8" cy="55" r="135" transform="rotate(-90 8 55)" fill="url(#paint0_linear_27_5931)"/>
</g>
<g style="mix-blend-mode:overlay" opacity="0.5" filter="url(#filter2_f_27_5931)">
<circle cx="8" cy="55" r="135" transform="rotate(-90 8 55)" fill="url(#paint1_linear_27_5931)"/>
</g>
<path d="M167.512 26.248C169.272 26.248 170.816 26.592 172.144 27.28C173.488 27.968 174.52 28.952 175.24 30.232C175.976 31.496 176.344 32.968 176.344 34.648C176.344 36.328 175.976 37.8 175.24 39.064C174.52 40.312 173.488 41.28 172.144 41.968C170.816 42.656 169.272 43 167.512 43H161.656V26.248H167.512ZM167.392 40.144C169.152 40.144 170.512 39.664 171.472 38.704C172.432 37.744 172.912 36.392 172.912 34.648C172.912 32.904 172.432 31.544 171.472 30.568C170.512 29.576 169.152 29.08 167.392 29.08H165.016V40.144H167.392ZM177.995 36.304C177.995 34.96 178.259 33.768 178.787 32.728C179.331 31.688 180.059 30.888 180.971 30.328C181.899 29.768 182.931 29.488 184.067 29.488C185.059 29.488 185.923 29.688 186.659 30.088C187.411 30.488 188.011 30.992 188.459 31.6V29.704H191.843V43H188.459V41.056C188.027 41.68 187.427 42.2 186.659 42.616C185.907 43.016 185.035 43.216 184.043 43.216C182.923 43.216 181.899 42.928 180.971 42.352C180.059 41.776 179.331 40.968 178.787 39.928C178.259 38.872 177.995 37.664 177.995 36.304ZM188.459 36.352C188.459 35.536 188.299 34.84 187.979 34.264C187.659 33.672 187.227 33.224 186.683 32.92C186.139 32.6 185.555 32.44 184.931 32.44C184.307 32.44 183.731 32.592 183.203 32.896C182.675 33.2 182.243 33.648 181.907 34.24C181.587 34.816 181.427 35.504 181.427 36.304C181.427 37.104 181.587 37.808 181.907 38.416C182.243 39.008 182.675 39.464 183.203 39.784C183.747 40.104 184.323 40.264 184.931 40.264C185.555 40.264 186.139 40.112 186.683 39.808C187.227 39.488 187.659 39.04 187.979 38.464C188.299 37.872 188.459 37.168 188.459 36.352ZM196.829 28.12C196.237 28.12 195.741 27.936 195.341 27.568C194.957 27.184 194.765 26.712 194.765 26.152C194.765 25.592 194.957 25.128 195.341 24.76C195.741 24.376 196.237 24.184 196.829 24.184C197.421 24.184 197.909 24.376 198.293 24.76C198.693 25.128 198.893 25.592 198.893 26.152C198.893 26.712 198.693 27.184 198.293 27.568C197.909 27.936 197.421 28.12 196.829 28.12ZM198.485 29.704V43H195.125V29.704H198.485Z" fill="white"/>
<rect x="205" y="22" width="25" height="15" rx="4" fill="white" fill-opacity="0.1"/>
<path d="M211.94 26.03C212.7 26.03 213.357 26.1733 213.91 26.46C214.47 26.74 214.897 27.1433 215.19 27.67C215.49 28.1967 215.64 28.8167 215.64 29.53C215.64 30.2433 215.49 30.8633 215.19 31.39C214.897 31.91 214.47 32.31 213.91 32.59C213.357 32.8633 212.7 33 211.94 33H209.77V26.03H211.94ZM211.94 32.25C212.84 32.25 213.527 32.0133 214 31.54C214.473 31.06 214.71 30.39 214.71 29.53C214.71 28.6633 214.47 27.9867 213.99 27.5C213.517 27.0133 212.833 26.77 211.94 26.77H210.68V32.25H211.94ZM220.96 31.45H217.92L217.36 33H216.4L218.92 26.07H219.97L222.48 33H221.52L220.96 31.45ZM220.7 30.71L219.44 27.19L218.18 30.71H220.7ZM224.489 26.03V33H223.579V26.03H224.489Z" fill="white"/>
<path d="M506.731 26.5099L508.491 30.0299C508.731 30.5199 509.371 30.9899 509.911 31.0799L513.101 31.6099C515.141 31.9499 515.621 33.4299 514.151 34.8899L511.671 37.3699C511.251 37.7899 511.021 38.5999 511.151 39.1799L511.861 42.2499C512.421 44.6799 511.131 45.6199 508.981 44.3499L505.991 42.5799C505.451 42.2599 504.561 42.2599 504.011 42.5799L501.021 44.3499C498.881 45.6199 497.581 44.6699 498.141 42.2499L498.851 39.1799C498.981 38.5999 498.751 37.7899 498.331 37.3699L495.851 34.8899C494.391 33.4299 494.861 31.9499 496.901 31.6099L500.091 31.0799C500.621 30.9899 501.261 30.5199 501.501 30.0299L503.261 26.5099C504.221 24.5999 505.781 24.5999 506.731 26.5099Z" stroke="white" stroke-opacity="0.5" stroke-width="1.5" stroke-linecap="round" stroke-linejoin="round"/>
<rect x="485.5" y="15.5" width="39" height="39" rx="19.5" stroke="white" stroke-opacity="0.15"/>
<path d="M167.536 74.848V76.032H162.688V79.792H166.624V80.976H162.688V86H161.232V74.848H167.536ZM170.751 74.16V86H169.295V74.16H170.751ZM177.056 86.144C176.235 86.144 175.488 85.9573 174.816 85.584C174.155 85.2107 173.632 84.6827 173.248 84C172.875 83.3067 172.688 82.5067 172.688 81.6C172.688 80.704 172.88 79.9147 173.264 79.232C173.659 78.5387 174.192 78.0107 174.864 77.648C175.536 77.2747 176.288 77.088 177.12 77.088C177.952 77.088 178.704 77.2747 179.376 77.648C180.048 78.0107 180.576 78.5333 180.96 79.216C181.355 79.8987 181.552 80.6933 181.552 81.6C181.552 82.5067 181.349 83.3067 180.944 84C180.549 84.6827 180.011 85.2107 179.328 85.584C178.645 85.9573 177.888 86.144 177.056 86.144ZM177.056 84.864C177.579 84.864 178.069 84.7413 178.528 84.496C178.987 84.2507 179.355 83.8827 179.632 83.392C179.92 82.9013 180.064 82.304 180.064 81.6C180.064 80.896 179.925 80.2987 179.648 79.808C179.371 79.3173 179.008 78.9547 178.56 78.72C178.112 78.4747 177.627 78.352 177.104 78.352C176.571 78.352 176.08 78.4747 175.632 78.72C175.195 78.9547 174.843 79.3173 174.576 79.808C174.309 80.2987 174.176 80.896 174.176 81.6C174.176 82.3147 174.304 82.9173 174.56 83.408C174.827 83.8987 175.179 84.2667 175.616 84.512C176.053 84.7467 176.533 84.864 177.056 84.864ZM187.29 86.144C186.469 86.144 185.722 85.9573 185.05 85.584C184.389 85.2107 183.866 84.6827 183.482 84C183.109 83.3067 182.922 82.5067 182.922 81.6C182.922 80.704 183.114 79.9147 183.498 79.232C183.893 78.5387 184.426 78.0107 185.098 77.648C185.77 77.2747 186.522 77.088 187.354 77.088C188.186 77.088 188.938 77.2747 189.61 77.648C190.282 78.0107 190.81 78.5333 191.194 79.216C191.589 79.8987 191.786 80.6933 191.786 81.6C191.786 82.5067 191.584 83.3067 191.178 84C190.784 84.6827 190.245 85.2107 189.562 85.584C188.88 85.9573 188.122 86.144 187.29 86.144ZM187.29 84.864C187.813 84.864 188.304 84.7413 188.762 84.496C189.221 84.2507 189.589 83.8827 189.866 83.392C190.154 82.9013 190.298 82.304 190.298 81.6C190.298 80.896 190.16 80.2987 189.882 79.808C189.605 79.3173 189.242 78.9547 188.794 78.72C188.346 78.4747 187.861 78.352 187.338 78.352C186.805 78.352 186.314 78.4747 185.866 78.72C185.429 78.9547 185.077 79.3173 184.81 79.808C184.544 80.2987 184.41 80.896 184.41 81.6C184.41 82.3147 184.538 82.9173 184.794 83.408C185.061 83.8987 185.413 84.2667 185.85 84.512C186.288 84.7467 186.768 84.864 187.29 84.864ZM195.157 78.656C195.413 78.1547 195.775 77.7653 196.245 77.488C196.725 77.2107 197.306 77.072 197.989 77.072V78.576H197.605C195.973 78.576 195.157 79.4613 195.157 81.232V86H193.701V77.232H195.157V78.656ZM205.391 78.848C205.679 78.3467 206.106 77.9307 206.671 77.6C207.247 77.2587 207.914 77.088 208.671 77.088C209.45 77.088 210.154 77.2747 210.783 77.648C211.423 78.0213 211.924 78.5493 212.287 79.232C212.65 79.904 212.831 80.688 212.831 81.584C212.831 82.4693 212.65 83.2587 212.287 83.952C211.924 84.6453 211.423 85.184 210.783 85.568C210.154 85.952 209.45 86.144 208.671 86.144C207.924 86.144 207.263 85.9787 206.687 85.648C206.122 85.3067 205.69 84.8853 205.391 84.384V90.16H203.935V77.232H205.391V78.848ZM211.343 81.584C211.343 80.9227 211.21 80.3467 210.943 79.856C210.676 79.3653 210.314 78.992 209.855 78.736C209.407 78.48 208.911 78.352 208.367 78.352C207.834 78.352 207.338 78.4853 206.879 78.752C206.431 79.008 206.068 79.3867 205.791 79.888C205.524 80.3787 205.391 80.9493 205.391 81.6C205.391 82.2613 205.524 82.8427 205.791 83.344C206.068 83.8347 206.431 84.2133 206.879 84.48C207.338 84.736 207.834 84.864 208.367 84.864C208.911 84.864 209.407 84.736 209.855 84.48C210.314 84.2133 210.676 83.8347 210.943 83.344C211.21 82.8427 211.343 82.256 211.343 81.584ZM216.204 78.656C216.46 78.1547 216.822 77.7653 217.292 77.488C217.772 77.2107 218.353 77.072 219.036 77.072V78.576H218.652C217.02 78.576 216.204 79.4613 216.204 81.232V86H214.748V77.232H216.204V78.656ZM221.468 75.808C221.191 75.808 220.956 75.712 220.764 75.52C220.572 75.328 220.476 75.0933 220.476 74.816C220.476 74.5387 220.572 74.304 220.764 74.112C220.956 73.92 221.191 73.824 221.468 73.824C221.735 73.824 221.959 73.92 222.14 74.112C222.332 74.304 222.428 74.5387 222.428 74.816C222.428 75.0933 222.332 75.328 222.14 75.52C221.959 75.712 221.735 75.808 221.468 75.808ZM222.172 77.232V86H220.716V77.232H222.172ZM224.11 81.6C224.11 80.6933 224.291 79.904 224.654 79.232C225.017 78.5493 225.518 78.0213 226.158 77.648C226.809 77.2747 227.55 77.088 228.382 77.088C229.459 77.088 230.345 77.3493 231.038 77.872C231.742 78.3947 232.206 79.12 232.43 80.048H230.862C230.713 79.5147 230.419 79.0933 229.982 78.784C229.555 78.4747 229.022 78.32 228.382 78.32C227.55 78.32 226.878 78.608 226.366 79.184C225.854 79.7493 225.598 80.5547 225.598 81.6C225.598 82.656 225.854 83.472 226.366 84.048C226.878 84.624 227.55 84.912 228.382 84.912C229.022 84.912 229.555 84.7627 229.982 84.464C230.409 84.1653 230.702 83.7387 230.862 83.184H232.43C232.195 84.08 231.726 84.8 231.022 85.344C230.318 85.8773 229.438 86.144 228.382 86.144C227.55 86.144 226.809 85.9573 226.158 85.584C225.518 85.2107 225.017 84.6827 224.654 84C224.291 83.3173 224.11 82.5173 224.11 81.6ZM242.373 81.28C242.373 81.5573 242.357 81.8507 242.325 82.16H235.317C235.37 83.024 235.663 83.7013 236.197 84.192C236.741 84.672 237.397 84.912 238.165 84.912C238.794 84.912 239.317 84.768 239.733 84.48C240.159 84.1813 240.458 83.7867 240.629 83.296H242.197C241.962 84.1387 241.493 84.8267 240.789 85.36C240.085 85.8827 239.21 86.144 238.165 86.144C237.333 86.144 236.586 85.9573 235.925 85.584C235.274 85.2107 234.762 84.6827 234.389 84C234.015 83.3067 233.829 82.5067 233.829 81.6C233.829 80.6933 234.01 79.8987 234.373 79.216C234.735 78.5333 235.242 78.0107 235.893 77.648C236.554 77.2747 237.311 77.088 238.165 77.088C238.997 77.088 239.733 77.2693 240.373 77.632C241.013 77.9947 241.503 78.496 241.845 79.136C242.197 79.7653 242.373 80.48 242.373 81.28ZM240.869 80.976C240.869 80.4213 240.746 79.9467 240.501 79.552C240.255 79.1467 239.919 78.8427 239.493 78.64C239.077 78.4267 238.613 78.32 238.101 78.32C237.365 78.32 236.735 78.5547 236.213 79.024C235.701 79.4933 235.407 80.144 235.333 80.976H240.869ZM244.759 86.096C244.481 86.096 244.247 86 244.055 85.808C243.863 85.616 243.767 85.3813 243.767 85.104C243.767 84.8267 243.863 84.592 244.055 84.4C244.247 84.208 244.481 84.112 244.759 84.112C245.025 84.112 245.249 84.208 245.431 84.4C245.623 84.592 245.719 84.8267 245.719 85.104C245.719 85.3813 245.623 85.616 245.431 85.808C245.249 86 245.025 86.096 244.759 86.096ZM244.759 79.248C244.481 79.248 244.247 79.152 244.055 78.96C243.863 78.768 243.767 78.5333 243.767 78.256C243.767 77.9787 243.863 77.744 244.055 77.552C244.247 77.36 244.481 77.264 244.759 77.264C245.025 77.264 245.249 77.36 245.431 77.552C245.623 77.744 245.719 77.9787 245.719 78.256C245.719 78.5333 245.623 78.768 245.431 78.96C245.249 79.152 245.025 79.248 244.759 79.248Z" fill="white" fill-opacity="0.5"/>
<path d="M263.432 82.944C263.432 83.456 263.304 83.9467 263.048 84.416C262.792 84.8747 262.413 85.2587 261.912 85.568C261.421 85.8773 260.829 86.0533 260.136 86.096V87.392H259.272V86.096C258.301 86.0107 257.512 85.7013 256.904 85.168C256.296 84.624 255.987 83.936 255.976 83.104H257.528C257.571 83.552 257.736 83.9413 258.024 84.272C258.323 84.6027 258.739 84.8107 259.272 84.896V80.896C258.557 80.7147 257.981 80.528 257.544 80.336C257.107 80.144 256.733 79.8453 256.424 79.44C256.115 79.0347 255.96 78.4907 255.96 77.808C255.96 76.944 256.259 76.2293 256.856 75.664C257.464 75.0987 258.269 74.784 259.272 74.72V73.392H260.136V74.72C261.043 74.7947 261.773 75.088 262.328 75.6C262.883 76.1013 263.203 76.7573 263.288 77.568H261.736C261.683 77.1947 261.517 76.8587 261.24 76.56C260.963 76.2507 260.595 76.048 260.136 75.952V79.856C260.84 80.0373 261.411 80.224 261.848 80.416C262.296 80.5973 262.669 80.8907 262.968 81.296C263.277 81.7013 263.432 82.2507 263.432 82.944ZM257.448 77.728C257.448 78.2507 257.603 78.6507 257.912 78.928C258.221 79.2053 258.675 79.4347 259.272 79.616V75.92C258.717 75.9733 258.275 76.1547 257.944 76.464C257.613 76.7627 257.448 77.184 257.448 77.728ZM260.136 84.912C260.712 84.848 261.16 84.64 261.48 84.288C261.811 83.936 261.976 83.5147 261.976 83.024C261.976 82.5013 261.816 82.1013 261.496 81.824C261.176 81.536 260.723 81.3067 260.136 81.136V84.912ZM265.561 75.76V74.432H268.569V86H267.097V75.76H265.561ZM278.446 75.696H272.83V79.344C273.075 79.0027 273.438 78.7253 273.918 78.512C274.398 78.288 274.915 78.176 275.47 78.176C276.355 78.176 277.075 78.3627 277.63 78.736C278.185 79.0987 278.579 79.5733 278.814 80.16C279.059 80.736 279.182 81.3493 279.182 82C279.182 82.768 279.038 83.456 278.75 84.064C278.462 84.672 278.019 85.152 277.422 85.504C276.835 85.856 276.105 86.032 275.23 86.032C274.11 86.032 273.203 85.744 272.51 85.168C271.817 84.592 271.395 83.824 271.246 82.864H272.67C272.809 83.472 273.102 83.9467 273.55 84.288C273.998 84.6293 274.563 84.8 275.246 84.8C276.089 84.8 276.723 84.5493 277.15 84.048C277.577 83.536 277.79 82.864 277.79 82.032C277.79 81.2 277.577 80.56 277.15 80.112C276.723 79.6533 276.094 79.424 275.262 79.424C274.697 79.424 274.201 79.5627 273.774 79.84C273.358 80.1067 273.054 80.4747 272.862 80.944H271.486V74.416H278.446V75.696ZM281.821 86.096C281.544 86.096 281.309 86 281.117 85.808C280.925 85.616 280.829 85.3813 280.829 85.104C280.829 84.8267 280.925 84.592 281.117 84.4C281.309 84.208 281.544 84.112 281.821 84.112C282.088 84.112 282.312 84.208 282.493 84.4C282.685 84.592 282.781 84.8267 282.781 85.104C282.781 85.3813 282.685 85.616 282.493 85.808C282.312 86 282.088 86.096 281.821 86.096ZM291.596 75.568L287.148 86H285.676L290.188 75.712H284.012V74.464H291.596V75.568ZM293.211 80.096C293.211 78.2613 293.509 76.832 294.107 75.808C294.704 74.7733 295.749 74.256 297.243 74.256C298.725 74.256 299.765 74.7733 300.363 75.808C300.96 76.832 301.259 78.2613 301.259 80.096C301.259 81.9627 300.96 83.4133 300.363 84.448C299.765 85.4827 298.725 86 297.243 86C295.749 86 294.704 85.4827 294.107 84.448C293.509 83.4133 293.211 81.9627 293.211 80.096ZM299.819 80.096C299.819 79.168 299.755 78.384 299.627 77.744C299.509 77.0933 299.259 76.5707 298.875 76.176C298.501 75.7813 297.957 75.584 297.243 75.584C296.517 75.584 295.963 75.7813 295.579 76.176C295.205 76.5707 294.955 77.0933 294.827 77.744C294.709 78.384 294.651 79.168 294.651 80.096C294.651 81.056 294.709 81.8613 294.827 82.512C294.955 83.1627 295.205 83.6853 295.579 84.08C295.963 84.4747 296.517 84.672 297.243 84.672C297.957 84.672 298.501 84.4747 298.875 84.08C299.259 83.6853 299.509 83.1627 299.627 82.512C299.755 81.8613 299.819 81.056 299.819 80.096Z" fill="white"/>
<path d="M483 76L488.196 82H477.804L483 76Z" fill="#39DF1E"/>
<path d="M497.608 75.76V74.432H500.616V86H499.144V75.76H497.608ZM503.821 86.096C503.544 86.096 503.309 86 503.117 85.808C502.925 85.616 502.829 85.3813 502.829 85.104C502.829 84.8267 502.925 84.592 503.117 84.4C503.309 84.208 503.544 84.112 503.821 84.112C504.088 84.112 504.312 84.208 504.493 84.4C504.685 84.592 504.781 84.8267 504.781 85.104C504.781 85.3813 504.685 85.616 504.493 85.808C504.312 86 504.088 86.096 503.821 86.096ZM513.596 75.568L509.148 86H507.676L512.188 75.712H506.012V74.464H513.596V75.568ZM517.083 82.896C517.189 83.504 517.435 83.9733 517.819 84.304C518.213 84.6347 518.741 84.8 519.403 84.8C520.288 84.8 520.939 84.4533 521.355 83.76C521.781 83.0667 521.984 81.8987 521.963 80.256C521.739 80.736 521.365 81.1147 520.843 81.392C520.32 81.6587 519.739 81.792 519.099 81.792C518.384 81.792 517.744 81.648 517.179 81.36C516.624 81.0613 516.187 80.6293 515.867 80.064C515.547 79.4987 515.387 78.816 515.387 78.016C515.387 76.8747 515.717 75.9573 516.379 75.264C517.04 74.56 517.979 74.208 519.195 74.208C520.688 74.208 521.733 74.6933 522.331 75.664C522.939 76.6347 523.243 78.08 523.243 80C523.243 81.344 523.12 82.4533 522.875 83.328C522.64 84.2027 522.235 84.8693 521.659 85.328C521.093 85.7867 520.315 86.016 519.323 86.016C518.235 86.016 517.387 85.7227 516.779 85.136C516.171 84.5493 515.824 83.8027 515.739 82.896H517.083ZM519.339 80.56C520.053 80.56 520.64 80.3413 521.099 79.904C521.557 79.456 521.787 78.8533 521.787 78.096C521.787 77.296 521.563 76.6507 521.115 76.16C520.667 75.6693 520.037 75.424 519.227 75.424C518.48 75.424 517.883 75.6587 517.435 76.128C516.997 76.5973 516.779 77.216 516.779 77.984C516.779 78.7627 516.997 79.3867 517.435 79.856C517.872 80.3253 518.507 80.56 519.339 80.56Z" fill="#39DF1E"/>
<rect x="160" y="106" width="107" height="34" rx="17" fill="black" fill-opacity="0.3"/>
<path d="M183.104 129L180.448 124.44H178.688V129H177.232V117.848H180.832C181.675 117.848 182.384 117.992 182.96 118.28C183.547 118.568 183.984 118.957 184.272 119.448C184.56 119.939 184.704 120.499 184.704 121.128C184.704 121.896 184.48 122.573 184.032 123.16C183.595 123.747 182.933 124.136 182.048 124.328L184.848 129H183.104ZM178.688 123.272H180.832C181.621 123.272 182.213 123.08 182.608 122.696C183.003 122.301 183.2 121.779 183.2 121.128C183.2 120.467 183.003 119.955 182.608 119.592C182.224 119.229 181.632 119.048 180.832 119.048H178.688V123.272ZM186.422 124.584C186.422 123.688 186.604 122.904 186.966 122.232C187.329 121.549 187.825 121.021 188.454 120.648C189.094 120.275 189.804 120.088 190.582 120.088C191.35 120.088 192.017 120.253 192.582 120.584C193.148 120.915 193.569 121.331 193.846 121.832V120.232H195.318V129H193.846V127.368C193.558 127.88 193.126 128.307 192.55 128.648C191.985 128.979 191.324 129.144 190.566 129.144C189.788 129.144 189.084 128.952 188.454 128.568C187.825 128.184 187.329 127.645 186.966 126.952C186.604 126.259 186.422 125.469 186.422 124.584ZM193.846 124.6C193.846 123.939 193.713 123.363 193.446 122.872C193.18 122.381 192.817 122.008 192.358 121.752C191.91 121.485 191.414 121.352 190.87 121.352C190.326 121.352 189.83 121.48 189.382 121.736C188.934 121.992 188.577 122.365 188.31 122.856C188.044 123.347 187.91 123.923 187.91 124.584C187.91 125.256 188.044 125.843 188.31 126.344C188.577 126.835 188.934 127.213 189.382 127.48C189.83 127.736 190.326 127.864 190.87 127.864C191.414 127.864 191.91 127.736 192.358 127.48C192.817 127.213 193.18 126.835 193.446 126.344C193.713 125.843 193.846 125.261 193.846 124.6ZM202.051 120.072C203.118 120.072 203.982 120.397 204.643 121.048C205.304 121.688 205.635 122.616 205.635 123.832V129H204.195V124.04C204.195 123.165 203.976 122.499 203.539 122.04C203.102 121.571 202.504 121.336 201.747 121.336C200.979 121.336 200.366 121.576 199.907 122.056C199.459 122.536 199.235 123.235 199.235 124.152V129H197.779V120.232H199.235V121.48C199.523 121.032 199.912 120.685 200.403 120.44C200.904 120.195 201.454 120.072 202.051 120.072ZM212.909 129L209.469 125.128V129H208.013V117.16H209.469V124.12L212.845 120.232H214.877L210.749 124.6L214.893 129H212.909ZM220.801 129V117.576H222.417L227.617 126.984H227.681C227.671 126.707 227.655 126.387 227.633 126.024C227.612 125.661 227.596 125.299 227.585 124.936C227.575 124.563 227.569 124.243 227.569 123.976V117.576H228.833V129H227.265L222.001 119.56H221.937C221.959 119.837 221.975 120.168 221.985 120.552C222.007 120.925 222.023 121.299 222.033 121.672C222.055 122.045 222.065 122.376 222.065 122.664V129H220.801ZM230.353 129V127.896H234.465V129H230.353ZM232.401 126.856C231.943 126.856 231.532 126.755 231.169 126.552C230.817 126.339 230.54 126.029 230.337 125.624C230.135 125.219 230.033 124.723 230.033 124.136C230.033 123.261 230.247 122.595 230.673 122.136C231.111 121.667 231.703 121.432 232.449 121.432C232.908 121.432 233.313 121.539 233.665 121.752C234.028 121.955 234.311 122.259 234.513 122.664C234.727 123.059 234.833 123.549 234.833 124.136C234.833 125.011 234.615 125.683 234.177 126.152C233.74 126.621 233.148 126.856 232.401 126.856ZM232.433 125.928C232.903 125.928 233.239 125.779 233.441 125.48C233.644 125.171 233.745 124.723 233.745 124.136C233.745 123.539 233.644 123.101 233.441 122.824C233.239 122.536 232.903 122.392 232.433 122.392C231.975 122.392 231.639 122.536 231.425 122.824C231.212 123.101 231.105 123.539 231.105 124.136C231.105 124.723 231.207 125.171 231.409 125.48C231.623 125.779 231.964 125.928 232.433 125.928ZM236.202 118.76V117.432H239.21V129H237.738V118.76H236.202ZM248.159 120.184C247.924 119 247.193 118.408 245.967 118.408C245.017 118.408 244.308 118.776 243.839 119.512C243.369 120.237 243.14 121.437 243.151 123.112C243.396 122.557 243.801 122.125 244.367 121.816C244.943 121.496 245.583 121.336 246.287 121.336C247.385 121.336 248.26 121.677 248.911 122.36C249.572 123.043 249.903 123.987 249.903 125.192C249.903 125.917 249.759 126.568 249.471 127.144C249.193 127.72 248.767 128.179 248.191 128.52C247.625 128.861 246.937 129.032 246.127 129.032C245.028 129.032 244.169 128.787 243.551 128.296C242.932 127.805 242.5 127.128 242.255 126.264C242.009 125.4 241.887 124.333 241.887 123.064C241.887 119.149 243.252 117.192 245.983 117.192C247.028 117.192 247.849 117.475 248.447 118.04C249.044 118.605 249.396 119.32 249.503 120.184H248.159ZM245.983 122.568C245.524 122.568 245.092 122.664 244.687 122.856C244.281 123.037 243.951 123.32 243.695 123.704C243.449 124.077 243.327 124.536 243.327 125.08C243.327 125.891 243.561 126.552 244.031 127.064C244.5 127.565 245.172 127.816 246.047 127.816C246.793 127.816 247.385 127.587 247.823 127.128C248.271 126.659 248.495 126.029 248.495 125.24C248.495 124.408 248.281 123.757 247.855 123.288C247.428 122.808 246.804 122.568 245.983 122.568Z" fill="white"/>
<rect x="271" y="106" width="69" height="34" rx="17" fill="black" fill-opacity="0.3"/>
<path d="M287.688 123.416C287.688 122.328 287.933 121.352 288.424 120.488C288.915 119.613 289.581 118.931 290.424 118.44C291.277 117.949 292.221 117.704 293.256 117.704C294.472 117.704 295.533 117.997 296.44 118.584C297.347 119.171 298.008 120.003 298.424 121.08H296.68C296.371 120.408 295.923 119.891 295.336 119.528C294.76 119.165 294.067 118.984 293.256 118.984C292.477 118.984 291.779 119.165 291.16 119.528C290.541 119.891 290.056 120.408 289.704 121.08C289.352 121.741 289.176 122.52 289.176 123.416C289.176 124.301 289.352 125.08 289.704 125.752C290.056 126.413 290.541 126.925 291.16 127.288C291.779 127.651 292.477 127.832 293.256 127.832C294.067 127.832 294.76 127.656 295.336 127.304C295.923 126.941 296.371 126.424 296.68 125.752H298.424C298.008 126.819 297.347 127.645 296.44 128.232C295.533 128.808 294.472 129.096 293.256 129.096C292.221 129.096 291.277 128.856 290.424 128.376C289.581 127.885 288.915 127.208 288.424 126.344C287.933 125.48 287.688 124.504 287.688 123.416ZM304.415 129.144C303.594 129.144 302.847 128.957 302.175 128.584C301.514 128.211 300.991 127.683 300.607 127C300.234 126.307 300.047 125.507 300.047 124.6C300.047 123.704 300.239 122.915 300.623 122.232C301.018 121.539 301.551 121.011 302.223 120.648C302.895 120.275 303.647 120.088 304.479 120.088C305.311 120.088 306.063 120.275 306.735 120.648C307.407 121.011 307.935 121.533 308.319 122.216C308.714 122.899 308.911 123.693 308.911 124.6C308.911 125.507 308.709 126.307 308.303 127C307.909 127.683 307.37 128.211 306.687 128.584C306.005 128.957 305.247 129.144 304.415 129.144ZM304.415 127.864C304.938 127.864 305.429 127.741 305.887 127.496C306.346 127.251 306.714 126.883 306.991 126.392C307.279 125.901 307.423 125.304 307.423 124.6C307.423 123.896 307.285 123.299 307.007 122.808C306.73 122.317 306.367 121.955 305.919 121.72C305.471 121.475 304.986 121.352 304.463 121.352C303.93 121.352 303.439 121.475 302.991 121.72C302.554 121.955 302.202 122.317 301.935 122.808C301.669 123.299 301.535 123.896 301.535 124.6C301.535 125.315 301.663 125.917 301.919 126.408C302.186 126.899 302.538 127.267 302.975 127.512C303.413 127.747 303.893 127.864 304.415 127.864ZM311.578 118.808C311.3 118.808 311.066 118.712 310.874 118.52C310.682 118.328 310.586 118.093 310.586 117.816C310.586 117.539 310.682 117.304 310.874 117.112C311.066 116.92 311.3 116.824 311.578 116.824C311.844 116.824 312.068 116.92 312.25 117.112C312.442 117.304 312.538 117.539 312.538 117.816C312.538 118.093 312.442 118.328 312.25 118.52C312.068 118.712 311.844 118.808 311.578 118.808ZM312.282 120.232V129H310.826V120.232H312.282ZM319.035 120.072C320.102 120.072 320.966 120.397 321.627 121.048C322.289 121.688 322.619 122.616 322.619 123.832V129H321.179V124.04C321.179 123.165 320.961 122.499 320.523 122.04C320.086 121.571 319.489 121.336 318.731 121.336C317.963 121.336 317.35 121.576 316.891 122.056C316.443 122.536 316.219 123.235 316.219 124.152V129H314.763V120.232H316.219V121.48C316.507 121.032 316.897 120.685 317.387 120.44C317.889 120.195 318.438 120.072 319.035 120.072Z" fill="white"/>
<rect x="344" y="106" width="169" height="34" rx="17" fill="black" fill-opacity="0.3"/>
<path d="M362.864 125.896C362.971 126.504 363.216 126.973 363.6 127.304C363.995 127.635 364.523 127.8 365.184 127.8C366.069 127.8 366.72 127.453 367.136 126.76C367.563 126.067 367.765 124.899 367.744 123.256C367.52 123.736 367.147 124.115 366.624 124.392C366.101 124.659 365.52 124.792 364.88 124.792C364.165 124.792 363.525 124.648 362.96 124.36C362.405 124.061 361.968 123.629 361.648 123.064C361.328 122.499 361.168 121.816 361.168 121.016C361.168 119.875 361.499 118.957 362.16 118.264C362.821 117.56 363.76 117.208 364.976 117.208C366.469 117.208 367.515 117.693 368.112 118.664C368.72 119.635 369.024 121.08 369.024 123C369.024 124.344 368.901 125.453 368.656 126.328C368.421 127.203 368.016 127.869 367.44 128.328C366.875 128.787 366.096 129.016 365.104 129.016C364.016 129.016 363.168 128.723 362.56 128.136C361.952 127.549 361.605 126.803 361.52 125.896H362.864ZM365.12 123.56C365.835 123.56 366.421 123.341 366.88 122.904C367.339 122.456 367.568 121.853 367.568 121.096C367.568 120.296 367.344 119.651 366.896 119.16C366.448 118.669 365.819 118.424 365.008 118.424C364.261 118.424 363.664 118.659 363.216 119.128C362.779 119.597 362.56 120.216 362.56 120.984C362.56 121.763 362.779 122.387 363.216 122.856C363.653 123.325 364.288 123.56 365.12 123.56ZM370.894 127.832C372.249 126.744 373.31 125.853 374.078 125.16C374.846 124.456 375.491 123.725 376.014 122.968C376.547 122.2 376.814 121.448 376.814 120.712C376.814 120.019 376.643 119.475 376.302 119.08C375.971 118.675 375.433 118.472 374.686 118.472C373.961 118.472 373.395 118.701 372.99 119.16C372.595 119.608 372.382 120.211 372.35 120.968H370.942C370.985 119.773 371.347 118.851 372.03 118.2C372.713 117.549 373.593 117.224 374.67 117.224C375.769 117.224 376.638 117.528 377.278 118.136C377.929 118.744 378.254 119.581 378.254 120.648C378.254 121.533 377.987 122.397 377.454 123.24C376.931 124.072 376.334 124.808 375.662 125.448C374.99 126.077 374.131 126.813 373.086 127.656H378.59V128.872H370.894V127.832ZM380.097 127.832C381.452 126.744 382.513 125.853 383.281 125.16C384.049 124.456 384.695 123.725 385.217 122.968C385.751 122.2 386.017 121.448 386.017 120.712C386.017 120.019 385.847 119.475 385.505 119.08C385.175 118.675 384.636 118.472 383.889 118.472C383.164 118.472 382.599 118.701 382.193 119.16C381.799 119.608 381.585 120.211 381.553 120.968H380.145C380.188 119.773 380.551 118.851 381.233 118.2C381.916 117.549 382.796 117.224 383.873 117.224C384.972 117.224 385.841 117.528 386.481 118.136C387.132 118.744 387.457 119.581 387.457 120.648C387.457 121.533 387.191 122.397 386.657 123.24C386.135 124.072 385.537 124.808 384.865 125.448C384.193 126.077 383.335 126.813 382.289 127.656H387.793V128.872H380.097V127.832ZM391.22 126.984L389.428 131.288H388.452L389.62 126.984H391.22ZM392.472 127.832C393.827 126.744 394.888 125.853 395.656 125.16C396.424 124.456 397.07 123.725 397.592 122.968C398.126 122.2 398.392 121.448 398.392 120.712C398.392 120.019 398.222 119.475 397.88 119.08C397.55 118.675 397.011 118.472 396.264 118.472C395.539 118.472 394.974 118.701 394.568 119.16C394.174 119.608 393.96 120.211 393.928 120.968H392.52C392.563 119.773 392.926 118.851 393.608 118.2C394.291 117.549 395.171 117.224 396.248 117.224C397.347 117.224 398.216 117.528 398.856 118.136C399.507 118.744 399.832 119.581 399.832 120.648C399.832 121.533 399.566 122.397 399.032 123.24C398.51 124.072 397.912 124.808 397.24 125.448C396.568 126.077 395.71 126.813 394.664 127.656H400.168V128.872H392.472V127.832ZM401.851 123.096C401.851 121.261 402.15 119.832 402.747 118.808C403.345 117.773 404.39 117.256 405.883 117.256C407.366 117.256 408.406 117.773 409.003 118.808C409.601 119.832 409.899 121.261 409.899 123.096C409.899 124.963 409.601 126.413 409.003 127.448C408.406 128.483 407.366 129 405.883 129C404.39 129 403.345 128.483 402.747 127.448C402.15 126.413 401.851 124.963 401.851 123.096ZM408.459 123.096C408.459 122.168 408.395 121.384 408.267 120.744C408.15 120.093 407.899 119.571 407.515 119.176C407.142 118.781 406.598 118.584 405.883 118.584C405.158 118.584 404.603 118.781 404.219 119.176C403.846 119.571 403.595 120.093 403.467 120.744C403.35 121.384 403.291 122.168 403.291 123.096C403.291 124.056 403.35 124.861 403.467 125.512C403.595 126.163 403.846 126.685 404.219 127.08C404.603 127.475 405.158 127.672 405.883 127.672C406.598 127.672 407.142 127.475 407.515 127.08C407.899 126.685 408.15 126.163 408.267 125.512C408.395 124.861 408.459 124.056 408.459 123.096ZM411.866 120.344C411.941 119.363 412.32 118.595 413.002 118.04C413.685 117.485 414.57 117.208 415.658 117.208C416.384 117.208 417.008 117.341 417.53 117.608C418.064 117.864 418.464 118.216 418.73 118.664C419.008 119.112 419.146 119.619 419.146 120.184C419.146 120.845 418.954 121.416 418.57 121.896C418.197 122.376 417.706 122.685 417.098 122.824V122.904C417.792 123.075 418.341 123.411 418.746 123.912C419.152 124.413 419.354 125.069 419.354 125.88C419.354 126.488 419.216 127.037 418.938 127.528C418.661 128.008 418.245 128.387 417.69 128.664C417.136 128.941 416.469 129.08 415.69 129.08C414.56 129.08 413.632 128.787 412.906 128.2C412.181 127.603 411.776 126.76 411.69 125.672H413.098C413.173 126.312 413.434 126.835 413.882 127.24C414.33 127.645 414.928 127.848 415.674 127.848C416.421 127.848 416.986 127.656 417.37 127.272C417.765 126.877 417.962 126.371 417.962 125.752C417.962 124.952 417.696 124.376 417.162 124.024C416.629 123.672 415.824 123.496 414.746 123.496H414.378V122.28H414.762C415.744 122.269 416.485 122.109 416.986 121.8C417.488 121.48 417.738 120.989 417.738 120.328C417.738 119.763 417.552 119.309 417.178 118.968C416.816 118.627 416.293 118.456 415.61 118.456C414.949 118.456 414.416 118.627 414.01 118.968C413.605 119.309 413.365 119.768 413.29 120.344H411.866ZM437.506 120.232L434.77 129H433.266L431.154 122.04L429.042 129H427.538L424.786 120.232H426.274L428.29 127.592L430.466 120.232H431.954L434.082 127.608L436.066 120.232H437.506ZM438.407 124.584C438.407 123.688 438.588 122.904 438.951 122.232C439.313 121.549 439.809 121.021 440.439 120.648C441.079 120.275 441.788 120.088 442.567 120.088C443.335 120.088 444.001 120.253 444.567 120.584C445.132 120.915 445.553 121.331 445.831 121.832V120.232H447.303V129H445.831V127.368C445.543 127.88 445.111 128.307 444.535 128.648C443.969 128.979 443.308 129.144 442.551 129.144C441.772 129.144 441.068 128.952 440.439 128.568C439.809 128.184 439.313 127.645 438.951 126.952C438.588 126.259 438.407 125.469 438.407 124.584ZM445.831 124.6C445.831 123.939 445.697 123.363 445.431 122.872C445.164 122.381 444.801 122.008 444.343 121.752C443.895 121.485 443.399 121.352 442.855 121.352C442.311 121.352 441.815 121.48 441.367 121.736C440.919 121.992 440.561 122.365 440.295 122.856C440.028 123.347 439.895 123.923 439.895 124.584C439.895 125.256 440.028 125.843 440.295 126.344C440.561 126.835 440.919 127.213 441.367 127.48C441.815 127.736 442.311 127.864 442.855 127.864C443.399 127.864 443.895 127.736 444.343 127.48C444.801 127.213 445.164 126.835 445.431 126.344C445.697 125.843 445.831 125.261 445.831 124.6ZM451.539 121.432V126.6C451.539 127.027 451.63 127.331 451.811 127.512C451.993 127.683 452.307 127.768 452.755 127.768H453.827V129H452.515C451.705 129 451.097 128.813 450.691 128.44C450.286 128.067 450.083 127.453 450.083 126.6V121.432H448.947V120.232H450.083V118.024H451.539V120.232H453.827V121.432H451.539ZM455.047 124.6C455.047 123.693 455.229 122.904 455.591 122.232C455.954 121.549 456.455 121.021 457.095 120.648C457.746 120.275 458.487 120.088 459.319 120.088C460.397 120.088 461.282 120.349 461.975 120.872C462.679 121.395 463.143 122.12 463.367 123.048H461.799C461.65 122.515 461.357 122.093 460.919 121.784C460.493 121.475 459.959 121.32 459.319 121.32C458.487 121.32 457.815 121.608 457.303 122.184C456.791 122.749 456.535 123.555 456.535 124.6C456.535 125.656 456.791 126.472 457.303 127.048C457.815 127.624 458.487 127.912 459.319 127.912C459.959 127.912 460.493 127.763 460.919 127.464C461.346 127.165 461.639 126.739 461.799 126.184H463.367C463.133 127.08 462.663 127.8 461.959 128.344C461.255 128.877 460.375 129.144 459.319 129.144C458.487 129.144 457.746 128.957 457.095 128.584C456.455 128.211 455.954 127.683 455.591 127C455.229 126.317 455.047 125.517 455.047 124.6ZM469.662 120.072C470.323 120.072 470.921 120.216 471.454 120.504C471.987 120.781 472.403 121.203 472.702 121.768C473.011 122.333 473.166 123.021 473.166 123.832V129H471.726V124.04C471.726 123.165 471.507 122.499 471.07 122.04C470.633 121.571 470.035 121.336 469.278 121.336C468.51 121.336 467.897 121.576 467.438 122.056C466.99 122.536 466.766 123.235 466.766 124.152V129H465.31V117.16H466.766V121.48C467.054 121.032 467.449 120.685 467.95 120.44C468.462 120.195 469.033 120.072 469.662 120.072ZM477.001 117.16V129H475.545V117.16H477.001ZM480.234 118.808C479.957 118.808 479.722 118.712 479.53 118.52C479.338 118.328 479.242 118.093 479.242 117.816C479.242 117.539 479.338 117.304 479.53 117.112C479.722 116.92 479.957 116.824 480.234 116.824C480.501 116.824 480.725 116.92 480.906 117.112C481.098 117.304 481.194 117.539 481.194 117.816C481.194 118.093 481.098 118.328 480.906 118.52C480.725 118.712 480.501 118.808 480.234 118.808ZM480.938 120.232V129H479.482V120.232H480.938ZM486.524 129.144C485.852 129.144 485.249 129.032 484.716 128.808C484.182 128.573 483.761 128.253 483.452 127.848C483.142 127.432 482.972 126.957 482.94 126.424H484.444C484.486 126.861 484.689 127.219 485.052 127.496C485.425 127.773 485.91 127.912 486.508 127.912C487.062 127.912 487.5 127.789 487.82 127.544C488.14 127.299 488.3 126.989 488.3 126.616C488.3 126.232 488.129 125.949 487.788 125.768C487.446 125.576 486.918 125.389 486.204 125.208C485.553 125.037 485.02 124.867 484.604 124.696C484.198 124.515 483.846 124.253 483.548 123.912C483.26 123.56 483.116 123.101 483.116 122.536C483.116 122.088 483.249 121.677 483.516 121.304C483.782 120.931 484.161 120.637 484.652 120.424C485.142 120.2 485.702 120.088 486.332 120.088C487.302 120.088 488.086 120.333 488.684 120.824C489.281 121.315 489.601 121.987 489.644 122.84H488.188C488.156 122.381 487.969 122.013 487.628 121.736C487.297 121.459 486.849 121.32 486.284 121.32C485.761 121.32 485.345 121.432 485.036 121.656C484.726 121.88 484.572 122.173 484.572 122.536C484.572 122.824 484.662 123.064 484.844 123.256C485.036 123.437 485.27 123.587 485.548 123.704C485.836 123.811 486.23 123.933 486.732 124.072C487.361 124.243 487.873 124.413 488.268 124.584C488.662 124.744 488.998 124.989 489.276 125.32C489.564 125.651 489.713 126.083 489.724 126.616C489.724 127.096 489.59 127.528 489.324 127.912C489.057 128.296 488.678 128.6 488.188 128.824C487.708 129.037 487.153 129.144 486.524 129.144ZM493.555 121.432V126.6C493.555 127.027 493.646 127.331 493.827 127.512C494.008 127.683 494.323 127.768 494.771 127.768H495.843V129H494.531C493.72 129 493.112 128.813 492.707 128.44C492.302 128.067 492.099 127.453 492.099 126.6V121.432H490.963V120.232H492.099V118.024H493.555V120.232H495.843V121.432H493.555Z" fill="white"/>
<g clip-path="url(#clip1_27_5931)">
<rect x="15" y="15" width="125" height="125" rx="12" fill="#F5AC37"/>
<path d="M77.72 30C104.077 30 125.44 51.3668 125.44 77.72C125.44 104.077 104.077 125.44 77.72 125.44C51.3668 125.44 30 104.075 30 77.72C30 51.3668 51.3668 30 77.72 30Z" fill="#F5AC37"/>
<path d="M79.4779 81.0892H97.6107C97.9972 81.0892 98.1798 81.0892 98.2077 80.5824C98.3558 78.7378 98.3558 76.8824 98.2077 75.0356C98.2077 74.677 98.0294 74.5288 97.6407 74.5288H61.5533C61.1067 74.5288 60.9864 74.677 60.9864 75.0958V80.4042C60.9864 81.0892 60.9864 81.0892 61.7015 81.0892H79.4779ZM96.1827 68.3249C96.2342 68.1897 96.2342 68.0415 96.1827 67.9083C95.8799 67.2491 95.5212 66.6199 95.1046 66.0294C94.4776 65.0201 93.7389 64.0902 92.8971 63.2549C92.4998 62.7502 92.0403 62.2971 91.5249 61.9127C88.9437 59.7159 85.875 58.1612 82.5766 57.3795C80.9123 57.0059 79.2116 56.8277 77.5065 56.8427H61.4911C61.0444 56.8427 60.9843 57.0209 60.9843 57.4096V67.9964C60.9843 68.4431 60.9843 68.5633 61.5512 68.5633H95.9679C95.9679 68.5633 96.2664 68.5032 96.3265 68.3249H96.1805H96.1827ZM96.1827 87.2931C95.6759 87.2373 95.1648 87.2373 94.658 87.2931H61.5834C61.1367 87.2931 60.9864 87.2931 60.9864 87.8901V98.2407C60.9864 98.7174 60.9864 98.8377 61.5834 98.8377H76.8537C77.5838 98.8935 78.314 98.8419 79.029 98.6895C81.2452 98.5306 83.4248 98.0496 85.5035 97.2572C86.2594 96.9952 86.9895 96.6537 87.6789 96.2436H87.8872C91.4669 94.3818 94.3745 91.457 96.2084 87.8665C96.2084 87.8665 96.4167 87.4155 96.1827 87.2974V87.2931ZM54.993 104.204V104.026V97.0768V94.721V87.7119C54.993 87.3232 54.993 87.2652 54.5162 87.2652H48.0439C47.6853 87.2652 47.5371 87.2652 47.5371 86.7885V81.1214H54.4561C54.8426 81.1214 54.993 81.1214 54.993 80.6146V75.0077C54.993 74.6491 54.993 74.5611 54.5162 74.5611H48.0439C47.6853 74.5611 47.5371 74.5611 47.5371 74.0843V68.836C47.5371 68.5075 47.5371 68.4194 48.0138 68.4194H54.426C54.8727 68.4194 54.993 68.4194 54.993 67.8525V51.7769C54.993 51.3002 54.993 51.1799 55.5899 51.1799H77.9575C79.5809 51.2444 81.1936 51.4226 82.7892 51.7168C86.0769 52.3245 89.2357 53.4991 92.124 55.1763C94.0395 56.3037 95.8026 57.6651 97.3723 59.2328C98.5534 60.4589 99.6185 61.786 100.563 63.1991C101.502 64.6314 102.281 66.1625 102.893 67.7623C102.969 68.1789 103.368 68.4602 103.785 68.3894H109.123C109.808 68.3894 109.808 68.3894 109.838 69.0465V73.9383C109.838 74.415 109.66 74.5353 109.181 74.5353H105.064C104.648 74.5353 104.528 74.5353 104.558 75.0721C104.721 76.8889 104.721 78.712 104.558 80.5287C104.558 81.0355 104.558 81.0957 105.127 81.0957H109.836C110.044 81.3641 109.836 81.6325 109.836 81.9031C109.866 82.2488 109.866 82.5989 109.836 82.9446V86.5544C109.836 87.0612 109.688 87.2115 109.239 87.2115H103.602C103.209 87.1364 102.827 87.3876 102.737 87.7784C101.394 91.268 99.247 94.3968 96.4725 96.905C95.459 97.8176 94.3938 98.6766 93.2815 99.469C92.0875 100.156 90.9258 100.871 89.7017 101.438C87.4491 102.452 85.0869 103.199 82.6625 103.674C80.3604 104.086 78.0262 104.273 75.6834 104.241H54.9844V104.21L54.993 104.204Z" fill="#FEFEFD"/>
</g>
<g style="mix-blend-mode:overlay" filter="url(#filter3_f_27_5931)">
<circle cx="457" cy="7.5" r="93" transform="rotate(90 457 7.5)" fill="url(#paint2_linear_27_5931)"/>
</g>
<g style="mix-blend-mode:overlay" opacity="0.5" filter="url(#filter4_f_27_5931)">
<circle cx="457" cy="7.5" r="93" transform="rotate(90 457 7.5)" fill="url(#paint3_linear_27_5931)"/>
</g>
</g>
</g>
<defs>
<filter id="filter0_b_27_5931" x="-30" y="-30" width="600" height="215" filterUnits="userSpaceOnUse" color-interpolation-filters="sRGB">
<feFlood flood-opacity="0" result="BackgroundImageFix"/>
<feGaussianBlur in="BackgroundImageFix" stdDeviation="15"/>
<feComposite in2="SourceAlpha" operator="in" result="effect1_backgroundBlur_27_5931"/>
<feBlend mode="normal" in="SourceGraphic" in2="effect1_backgroundBlur_27_5931" result="shape"/>
</filter>
<filter id="filter1_f_27_5931" x="-265.009" y="-218.009" width="546.018" height="546.018" filterUnits="userSpaceOnUse" color-interpolation-filters="sRGB">
<feFlood flood-opacity="0" result="BackgroundImageFix"/>
<feBlend mode="normal" in="SourceGraphic" in2="BackgroundImageFix" result="shape"/>
<feGaussianBlur stdDeviation="69.0046" result="effect1_foregroundBlur_27_5931"/>
</filter>
<filter id="filter2_f_27_5931" x="-265.009" y="-218.009" width="546.018" height="546.018" filterUnits="userSpaceOnUse" color-interpolation-filters="sRGB">
<feFlood flood-opacity="0" result="BackgroundImageFix"/>
<feBlend mode="normal" in="SourceGraphic" in2="BackgroundImageFix" result="shape"/>
<feGaussianBlur stdDeviation="69.0046" result="effect1_foregroundBlur_27_5931"/>
</filter>
<filter id="filter3_f_27_5931" x="268.927" y="-180.573" width="376.146" height="376.146" filterUnits="userSpaceOnUse" color-interpolation-filters="sRGB">
<feFlood flood-opacity="0" result="BackgroundImageFix"/>
<feBlend mode="normal" in="SourceGraphic" in2="BackgroundImageFix" result="shape"/>
<feGaussianBlur stdDeviation="47.5365" result="effect1_foregroundBlur_27_5931"/>
</filter>
<filter id="filter4_f_27_5931" x="268.927" y="-180.573" width="376.146" height="376.146" filterUnits="userSpaceOnUse" color-interpolation-filters="sRGB">
<feFlood flood-opacity="0" result="BackgroundImageFix"/>
<feBlend mode="normal" in="SourceGraphic" in2="BackgroundImageFix" result="shape"/>
<feGaussianBlur stdDeviation="47.5365" result="effect1_foregroundBlur_27_5931"/>
</filter>
<linearGradient id="paint0_linear_27_5931" x1="-95.0263" y1="-27.8947" x2="31.6842" y2="109.474" gradientUnits="userSpaceOnUse">
<stop stop-color="#C496FF"/>
<stop offset="1" stop-color="#FFA996"/>
</linearGradient>
<linearGradient id="paint1_linear_27_5931" x1="-95.0263" y1="-27.8947" x2="31.6842" y2="109.474" gradientUnits="userSpaceOnUse">
<stop stop-color="#129EF3"/>
<stop offset="1" stop-color="#F920FF"/>
</linearGradient>
<linearGradient id="paint2_linear_27_5931" x1="386.026" y1="-49.6053" x2="473.316" y2="45.0263" gradientUnits="userSpaceOnUse">
<stop stop-color="#C496FF"/>
<stop offset="1" stop-color="#FFA996"/>
</linearGradient>
<linearGradient id="paint3_linear_27_5931" x1="386.026" y1="-49.6053" x2="473.316" y2="45.0263" gradientUnits="userSpaceOnUse">
<stop stop-color="#129EF3"/>
<stop offset="1" stop-color="#F920FF"/>
</linearGradient>
<clipPath id="clip0_27_5931">
<rect width="540" height="155" rx="15" fill="white"/>
</clipPath>
<clipPath id="clip1_27_5931">
<rect x="15" y="15" width="125" height="125" rx="12" fill="white"/>
</clipPath>
</defs>
</svg>
