<svg width="540" height="155" viewBox="0 0 540 155" fill="none" xmlns="http://www.w3.org/2000/svg">
<g filter="url(#filter0_b_27_5966)">
<g clip-path="url(#clip0_27_5966)">
<rect width="540" height="155" rx="15" fill="#22113E"/>
<g style="mix-blend-mode:overlay" filter="url(#filter1_f_27_5966)">
<circle cx="8" cy="55" r="135" transform="rotate(-90 8 55)" fill="url(#paint0_linear_27_5966)"/>
</g>
<g style="mix-blend-mode:overlay" opacity="0.5" filter="url(#filter2_f_27_5966)">
<circle cx="8" cy="55" r="135" transform="rotate(-90 8 55)" fill="url(#paint1_linear_27_5966)"/>
</g>
<g style="mix-blend-mode:overlay" filter="url(#filter3_f_27_5966)">
<circle cx="460" cy="13" r="93" transform="rotate(90 460 13)" fill="url(#paint2_linear_27_5966)"/>
</g>
<g style="mix-blend-mode:overlay" opacity="0.5" filter="url(#filter4_f_27_5966)">
<circle cx="460" cy="13" r="93" transform="rotate(90 460 13)" fill="url(#paint3_linear_27_5966)"/>
</g>
<path d="M184.048 26.248L179.368 43H175.408L172.264 31.072L168.976 43L165.04 43.024L160.528 26.248H164.128L167.08 39.256L170.488 26.248H174.232L177.448 39.184L180.424 26.248H184.048ZM189.602 31.768C190.034 31.064 190.594 30.512 191.282 30.112C191.986 29.712 192.786 29.512 193.682 29.512V33.04H192.794C191.738 33.04 190.938 33.288 190.394 33.784C189.866 34.28 189.602 35.144 189.602 36.376V43H186.242V29.704H189.602V31.768ZM195.081 36.304C195.081 34.96 195.345 33.768 195.873 32.728C196.417 31.688 197.145 30.888 198.057 30.328C198.985 29.768 200.017 29.488 201.153 29.488C202.145 29.488 203.009 29.688 203.745 30.088C204.497 30.488 205.097 30.992 205.545 31.6V29.704H208.929V43H205.545V41.056C205.113 41.68 204.513 42.2 203.745 42.616C202.993 43.016 202.121 43.216 201.129 43.216C200.009 43.216 198.985 42.928 198.057 42.352C197.145 41.776 196.417 40.968 195.873 39.928C195.345 38.872 195.081 37.664 195.081 36.304ZM205.545 36.352C205.545 35.536 205.385 34.84 205.065 34.264C204.745 33.672 204.313 33.224 203.769 32.92C203.225 32.6 202.641 32.44 202.017 32.44C201.393 32.44 200.817 32.592 200.289 32.896C199.761 33.2 199.329 33.648 198.993 34.24C198.673 34.816 198.513 35.504 198.513 36.304C198.513 37.104 198.673 37.808 198.993 38.416C199.329 39.008 199.761 39.464 200.289 39.784C200.833 40.104 201.409 40.264 202.017 40.264C202.641 40.264 203.225 40.112 203.769 39.808C204.313 39.488 204.745 39.04 205.065 38.464C205.385 37.872 205.545 37.168 205.545 36.352ZM215.571 31.624C216.003 31.016 216.595 30.512 217.347 30.112C218.115 29.696 218.987 29.488 219.963 29.488C221.099 29.488 222.123 29.768 223.035 30.328C223.963 30.888 224.691 31.688 225.219 32.728C225.763 33.752 226.035 34.944 226.035 36.304C226.035 37.664 225.763 38.872 225.219 39.928C224.691 40.968 223.963 41.776 223.035 42.352C222.123 42.928 221.099 43.216 219.963 43.216C218.987 43.216 218.123 43.016 217.371 42.616C216.635 42.216 216.035 41.712 215.571 41.104V49.336H212.211V29.704H215.571V31.624ZM222.603 36.304C222.603 35.504 222.435 34.816 222.099 34.24C221.779 33.648 221.347 33.2 220.803 32.896C220.275 32.592 219.699 32.44 219.075 32.44C218.467 32.44 217.891 32.6 217.347 32.92C216.819 33.224 216.387 33.672 216.051 34.264C215.731 34.856 215.571 35.552 215.571 36.352C215.571 37.152 215.731 37.848 216.051 38.44C216.387 39.032 216.819 39.488 217.347 39.808C217.891 40.112 218.467 40.264 219.075 40.264C219.699 40.264 220.275 40.104 220.803 39.784C221.347 39.464 221.779 39.008 222.099 38.416C222.435 37.824 222.603 37.12 222.603 36.304ZM231.836 31.624C232.268 31.016 232.86 30.512 233.612 30.112C234.38 29.696 235.252 29.488 236.228 29.488C237.364 29.488 238.388 29.768 239.3 30.328C240.228 30.888 240.956 31.688 241.484 32.728C242.028 33.752 242.3 34.944 242.3 36.304C242.3 37.664 242.028 38.872 241.484 39.928C240.956 40.968 240.228 41.776 239.3 42.352C238.388 42.928 237.364 43.216 236.228 43.216C235.252 43.216 234.388 43.016 233.636 42.616C232.9 42.216 232.3 41.712 231.836 41.104V49.336H228.476V29.704H231.836V31.624ZM238.868 36.304C238.868 35.504 238.7 34.816 238.364 34.24C238.044 33.648 237.612 33.2 237.068 32.896C236.54 32.592 235.964 32.44 235.34 32.44C234.732 32.44 234.156 32.6 233.612 32.92C233.084 33.224 232.652 33.672 232.316 34.264C231.996 34.856 231.836 35.552 231.836 36.352C231.836 37.152 231.996 37.848 232.316 38.44C232.652 39.032 233.084 39.488 233.612 39.808C234.156 40.112 234.732 40.264 235.34 40.264C235.964 40.264 236.54 40.104 237.068 39.784C237.612 39.464 238.044 39.008 238.364 38.416C238.7 37.824 238.868 37.12 238.868 36.304ZM257.102 36.064C257.102 36.544 257.07 36.976 257.006 37.36H247.286C247.366 38.32 247.702 39.072 248.294 39.616C248.886 40.16 249.614 40.432 250.478 40.432C251.726 40.432 252.614 39.896 253.142 38.824H256.766C256.382 40.104 255.646 41.16 254.558 41.992C253.47 42.808 252.134 43.216 250.55 43.216C249.27 43.216 248.118 42.936 247.094 42.376C246.086 41.8 245.294 40.992 244.718 39.952C244.158 38.912 243.878 37.712 243.878 36.352C243.878 34.976 244.158 33.768 244.718 32.728C245.278 31.688 246.062 30.888 247.07 30.328C248.078 29.768 249.238 29.488 250.55 29.488C251.814 29.488 252.942 29.76 253.934 30.304C254.942 30.848 255.718 31.624 256.262 32.632C256.822 33.624 257.102 34.768 257.102 36.064ZM253.622 35.104C253.606 34.24 253.294 33.552 252.686 33.04C252.078 32.512 251.334 32.248 250.454 32.248C249.622 32.248 248.918 32.504 248.342 33.016C247.782 33.512 247.438 34.208 247.31 35.104H253.622ZM258.69 36.304C258.69 34.96 258.954 33.768 259.482 32.728C260.026 31.688 260.762 30.888 261.69 30.328C262.618 29.768 263.65 29.488 264.786 29.488C265.65 29.488 266.474 29.68 267.258 30.064C268.042 30.432 268.666 30.928 269.13 31.552V25.24H272.538V43H269.13V41.032C268.714 41.688 268.13 42.216 267.378 42.616C266.626 43.016 265.754 43.216 264.762 43.216C263.642 43.216 262.618 42.928 261.69 42.352C260.762 41.776 260.026 40.968 259.482 39.928C258.954 38.872 258.69 37.664 258.69 36.304ZM269.154 36.352C269.154 35.536 268.994 34.84 268.674 34.264C268.354 33.672 267.922 33.224 267.378 32.92C266.834 32.6 266.25 32.44 265.626 32.44C265.002 32.44 264.426 32.592 263.898 32.896C263.37 33.2 262.938 33.648 262.602 34.24C262.282 34.816 262.122 35.504 262.122 36.304C262.122 37.104 262.282 37.808 262.602 38.416C262.938 39.008 263.37 39.464 263.898 39.784C264.442 40.104 265.018 40.264 265.626 40.264C266.25 40.264 266.834 40.112 267.378 39.808C267.922 39.488 268.354 39.04 268.674 38.464C268.994 37.872 269.154 37.168 269.154 36.352ZM291.043 34.408C291.987 34.584 292.763 35.056 293.371 35.824C293.979 36.592 294.283 37.472 294.283 38.464C294.283 39.36 294.059 40.152 293.611 40.84C293.179 41.512 292.547 42.04 291.715 42.424C290.883 42.808 289.899 43 288.763 43H281.539V26.248H288.451C289.587 26.248 290.563 26.432 291.379 26.8C292.211 27.168 292.835 27.68 293.251 28.336C293.683 28.992 293.899 29.736 293.899 30.568C293.899 31.544 293.635 32.36 293.107 33.016C292.595 33.672 291.907 34.136 291.043 34.408ZM284.899 33.16H287.971C288.771 33.16 289.387 32.984 289.819 32.632C290.251 32.264 290.467 31.744 290.467 31.072C290.467 30.4 290.251 29.88 289.819 29.512C289.387 29.144 288.771 28.96 287.971 28.96H284.899V33.16ZM288.283 40.264C289.099 40.264 289.731 40.072 290.179 39.688C290.643 39.304 290.875 38.76 290.875 38.056C290.875 37.336 290.635 36.776 290.155 36.376C289.675 35.96 289.027 35.752 288.211 35.752H284.899V40.264H288.283ZM298.665 28.12C298.073 28.12 297.577 27.936 297.177 27.568C296.793 27.184 296.601 26.712 296.601 26.152C296.601 25.592 296.793 25.128 297.177 24.76C297.577 24.376 298.073 24.184 298.665 24.184C299.257 24.184 299.745 24.376 300.129 24.76C300.529 25.128 300.729 25.592 300.729 26.152C300.729 26.712 300.529 27.184 300.129 27.568C299.745 27.936 299.257 28.12 298.665 28.12ZM300.321 29.704V43H296.961V29.704H300.321ZM307.552 32.464V38.896C307.552 39.344 307.656 39.672 307.864 39.88C308.088 40.072 308.456 40.168 308.968 40.168H310.528V43H308.416C305.584 43 304.168 41.624 304.168 38.872V32.464H302.584V29.704H304.168V26.416H307.552V29.704H310.528V32.464H307.552ZM312.081 36.352C312.081 34.976 312.361 33.776 312.921 32.752C313.481 31.712 314.257 30.912 315.249 30.352C316.241 29.776 317.377 29.488 318.657 29.488C320.305 29.488 321.665 29.904 322.737 30.736C323.825 31.552 324.553 32.704 324.921 34.192H321.297C321.105 33.616 320.777 33.168 320.313 32.848C319.865 32.512 319.305 32.344 318.633 32.344C317.673 32.344 316.913 32.696 316.353 33.4C315.793 34.088 315.513 35.072 315.513 36.352C315.513 37.616 315.793 38.6 316.353 39.304C316.913 39.992 317.673 40.336 318.633 40.336C319.993 40.336 320.881 39.728 321.297 38.512H324.921C324.553 39.952 323.825 41.096 322.737 41.944C321.649 42.792 320.289 43.216 318.657 43.216C317.377 43.216 316.241 42.936 315.249 42.376C314.257 41.8 313.481 41 312.921 39.976C312.361 38.936 312.081 37.728 312.081 36.352ZM333.287 43.216C332.007 43.216 330.855 42.936 329.831 42.376C328.807 41.8 327.999 40.992 327.407 39.952C326.831 38.912 326.543 37.712 326.543 36.352C326.543 34.992 326.839 33.792 327.431 32.752C328.039 31.712 328.863 30.912 329.903 30.352C330.943 29.776 332.103 29.488 333.383 29.488C334.663 29.488 335.823 29.776 336.863 30.352C337.903 30.912 338.719 31.712 339.311 32.752C339.919 33.792 340.223 34.992 340.223 36.352C340.223 37.712 339.911 38.912 339.287 39.952C338.679 40.992 337.847 41.8 336.791 42.376C335.751 42.936 334.583 43.216 333.287 43.216ZM333.287 40.288C333.895 40.288 334.463 40.144 334.991 39.856C335.535 39.552 335.967 39.104 336.287 38.512C336.607 37.92 336.767 37.2 336.767 36.352C336.767 35.088 336.431 34.12 335.759 33.448C335.103 32.76 334.295 32.416 333.335 32.416C332.375 32.416 331.567 32.76 330.911 33.448C330.271 34.12 329.951 35.088 329.951 36.352C329.951 37.616 330.263 38.592 330.887 39.28C331.527 39.952 332.327 40.288 333.287 40.288ZM344.391 28.12C343.799 28.12 343.303 27.936 342.903 27.568C342.519 27.184 342.327 26.712 342.327 26.152C342.327 25.592 342.519 25.128 342.903 24.76C343.303 24.376 343.799 24.184 344.391 24.184C344.983 24.184 345.471 24.376 345.855 24.76C346.255 25.128 346.455 25.592 346.455 26.152C346.455 26.712 346.255 27.184 345.855 27.568C345.471 27.936 344.983 28.12 344.391 28.12ZM346.047 29.704V43H342.687V29.704H346.047ZM356.735 29.512C358.319 29.512 359.599 30.016 360.575 31.024C361.551 32.016 362.039 33.408 362.039 35.2V43H358.679V35.656C358.679 34.6 358.415 33.792 357.887 33.232C357.359 32.656 356.639 32.368 355.727 32.368C354.799 32.368 354.063 32.656 353.519 33.232C352.991 33.792 352.727 34.6 352.727 35.656V43H349.367V29.704H352.727V31.36C353.175 30.784 353.743 30.336 354.431 30.016C355.135 29.68 355.903 29.512 356.735 29.512Z" fill="white"/>
<rect x="368" y="22" width="38" height="15" rx="4" fill="white" fill-opacity="0.1"/>
<path d="M381.53 26.03L379.51 33H378.49L376.87 27.39L375.19 33L374.18 33.01L372.23 26.03H373.2L374.72 31.94L376.4 26.03H377.42L379.02 31.92L380.55 26.03H381.53ZM386.016 29.41C386.269 29.45 386.499 29.5533 386.706 29.72C386.919 29.8867 387.086 30.0933 387.206 30.34C387.333 30.5867 387.396 30.85 387.396 31.13C387.396 31.4833 387.306 31.8033 387.126 32.09C386.946 32.37 386.683 32.5933 386.336 32.76C385.996 32.92 385.593 33 385.126 33H382.526V26.03H385.026C385.499 26.03 385.903 26.11 386.236 26.27C386.569 26.4233 386.819 26.6333 386.986 26.9C387.153 27.1667 387.236 27.4667 387.236 27.8C387.236 28.2133 387.123 28.5567 386.896 28.83C386.676 29.0967 386.383 29.29 386.016 29.41ZM383.436 29.04H384.966C385.393 29.04 385.723 28.94 385.956 28.74C386.189 28.54 386.306 28.2633 386.306 27.91C386.306 27.5567 386.189 27.28 385.956 27.08C385.723 26.88 385.386 26.78 384.946 26.78H383.436V29.04ZM385.046 32.25C385.499 32.25 385.853 32.1433 386.106 31.93C386.359 31.7167 386.486 31.42 386.486 31.04C386.486 30.6533 386.353 30.35 386.086 30.13C385.819 29.9033 385.463 29.79 385.016 29.79H383.436V32.25H385.046ZM392.949 26.03V26.77H391.049V33H390.139V26.77H388.229V26.03H392.949ZM393.729 29.51C393.729 28.83 393.882 28.22 394.189 27.68C394.495 27.1333 394.912 26.7067 395.439 26.4C395.972 26.0933 396.562 25.94 397.209 25.94C397.969 25.94 398.632 26.1233 399.199 26.49C399.765 26.8567 400.179 27.3767 400.439 28.05H399.349C399.155 27.63 398.875 27.3067 398.509 27.08C398.149 26.8533 397.715 26.74 397.209 26.74C396.722 26.74 396.285 26.8533 395.899 27.08C395.512 27.3067 395.209 27.63 394.989 28.05C394.769 28.4633 394.659 28.95 394.659 29.51C394.659 30.0633 394.769 30.55 394.989 30.97C395.209 31.3833 395.512 31.7033 395.899 31.93C396.285 32.1567 396.722 32.27 397.209 32.27C397.715 32.27 398.149 32.16 398.509 31.94C398.875 31.7133 399.155 31.39 399.349 30.97H400.439C400.179 31.6367 399.765 32.1533 399.199 32.52C398.632 32.88 397.969 33.06 397.209 33.06C396.562 33.06 395.972 32.91 395.439 32.61C394.912 32.3033 394.495 31.88 394.189 31.34C393.882 30.8 393.729 30.19 393.729 29.51Z" fill="white"/>
<path d="M506.731 26.5101L508.491 30.0301C508.731 30.5201 509.371 30.9901 509.911 31.0801L513.101 31.6101C515.141 31.9501 515.621 33.4301 514.151 34.8901L511.671 37.3701C511.251 37.7901 511.021 38.6001 511.151 39.1801L511.861 42.2501C512.421 44.6801 511.131 45.6201 508.981 44.3501L505.991 42.5801C505.451 42.2601 504.561 42.2601 504.011 42.5801L501.021 44.3501C498.881 45.6201 497.581 44.6701 498.141 42.2501L498.851 39.1801C498.981 38.6001 498.751 37.7901 498.331 37.3701L495.851 34.8901C494.391 33.4301 494.861 31.9501 496.901 31.6101L500.091 31.0801C500.621 30.9901 501.261 30.5201 501.501 30.0301L503.261 26.5101C504.221 24.6001 505.781 24.6001 506.731 26.5101Z" stroke="white" stroke-opacity="0.5" stroke-width="1.5" stroke-linecap="round" stroke-linejoin="round"/>
<rect x="485.5" y="15.5" width="39" height="39" rx="19.5" stroke="white" stroke-opacity="0.15"/>
<path d="M167.536 74.848V76.032H162.688V79.792H166.624V80.976H162.688V86H161.232V74.848H167.536ZM170.751 74.16V86H169.295V74.16H170.751ZM177.056 86.144C176.235 86.144 175.488 85.9573 174.816 85.584C174.155 85.2107 173.632 84.6827 173.248 84C172.875 83.3067 172.688 82.5067 172.688 81.6C172.688 80.704 172.88 79.9147 173.264 79.232C173.659 78.5387 174.192 78.0107 174.864 77.648C175.536 77.2747 176.288 77.088 177.12 77.088C177.952 77.088 178.704 77.2747 179.376 77.648C180.048 78.0107 180.576 78.5333 180.96 79.216C181.355 79.8987 181.552 80.6933 181.552 81.6C181.552 82.5067 181.349 83.3067 180.944 84C180.549 84.6827 180.011 85.2107 179.328 85.584C178.645 85.9573 177.888 86.144 177.056 86.144ZM177.056 84.864C177.579 84.864 178.069 84.7413 178.528 84.496C178.987 84.2507 179.355 83.8827 179.632 83.392C179.92 82.9013 180.064 82.304 180.064 81.6C180.064 80.896 179.925 80.2987 179.648 79.808C179.371 79.3173 179.008 78.9547 178.56 78.72C178.112 78.4747 177.627 78.352 177.104 78.352C176.571 78.352 176.08 78.4747 175.632 78.72C175.195 78.9547 174.843 79.3173 174.576 79.808C174.309 80.2987 174.176 80.896 174.176 81.6C174.176 82.3147 174.304 82.9173 174.56 83.408C174.827 83.8987 175.179 84.2667 175.616 84.512C176.053 84.7467 176.533 84.864 177.056 84.864ZM187.29 86.144C186.469 86.144 185.722 85.9573 185.05 85.584C184.389 85.2107 183.866 84.6827 183.482 84C183.109 83.3067 182.922 82.5067 182.922 81.6C182.922 80.704 183.114 79.9147 183.498 79.232C183.893 78.5387 184.426 78.0107 185.098 77.648C185.77 77.2747 186.522 77.088 187.354 77.088C188.186 77.088 188.938 77.2747 189.61 77.648C190.282 78.0107 190.81 78.5333 191.194 79.216C191.589 79.8987 191.786 80.6933 191.786 81.6C191.786 82.5067 191.584 83.3067 191.178 84C190.784 84.6827 190.245 85.2107 189.562 85.584C188.88 85.9573 188.122 86.144 187.29 86.144ZM187.29 84.864C187.813 84.864 188.304 84.7413 188.762 84.496C189.221 84.2507 189.589 83.8827 189.866 83.392C190.154 82.9013 190.298 82.304 190.298 81.6C190.298 80.896 190.16 80.2987 189.882 79.808C189.605 79.3173 189.242 78.9547 188.794 78.72C188.346 78.4747 187.861 78.352 187.338 78.352C186.805 78.352 186.314 78.4747 185.866 78.72C185.429 78.9547 185.077 79.3173 184.81 79.808C184.544 80.2987 184.41 80.896 184.41 81.6C184.41 82.3147 184.538 82.9173 184.794 83.408C185.061 83.8987 185.413 84.2667 185.85 84.512C186.288 84.7467 186.768 84.864 187.29 84.864ZM195.157 78.656C195.413 78.1547 195.775 77.7653 196.245 77.488C196.725 77.2107 197.306 77.072 197.989 77.072V78.576H197.605C195.973 78.576 195.157 79.4613 195.157 81.232V86H193.701V77.232H195.157V78.656ZM205.391 78.848C205.679 78.3467 206.106 77.9307 206.671 77.6C207.247 77.2587 207.914 77.088 208.671 77.088C209.45 77.088 210.154 77.2747 210.783 77.648C211.423 78.0213 211.924 78.5493 212.287 79.232C212.65 79.904 212.831 80.688 212.831 81.584C212.831 82.4693 212.65 83.2587 212.287 83.952C211.924 84.6453 211.423 85.184 210.783 85.568C210.154 85.952 209.45 86.144 208.671 86.144C207.924 86.144 207.263 85.9787 206.687 85.648C206.122 85.3067 205.69 84.8853 205.391 84.384V90.16H203.935V77.232H205.391V78.848ZM211.343 81.584C211.343 80.9227 211.21 80.3467 210.943 79.856C210.676 79.3653 210.314 78.992 209.855 78.736C209.407 78.48 208.911 78.352 208.367 78.352C207.834 78.352 207.338 78.4853 206.879 78.752C206.431 79.008 206.068 79.3867 205.791 79.888C205.524 80.3787 205.391 80.9493 205.391 81.6C205.391 82.2613 205.524 82.8427 205.791 83.344C206.068 83.8347 206.431 84.2133 206.879 84.48C207.338 84.736 207.834 84.864 208.367 84.864C208.911 84.864 209.407 84.736 209.855 84.48C210.314 84.2133 210.676 83.8347 210.943 83.344C211.21 82.8427 211.343 82.256 211.343 81.584ZM216.204 78.656C216.46 78.1547 216.822 77.7653 217.292 77.488C217.772 77.2107 218.353 77.072 219.036 77.072V78.576H218.652C217.02 78.576 216.204 79.4613 216.204 81.232V86H214.748V77.232H216.204V78.656ZM221.468 75.808C221.191 75.808 220.956 75.712 220.764 75.52C220.572 75.328 220.476 75.0933 220.476 74.816C220.476 74.5387 220.572 74.304 220.764 74.112C220.956 73.92 221.191 73.824 221.468 73.824C221.735 73.824 221.959 73.92 222.14 74.112C222.332 74.304 222.428 74.5387 222.428 74.816C222.428 75.0933 222.332 75.328 222.14 75.52C221.959 75.712 221.735 75.808 221.468 75.808ZM222.172 77.232V86H220.716V77.232H222.172ZM224.11 81.6C224.11 80.6933 224.291 79.904 224.654 79.232C225.017 78.5493 225.518 78.0213 226.158 77.648C226.809 77.2747 227.55 77.088 228.382 77.088C229.459 77.088 230.345 77.3493 231.038 77.872C231.742 78.3947 232.206 79.12 232.43 80.048H230.862C230.713 79.5147 230.419 79.0933 229.982 78.784C229.555 78.4747 229.022 78.32 228.382 78.32C227.55 78.32 226.878 78.608 226.366 79.184C225.854 79.7493 225.598 80.5547 225.598 81.6C225.598 82.656 225.854 83.472 226.366 84.048C226.878 84.624 227.55 84.912 228.382 84.912C229.022 84.912 229.555 84.7627 229.982 84.464C230.409 84.1653 230.702 83.7387 230.862 83.184H232.43C232.195 84.08 231.726 84.8 231.022 85.344C230.318 85.8773 229.438 86.144 228.382 86.144C227.55 86.144 226.809 85.9573 226.158 85.584C225.518 85.2107 225.017 84.6827 224.654 84C224.291 83.3173 224.11 82.5173 224.11 81.6ZM242.373 81.28C242.373 81.5573 242.357 81.8507 242.325 82.16H235.317C235.37 83.024 235.663 83.7013 236.197 84.192C236.741 84.672 237.397 84.912 238.165 84.912C238.794 84.912 239.317 84.768 239.733 84.48C240.159 84.1813 240.458 83.7867 240.629 83.296H242.197C241.962 84.1387 241.493 84.8267 240.789 85.36C240.085 85.8827 239.21 86.144 238.165 86.144C237.333 86.144 236.586 85.9573 235.925 85.584C235.274 85.2107 234.762 84.6827 234.389 84C234.015 83.3067 233.829 82.5067 233.829 81.6C233.829 80.6933 234.01 79.8987 234.373 79.216C234.735 78.5333 235.242 78.0107 235.893 77.648C236.554 77.2747 237.311 77.088 238.165 77.088C238.997 77.088 239.733 77.2693 240.373 77.632C241.013 77.9947 241.503 78.496 241.845 79.136C242.197 79.7653 242.373 80.48 242.373 81.28ZM240.869 80.976C240.869 80.4213 240.746 79.9467 240.501 79.552C240.255 79.1467 239.919 78.8427 239.493 78.64C239.077 78.4267 238.613 78.32 238.101 78.32C237.365 78.32 236.735 78.5547 236.213 79.024C235.701 79.4933 235.407 80.144 235.333 80.976H240.869ZM244.759 86.096C244.481 86.096 244.247 86 244.055 85.808C243.863 85.616 243.767 85.3813 243.767 85.104C243.767 84.8267 243.863 84.592 244.055 84.4C244.247 84.208 244.481 84.112 244.759 84.112C245.025 84.112 245.249 84.208 245.431 84.4C245.623 84.592 245.719 84.8267 245.719 85.104C245.719 85.3813 245.623 85.616 245.431 85.808C245.249 86 245.025 86.096 244.759 86.096ZM244.759 79.248C244.481 79.248 244.247 79.152 244.055 78.96C243.863 78.768 243.767 78.5333 243.767 78.256C243.767 77.9787 243.863 77.744 244.055 77.552C244.247 77.36 244.481 77.264 244.759 77.264C245.025 77.264 245.249 77.36 245.431 77.552C245.623 77.744 245.719 77.9787 245.719 78.256C245.719 78.5333 245.623 78.768 245.431 78.96C245.249 79.152 245.025 79.248 244.759 79.248Z" fill="white" fill-opacity="0.5"/>
<path d="M263.432 82.944C263.432 83.456 263.304 83.9467 263.048 84.416C262.792 84.8747 262.413 85.2587 261.912 85.568C261.421 85.8773 260.829 86.0533 260.136 86.096V87.392H259.272V86.096C258.301 86.0107 257.512 85.7013 256.904 85.168C256.296 84.624 255.987 83.936 255.976 83.104H257.528C257.571 83.552 257.736 83.9413 258.024 84.272C258.323 84.6027 258.739 84.8107 259.272 84.896V80.896C258.557 80.7147 257.981 80.528 257.544 80.336C257.107 80.144 256.733 79.8453 256.424 79.44C256.115 79.0347 255.96 78.4907 255.96 77.808C255.96 76.944 256.259 76.2293 256.856 75.664C257.464 75.0987 258.269 74.784 259.272 74.72V73.392H260.136V74.72C261.043 74.7947 261.773 75.088 262.328 75.6C262.883 76.1013 263.203 76.7573 263.288 77.568H261.736C261.683 77.1947 261.517 76.8587 261.24 76.56C260.963 76.2507 260.595 76.048 260.136 75.952V79.856C260.84 80.0373 261.411 80.224 261.848 80.416C262.296 80.5973 262.669 80.8907 262.968 81.296C263.277 81.7013 263.432 82.2507 263.432 82.944ZM257.448 77.728C257.448 78.2507 257.603 78.6507 257.912 78.928C258.221 79.2053 258.675 79.4347 259.272 79.616V75.92C258.717 75.9733 258.275 76.1547 257.944 76.464C257.613 76.7627 257.448 77.184 257.448 77.728ZM260.136 84.912C260.712 84.848 261.16 84.64 261.48 84.288C261.811 83.936 261.976 83.5147 261.976 83.024C261.976 82.5013 261.816 82.1013 261.496 81.824C261.176 81.536 260.723 81.3067 260.136 81.136V84.912ZM265.561 75.76V74.432H268.569V86H267.097V75.76H265.561ZM278.446 75.696H272.83V79.344C273.075 79.0027 273.438 78.7253 273.918 78.512C274.398 78.288 274.915 78.176 275.47 78.176C276.355 78.176 277.075 78.3627 277.63 78.736C278.185 79.0987 278.579 79.5733 278.814 80.16C279.059 80.736 279.182 81.3493 279.182 82C279.182 82.768 279.038 83.456 278.75 84.064C278.462 84.672 278.019 85.152 277.422 85.504C276.835 85.856 276.105 86.032 275.23 86.032C274.11 86.032 273.203 85.744 272.51 85.168C271.817 84.592 271.395 83.824 271.246 82.864H272.67C272.809 83.472 273.102 83.9467 273.55 84.288C273.998 84.6293 274.563 84.8 275.246 84.8C276.089 84.8 276.723 84.5493 277.15 84.048C277.577 83.536 277.79 82.864 277.79 82.032C277.79 81.2 277.577 80.56 277.15 80.112C276.723 79.6533 276.094 79.424 275.262 79.424C274.697 79.424 274.201 79.5627 273.774 79.84C273.358 80.1067 273.054 80.4747 272.862 80.944H271.486V74.416H278.446V75.696ZM281.821 86.096C281.544 86.096 281.309 86 281.117 85.808C280.925 85.616 280.829 85.3813 280.829 85.104C280.829 84.8267 280.925 84.592 281.117 84.4C281.309 84.208 281.544 84.112 281.821 84.112C282.088 84.112 282.312 84.208 282.493 84.4C282.685 84.592 282.781 84.8267 282.781 85.104C282.781 85.3813 282.685 85.616 282.493 85.808C282.312 86 282.088 86.096 281.821 86.096ZM291.596 75.568L287.148 86H285.676L290.188 75.712H284.012V74.464H291.596V75.568ZM293.211 80.096C293.211 78.2613 293.509 76.832 294.107 75.808C294.704 74.7733 295.749 74.256 297.243 74.256C298.725 74.256 299.765 74.7733 300.363 75.808C300.96 76.832 301.259 78.2613 301.259 80.096C301.259 81.9627 300.96 83.4133 300.363 84.448C299.765 85.4827 298.725 86 297.243 86C295.749 86 294.704 85.4827 294.107 84.448C293.509 83.4133 293.211 81.9627 293.211 80.096ZM299.819 80.096C299.819 79.168 299.755 78.384 299.627 77.744C299.509 77.0933 299.259 76.5707 298.875 76.176C298.501 75.7813 297.957 75.584 297.243 75.584C296.517 75.584 295.963 75.7813 295.579 76.176C295.205 76.5707 294.955 77.0933 294.827 77.744C294.709 78.384 294.651 79.168 294.651 80.096C294.651 81.056 294.709 81.8613 294.827 82.512C294.955 83.1627 295.205 83.6853 295.579 84.08C295.963 84.4747 296.517 84.672 297.243 84.672C297.957 84.672 298.501 84.4747 298.875 84.08C299.259 83.6853 299.509 83.1627 299.627 82.512C299.755 81.8613 299.819 81.056 299.819 80.096Z" fill="white"/>
<path d="M483 76L488.196 82H477.804L483 76Z" fill="#39DF1E"/>
<path d="M497.608 75.76V74.432H500.616V86H499.144V75.76H497.608ZM503.821 86.096C503.544 86.096 503.309 86 503.117 85.808C502.925 85.616 502.829 85.3813 502.829 85.104C502.829 84.8267 502.925 84.592 503.117 84.4C503.309 84.208 503.544 84.112 503.821 84.112C504.088 84.112 504.312 84.208 504.493 84.4C504.685 84.592 504.781 84.8267 504.781 85.104C504.781 85.3813 504.685 85.616 504.493 85.808C504.312 86 504.088 86.096 503.821 86.096ZM513.596 75.568L509.148 86H507.676L512.188 75.712H506.012V74.464H513.596V75.568ZM517.083 82.896C517.189 83.504 517.435 83.9733 517.819 84.304C518.213 84.6347 518.741 84.8 519.403 84.8C520.288 84.8 520.939 84.4533 521.355 83.76C521.781 83.0667 521.984 81.8987 521.963 80.256C521.739 80.736 521.365 81.1147 520.843 81.392C520.32 81.6587 519.739 81.792 519.099 81.792C518.384 81.792 517.744 81.648 517.179 81.36C516.624 81.0613 516.187 80.6293 515.867 80.064C515.547 79.4987 515.387 78.816 515.387 78.016C515.387 76.8747 515.717 75.9573 516.379 75.264C517.04 74.56 517.979 74.208 519.195 74.208C520.688 74.208 521.733 74.6933 522.331 75.664C522.939 76.6347 523.243 78.08 523.243 80C523.243 81.344 523.12 82.4533 522.875 83.328C522.64 84.2027 522.235 84.8693 521.659 85.328C521.093 85.7867 520.315 86.016 519.323 86.016C518.235 86.016 517.387 85.7227 516.779 85.136C516.171 84.5493 515.824 83.8027 515.739 82.896H517.083ZM519.339 80.56C520.053 80.56 520.64 80.3413 521.099 79.904C521.557 79.456 521.787 78.8533 521.787 78.096C521.787 77.296 521.563 76.6507 521.115 76.16C520.667 75.6693 520.037 75.424 519.227 75.424C518.48 75.424 517.883 75.6587 517.435 76.128C516.997 76.5973 516.779 77.216 516.779 77.984C516.779 78.7627 516.997 79.3867 517.435 79.856C517.872 80.3253 518.507 80.56 519.339 80.56Z" fill="#39DF1E"/>
<rect x="160" y="106" width="107" height="34" rx="17" fill="black" fill-opacity="0.3"/>
<path d="M183.104 129L180.448 124.44H178.688V129H177.232V117.848H180.832C181.675 117.848 182.384 117.992 182.96 118.28C183.547 118.568 183.984 118.957 184.272 119.448C184.56 119.939 184.704 120.499 184.704 121.128C184.704 121.896 184.48 122.573 184.032 123.16C183.595 123.747 182.933 124.136 182.048 124.328L184.848 129H183.104ZM178.688 123.272H180.832C181.621 123.272 182.213 123.08 182.608 122.696C183.003 122.301 183.2 121.779 183.2 121.128C183.2 120.467 183.003 119.955 182.608 119.592C182.224 119.229 181.632 119.048 180.832 119.048H178.688V123.272ZM186.422 124.584C186.422 123.688 186.604 122.904 186.966 122.232C187.329 121.549 187.825 121.021 188.454 120.648C189.094 120.275 189.804 120.088 190.582 120.088C191.35 120.088 192.017 120.253 192.582 120.584C193.148 120.915 193.569 121.331 193.846 121.832V120.232H195.318V129H193.846V127.368C193.558 127.88 193.126 128.307 192.55 128.648C191.985 128.979 191.324 129.144 190.566 129.144C189.788 129.144 189.084 128.952 188.454 128.568C187.825 128.184 187.329 127.645 186.966 126.952C186.604 126.259 186.422 125.469 186.422 124.584ZM193.846 124.6C193.846 123.939 193.713 123.363 193.446 122.872C193.18 122.381 192.817 122.008 192.358 121.752C191.91 121.485 191.414 121.352 190.87 121.352C190.326 121.352 189.83 121.48 189.382 121.736C188.934 121.992 188.577 122.365 188.31 122.856C188.044 123.347 187.91 123.923 187.91 124.584C187.91 125.256 188.044 125.843 188.31 126.344C188.577 126.835 188.934 127.213 189.382 127.48C189.83 127.736 190.326 127.864 190.87 127.864C191.414 127.864 191.91 127.736 192.358 127.48C192.817 127.213 193.18 126.835 193.446 126.344C193.713 125.843 193.846 125.261 193.846 124.6ZM202.051 120.072C203.118 120.072 203.982 120.397 204.643 121.048C205.304 121.688 205.635 122.616 205.635 123.832V129H204.195V124.04C204.195 123.165 203.976 122.499 203.539 122.04C203.102 121.571 202.504 121.336 201.747 121.336C200.979 121.336 200.366 121.576 199.907 122.056C199.459 122.536 199.235 123.235 199.235 124.152V129H197.779V120.232H199.235V121.48C199.523 121.032 199.912 120.685 200.403 120.44C200.904 120.195 201.454 120.072 202.051 120.072ZM212.909 129L209.469 125.128V129H208.013V117.16H209.469V124.12L212.845 120.232H214.877L210.749 124.6L214.893 129H212.909ZM220.801 129V117.576H222.417L227.617 126.984H227.681C227.671 126.707 227.655 126.387 227.633 126.024C227.612 125.661 227.596 125.299 227.585 124.936C227.575 124.563 227.569 124.243 227.569 123.976V117.576H228.833V129H227.265L222.001 119.56H221.937C221.959 119.837 221.975 120.168 221.985 120.552C222.007 120.925 222.023 121.299 222.033 121.672C222.055 122.045 222.065 122.376 222.065 122.664V129H220.801ZM230.353 129V127.896H234.465V129H230.353ZM232.401 126.856C231.943 126.856 231.532 126.755 231.169 126.552C230.817 126.339 230.54 126.029 230.337 125.624C230.135 125.219 230.033 124.723 230.033 124.136C230.033 123.261 230.247 122.595 230.673 122.136C231.111 121.667 231.703 121.432 232.449 121.432C232.908 121.432 233.313 121.539 233.665 121.752C234.028 121.955 234.311 122.259 234.513 122.664C234.727 123.059 234.833 123.549 234.833 124.136C234.833 125.011 234.615 125.683 234.177 126.152C233.74 126.621 233.148 126.856 232.401 126.856ZM232.433 125.928C232.903 125.928 233.239 125.779 233.441 125.48C233.644 125.171 233.745 124.723 233.745 124.136C233.745 123.539 233.644 123.101 233.441 122.824C233.239 122.536 232.903 122.392 232.433 122.392C231.975 122.392 231.639 122.536 231.425 122.824C231.212 123.101 231.105 123.539 231.105 124.136C231.105 124.723 231.207 125.171 231.409 125.48C231.623 125.779 231.964 125.928 232.433 125.928ZM236.202 118.76V117.432H239.21V129H237.738V118.76H236.202ZM248.159 120.184C247.924 119 247.193 118.408 245.967 118.408C245.017 118.408 244.308 118.776 243.839 119.512C243.369 120.237 243.14 121.437 243.151 123.112C243.396 122.557 243.801 122.125 244.367 121.816C244.943 121.496 245.583 121.336 246.287 121.336C247.385 121.336 248.26 121.677 248.911 122.36C249.572 123.043 249.903 123.987 249.903 125.192C249.903 125.917 249.759 126.568 249.471 127.144C249.193 127.72 248.767 128.179 248.191 128.52C247.625 128.861 246.937 129.032 246.127 129.032C245.028 129.032 244.169 128.787 243.551 128.296C242.932 127.805 242.5 127.128 242.255 126.264C242.009 125.4 241.887 124.333 241.887 123.064C241.887 119.149 243.252 117.192 245.983 117.192C247.028 117.192 247.849 117.475 248.447 118.04C249.044 118.605 249.396 119.32 249.503 120.184H248.159ZM245.983 122.568C245.524 122.568 245.092 122.664 244.687 122.856C244.281 123.037 243.951 123.32 243.695 123.704C243.449 124.077 243.327 124.536 243.327 125.08C243.327 125.891 243.561 126.552 244.031 127.064C244.5 127.565 245.172 127.816 246.047 127.816C246.793 127.816 247.385 127.587 247.823 127.128C248.271 126.659 248.495 126.029 248.495 125.24C248.495 124.408 248.281 123.757 247.855 123.288C247.428 122.808 246.804 122.568 245.983 122.568Z" fill="white"/>
<rect x="271" y="106" width="69" height="34" rx="17" fill="black" fill-opacity="0.3"/>
<path d="M287.688 123.416C287.688 122.328 287.933 121.352 288.424 120.488C288.915 119.613 289.581 118.931 290.424 118.44C291.277 117.949 292.221 117.704 293.256 117.704C294.472 117.704 295.533 117.997 296.44 118.584C297.347 119.171 298.008 120.003 298.424 121.08H296.68C296.371 120.408 295.923 119.891 295.336 119.528C294.76 119.165 294.067 118.984 293.256 118.984C292.477 118.984 291.779 119.165 291.16 119.528C290.541 119.891 290.056 120.408 289.704 121.08C289.352 121.741 289.176 122.52 289.176 123.416C289.176 124.301 289.352 125.08 289.704 125.752C290.056 126.413 290.541 126.925 291.16 127.288C291.779 127.651 292.477 127.832 293.256 127.832C294.067 127.832 294.76 127.656 295.336 127.304C295.923 126.941 296.371 126.424 296.68 125.752H298.424C298.008 126.819 297.347 127.645 296.44 128.232C295.533 128.808 294.472 129.096 293.256 129.096C292.221 129.096 291.277 128.856 290.424 128.376C289.581 127.885 288.915 127.208 288.424 126.344C287.933 125.48 287.688 124.504 287.688 123.416ZM304.415 129.144C303.594 129.144 302.847 128.957 302.175 128.584C301.514 128.211 300.991 127.683 300.607 127C300.234 126.307 300.047 125.507 300.047 124.6C300.047 123.704 300.239 122.915 300.623 122.232C301.018 121.539 301.551 121.011 302.223 120.648C302.895 120.275 303.647 120.088 304.479 120.088C305.311 120.088 306.063 120.275 306.735 120.648C307.407 121.011 307.935 121.533 308.319 122.216C308.714 122.899 308.911 123.693 308.911 124.6C308.911 125.507 308.709 126.307 308.303 127C307.909 127.683 307.37 128.211 306.687 128.584C306.005 128.957 305.247 129.144 304.415 129.144ZM304.415 127.864C304.938 127.864 305.429 127.741 305.887 127.496C306.346 127.251 306.714 126.883 306.991 126.392C307.279 125.901 307.423 125.304 307.423 124.6C307.423 123.896 307.285 123.299 307.007 122.808C306.73 122.317 306.367 121.955 305.919 121.72C305.471 121.475 304.986 121.352 304.463 121.352C303.93 121.352 303.439 121.475 302.991 121.72C302.554 121.955 302.202 122.317 301.935 122.808C301.669 123.299 301.535 123.896 301.535 124.6C301.535 125.315 301.663 125.917 301.919 126.408C302.186 126.899 302.538 127.267 302.975 127.512C303.413 127.747 303.893 127.864 304.415 127.864ZM311.578 118.808C311.3 118.808 311.066 118.712 310.874 118.52C310.682 118.328 310.586 118.093 310.586 117.816C310.586 117.539 310.682 117.304 310.874 117.112C311.066 116.92 311.3 116.824 311.578 116.824C311.844 116.824 312.068 116.92 312.25 117.112C312.442 117.304 312.538 117.539 312.538 117.816C312.538 118.093 312.442 118.328 312.25 118.52C312.068 118.712 311.844 118.808 311.578 118.808ZM312.282 120.232V129H310.826V120.232H312.282ZM319.035 120.072C320.102 120.072 320.966 120.397 321.627 121.048C322.289 121.688 322.619 122.616 322.619 123.832V129H321.179V124.04C321.179 123.165 320.961 122.499 320.523 122.04C320.086 121.571 319.489 121.336 318.731 121.336C317.963 121.336 317.35 121.576 316.891 122.056C316.443 122.536 316.219 123.235 316.219 124.152V129H314.763V120.232H316.219V121.48C316.507 121.032 316.897 120.685 317.387 120.44C317.889 120.195 318.438 120.072 319.035 120.072Z" fill="white"/>
<rect x="344" y="106" width="169" height="34" rx="17" fill="black" fill-opacity="0.3"/>
<path d="M362.864 125.896C362.971 126.504 363.216 126.973 363.6 127.304C363.995 127.635 364.523 127.8 365.184 127.8C366.069 127.8 366.72 127.453 367.136 126.76C367.563 126.067 367.765 124.899 367.744 123.256C367.52 123.736 367.147 124.115 366.624 124.392C366.101 124.659 365.52 124.792 364.88 124.792C364.165 124.792 363.525 124.648 362.96 124.36C362.405 124.061 361.968 123.629 361.648 123.064C361.328 122.499 361.168 121.816 361.168 121.016C361.168 119.875 361.499 118.957 362.16 118.264C362.821 117.56 363.76 117.208 364.976 117.208C366.469 117.208 367.515 117.693 368.112 118.664C368.72 119.635 369.024 121.08 369.024 123C369.024 124.344 368.901 125.453 368.656 126.328C368.421 127.203 368.016 127.869 367.44 128.328C366.875 128.787 366.096 129.016 365.104 129.016C364.016 129.016 363.168 128.723 362.56 128.136C361.952 127.549 361.605 126.803 361.52 125.896H362.864ZM365.12 123.56C365.835 123.56 366.421 123.341 366.88 122.904C367.339 122.456 367.568 121.853 367.568 121.096C367.568 120.296 367.344 119.651 366.896 119.16C366.448 118.669 365.819 118.424 365.008 118.424C364.261 118.424 363.664 118.659 363.216 119.128C362.779 119.597 362.56 120.216 362.56 120.984C362.56 121.763 362.779 122.387 363.216 122.856C363.653 123.325 364.288 123.56 365.12 123.56ZM370.894 127.832C372.249 126.744 373.31 125.853 374.078 125.16C374.846 124.456 375.491 123.725 376.014 122.968C376.547 122.2 376.814 121.448 376.814 120.712C376.814 120.019 376.643 119.475 376.302 119.08C375.971 118.675 375.433 118.472 374.686 118.472C373.961 118.472 373.395 118.701 372.99 119.16C372.595 119.608 372.382 120.211 372.35 120.968H370.942C370.985 119.773 371.347 118.851 372.03 118.2C372.713 117.549 373.593 117.224 374.67 117.224C375.769 117.224 376.638 117.528 377.278 118.136C377.929 118.744 378.254 119.581 378.254 120.648C378.254 121.533 377.987 122.397 377.454 123.24C376.931 124.072 376.334 124.808 375.662 125.448C374.99 126.077 374.131 126.813 373.086 127.656H378.59V128.872H370.894V127.832ZM380.097 127.832C381.452 126.744 382.513 125.853 383.281 125.16C384.049 124.456 384.695 123.725 385.217 122.968C385.751 122.2 386.017 121.448 386.017 120.712C386.017 120.019 385.847 119.475 385.505 119.08C385.175 118.675 384.636 118.472 383.889 118.472C383.164 118.472 382.599 118.701 382.193 119.16C381.799 119.608 381.585 120.211 381.553 120.968H380.145C380.188 119.773 380.551 118.851 381.233 118.2C381.916 117.549 382.796 117.224 383.873 117.224C384.972 117.224 385.841 117.528 386.481 118.136C387.132 118.744 387.457 119.581 387.457 120.648C387.457 121.533 387.191 122.397 386.657 123.24C386.135 124.072 385.537 124.808 384.865 125.448C384.193 126.077 383.335 126.813 382.289 127.656H387.793V128.872H380.097V127.832ZM391.22 126.984L389.428 131.288H388.452L389.62 126.984H391.22ZM392.472 127.832C393.827 126.744 394.888 125.853 395.656 125.16C396.424 124.456 397.07 123.725 397.592 122.968C398.126 122.2 398.392 121.448 398.392 120.712C398.392 120.019 398.222 119.475 397.88 119.08C397.55 118.675 397.011 118.472 396.264 118.472C395.539 118.472 394.974 118.701 394.568 119.16C394.174 119.608 393.96 120.211 393.928 120.968H392.52C392.563 119.773 392.926 118.851 393.608 118.2C394.291 117.549 395.171 117.224 396.248 117.224C397.347 117.224 398.216 117.528 398.856 118.136C399.507 118.744 399.832 119.581 399.832 120.648C399.832 121.533 399.566 122.397 399.032 123.24C398.51 124.072 397.912 124.808 397.24 125.448C396.568 126.077 395.71 126.813 394.664 127.656H400.168V128.872H392.472V127.832ZM401.851 123.096C401.851 121.261 402.15 119.832 402.747 118.808C403.345 117.773 404.39 117.256 405.883 117.256C407.366 117.256 408.406 117.773 409.003 118.808C409.601 119.832 409.899 121.261 409.899 123.096C409.899 124.963 409.601 126.413 409.003 127.448C408.406 128.483 407.366 129 405.883 129C404.39 129 403.345 128.483 402.747 127.448C402.15 126.413 401.851 124.963 401.851 123.096ZM408.459 123.096C408.459 122.168 408.395 121.384 408.267 120.744C408.15 120.093 407.899 119.571 407.515 119.176C407.142 118.781 406.598 118.584 405.883 118.584C405.158 118.584 404.603 118.781 404.219 119.176C403.846 119.571 403.595 120.093 403.467 120.744C403.35 121.384 403.291 122.168 403.291 123.096C403.291 124.056 403.35 124.861 403.467 125.512C403.595 126.163 403.846 126.685 404.219 127.08C404.603 127.475 405.158 127.672 405.883 127.672C406.598 127.672 407.142 127.475 407.515 127.08C407.899 126.685 408.15 126.163 408.267 125.512C408.395 124.861 408.459 124.056 408.459 123.096ZM411.866 120.344C411.941 119.363 412.32 118.595 413.002 118.04C413.685 117.485 414.57 117.208 415.658 117.208C416.384 117.208 417.008 117.341 417.53 117.608C418.064 117.864 418.464 118.216 418.73 118.664C419.008 119.112 419.146 119.619 419.146 120.184C419.146 120.845 418.954 121.416 418.57 121.896C418.197 122.376 417.706 122.685 417.098 122.824V122.904C417.792 123.075 418.341 123.411 418.746 123.912C419.152 124.413 419.354 125.069 419.354 125.88C419.354 126.488 419.216 127.037 418.938 127.528C418.661 128.008 418.245 128.387 417.69 128.664C417.136 128.941 416.469 129.08 415.69 129.08C414.56 129.08 413.632 128.787 412.906 128.2C412.181 127.603 411.776 126.76 411.69 125.672H413.098C413.173 126.312 413.434 126.835 413.882 127.24C414.33 127.645 414.928 127.848 415.674 127.848C416.421 127.848 416.986 127.656 417.37 127.272C417.765 126.877 417.962 126.371 417.962 125.752C417.962 124.952 417.696 124.376 417.162 124.024C416.629 123.672 415.824 123.496 414.746 123.496H414.378V122.28H414.762C415.744 122.269 416.485 122.109 416.986 121.8C417.488 121.48 417.738 120.989 417.738 120.328C417.738 119.763 417.552 119.309 417.178 118.968C416.816 118.627 416.293 118.456 415.61 118.456C414.949 118.456 414.416 118.627 414.01 118.968C413.605 119.309 413.365 119.768 413.29 120.344H411.866ZM437.506 120.232L434.77 129H433.266L431.154 122.04L429.042 129H427.538L424.786 120.232H426.274L428.29 127.592L430.466 120.232H431.954L434.082 127.608L436.066 120.232H437.506ZM438.407 124.584C438.407 123.688 438.588 122.904 438.951 122.232C439.313 121.549 439.809 121.021 440.439 120.648C441.079 120.275 441.788 120.088 442.567 120.088C443.335 120.088 444.001 120.253 444.567 120.584C445.132 120.915 445.553 121.331 445.831 121.832V120.232H447.303V129H445.831V127.368C445.543 127.88 445.111 128.307 444.535 128.648C443.969 128.979 443.308 129.144 442.551 129.144C441.772 129.144 441.068 128.952 440.439 128.568C439.809 128.184 439.313 127.645 438.951 126.952C438.588 126.259 438.407 125.469 438.407 124.584ZM445.831 124.6C445.831 123.939 445.697 123.363 445.431 122.872C445.164 122.381 444.801 122.008 444.343 121.752C443.895 121.485 443.399 121.352 442.855 121.352C442.311 121.352 441.815 121.48 441.367 121.736C440.919 121.992 440.561 122.365 440.295 122.856C440.028 123.347 439.895 123.923 439.895 124.584C439.895 125.256 440.028 125.843 440.295 126.344C440.561 126.835 440.919 127.213 441.367 127.48C441.815 127.736 442.311 127.864 442.855 127.864C443.399 127.864 443.895 127.736 444.343 127.48C444.801 127.213 445.164 126.835 445.431 126.344C445.697 125.843 445.831 125.261 445.831 124.6ZM451.539 121.432V126.6C451.539 127.027 451.63 127.331 451.811 127.512C451.993 127.683 452.307 127.768 452.755 127.768H453.827V129H452.515C451.705 129 451.097 128.813 450.691 128.44C450.286 128.067 450.083 127.453 450.083 126.6V121.432H448.947V120.232H450.083V118.024H451.539V120.232H453.827V121.432H451.539ZM455.047 124.6C455.047 123.693 455.229 122.904 455.591 122.232C455.954 121.549 456.455 121.021 457.095 120.648C457.746 120.275 458.487 120.088 459.319 120.088C460.397 120.088 461.282 120.349 461.975 120.872C462.679 121.395 463.143 122.12 463.367 123.048H461.799C461.65 122.515 461.357 122.093 460.919 121.784C460.493 121.475 459.959 121.32 459.319 121.32C458.487 121.32 457.815 121.608 457.303 122.184C456.791 122.749 456.535 123.555 456.535 124.6C456.535 125.656 456.791 126.472 457.303 127.048C457.815 127.624 458.487 127.912 459.319 127.912C459.959 127.912 460.493 127.763 460.919 127.464C461.346 127.165 461.639 126.739 461.799 126.184H463.367C463.133 127.08 462.663 127.8 461.959 128.344C461.255 128.877 460.375 129.144 459.319 129.144C458.487 129.144 457.746 128.957 457.095 128.584C456.455 128.211 455.954 127.683 455.591 127C455.229 126.317 455.047 125.517 455.047 124.6ZM469.662 120.072C470.323 120.072 470.921 120.216 471.454 120.504C471.987 120.781 472.403 121.203 472.702 121.768C473.011 122.333 473.166 123.021 473.166 123.832V129H471.726V124.04C471.726 123.165 471.507 122.499 471.07 122.04C470.633 121.571 470.035 121.336 469.278 121.336C468.51 121.336 467.897 121.576 467.438 122.056C466.99 122.536 466.766 123.235 466.766 124.152V129H465.31V117.16H466.766V121.48C467.054 121.032 467.449 120.685 467.95 120.44C468.462 120.195 469.033 120.072 469.662 120.072ZM477.001 117.16V129H475.545V117.16H477.001ZM480.234 118.808C479.957 118.808 479.722 118.712 479.53 118.52C479.338 118.328 479.242 118.093 479.242 117.816C479.242 117.539 479.338 117.304 479.53 117.112C479.722 116.92 479.957 116.824 480.234 116.824C480.501 116.824 480.725 116.92 480.906 117.112C481.098 117.304 481.194 117.539 481.194 117.816C481.194 118.093 481.098 118.328 480.906 118.52C480.725 118.712 480.501 118.808 480.234 118.808ZM480.938 120.232V129H479.482V120.232H480.938ZM486.524 129.144C485.852 129.144 485.249 129.032 484.716 128.808C484.182 128.573 483.761 128.253 483.452 127.848C483.142 127.432 482.972 126.957 482.94 126.424H484.444C484.486 126.861 484.689 127.219 485.052 127.496C485.425 127.773 485.91 127.912 486.508 127.912C487.062 127.912 487.5 127.789 487.82 127.544C488.14 127.299 488.3 126.989 488.3 126.616C488.3 126.232 488.129 125.949 487.788 125.768C487.446 125.576 486.918 125.389 486.204 125.208C485.553 125.037 485.02 124.867 484.604 124.696C484.198 124.515 483.846 124.253 483.548 123.912C483.26 123.56 483.116 123.101 483.116 122.536C483.116 122.088 483.249 121.677 483.516 121.304C483.782 120.931 484.161 120.637 484.652 120.424C485.142 120.2 485.702 120.088 486.332 120.088C487.302 120.088 488.086 120.333 488.684 120.824C489.281 121.315 489.601 121.987 489.644 122.84H488.188C488.156 122.381 487.969 122.013 487.628 121.736C487.297 121.459 486.849 121.32 486.284 121.32C485.761 121.32 485.345 121.432 485.036 121.656C484.726 121.88 484.572 122.173 484.572 122.536C484.572 122.824 484.662 123.064 484.844 123.256C485.036 123.437 485.27 123.587 485.548 123.704C485.836 123.811 486.23 123.933 486.732 124.072C487.361 124.243 487.873 124.413 488.268 124.584C488.662 124.744 488.998 124.989 489.276 125.32C489.564 125.651 489.713 126.083 489.724 126.616C489.724 127.096 489.59 127.528 489.324 127.912C489.057 128.296 488.678 128.6 488.188 128.824C487.708 129.037 487.153 129.144 486.524 129.144ZM493.555 121.432V126.6C493.555 127.027 493.646 127.331 493.827 127.512C494.008 127.683 494.323 127.768 494.771 127.768H495.843V129H494.531C493.72 129 493.112 128.813 492.707 128.44C492.302 128.067 492.099 127.453 492.099 126.6V121.432H490.963V120.232H492.099V118.024H493.555V120.232H495.843V121.432H493.555Z" fill="white"/>
<g clip-path="url(#clip1_27_5966)">
<rect x="15" y="15" width="125" height="125" rx="12" fill="white"/>
<path d="M112.09 45.9299L109.09 48.9299C116.248 56.7582 120.218 66.982 120.218 77.5899C120.218 88.1977 116.248 98.4215 109.09 106.25L112.09 109.25C120.051 100.615 124.471 89.2998 124.471 77.5549C124.471 65.8099 120.051 54.4951 112.09 45.8599V45.9299Z" fill="#5A5564"/>
<path d="M48.9997 46.19C56.828 39.0315 67.0518 35.0617 77.6597 35.0617C88.2675 35.0617 98.4914 39.0315 106.32 46.19L109.32 43.19C100.684 35.229 89.3696 30.8091 77.6247 30.8091C65.8797 30.8091 54.5649 35.229 45.9297 43.19L48.9997 46.19Z" fill="#5A5564"/>
<path d="M46.1895 106.28C39.0395 98.4537 35.0749 88.2361 35.0749 77.6352C35.0749 67.0344 39.0395 56.8168 46.1895 48.9902L43.1895 45.9902C35.2285 54.6254 30.8086 65.9403 30.8086 77.6852C30.8086 89.4302 35.2285 100.745 43.1895 109.38L46.1895 106.28Z" fill="#5A5564"/>
<path d="M106.281 109.05C98.4526 116.208 88.2288 120.178 77.6209 120.178C67.0131 120.178 56.7893 116.208 48.9609 109.05L45.9609 112.05C54.5961 120.011 65.911 124.431 77.6559 124.431C89.4009 124.431 100.716 120.011 109.351 112.05L106.281 109.05Z" fill="#5A5564"/>
<path d="M96.5691 67.62C95.9691 61.36 90.5691 59.26 83.7391 58.62V50H78.4591V58.46C77.0691 58.46 75.6491 58.46 74.2391 58.46V50H68.9991V58.68H58.2891V64.33C58.2891 64.33 62.1891 64.26 62.1291 64.33C62.8323 64.2526 63.538 64.4513 64.0977 64.8841C64.6573 65.3168 65.0271 65.95 65.1291 66.65V90.41C65.114 90.6569 65.0497 90.8983 64.9397 91.1198C64.8298 91.3414 64.6766 91.5387 64.4891 91.7C64.3051 91.8644 64.0898 91.9899 63.8561 92.0689C63.6223 92.148 63.3751 92.179 63.1291 92.16C63.1991 92.22 59.2891 92.16 59.2891 92.16L58.2891 98.47H68.8991V107.29H74.1791V98.6H78.3991V107.25H83.6891V98.53C92.6091 97.99 98.8291 95.79 99.6091 87.44C100.239 80.72 97.0791 77.72 92.0291 76.51C95.0991 75 96.9991 72.2 96.5691 67.62ZM89.1691 86.4C89.1691 92.96 77.9291 92.21 74.3491 92.21V80.57C77.9291 80.58 89.1691 79.55 89.1691 86.4ZM86.7191 70C86.7191 76 77.3391 75.27 74.3591 75.27V64.69C77.3391 64.69 86.7191 63.75 86.7191 70Z" fill="#F09242"/>
<path d="M77.62 132.26C66.8161 132.258 56.2553 129.053 47.273 123.049C38.2907 117.045 31.2901 108.513 27.1566 98.5314C23.023 88.5495 21.942 77.566 24.0502 66.9698C26.1584 56.3735 31.3612 46.6403 39.0008 39.0008C46.6403 31.3612 56.3735 26.1584 66.9698 24.0502C77.566 21.942 88.5495 23.023 98.5314 27.1566C108.513 31.2901 117.045 38.2907 123.049 47.273C129.053 56.2553 132.258 66.8161 132.26 77.62C132.261 84.7958 130.849 91.9016 128.103 98.5314C125.358 105.161 121.333 111.185 116.259 116.259C111.185 121.333 105.161 125.358 98.5314 128.103C91.9016 130.849 84.7958 132.261 77.62 132.26ZM77.62 27.26C67.6663 27.2679 57.9383 30.2265 49.6656 35.7619C41.3929 41.2972 34.9469 49.1609 31.1424 58.3588C27.3378 67.5568 26.3454 77.6762 28.2907 87.438C30.236 97.1998 35.0316 106.166 42.0713 113.203C49.1111 120.24 58.079 125.032 67.8416 126.973C77.6042 128.915 87.7232 127.918 96.9197 124.11C106.116 120.302 113.977 113.853 119.509 105.578C125.041 97.3029 127.996 87.5738 128 77.62C128.003 71.0042 126.701 64.4528 124.17 58.3404C121.639 52.2279 117.928 46.6743 113.249 41.9972C108.57 37.32 103.015 33.6111 96.9012 31.0824C90.7878 28.5536 84.2358 27.2548 77.62 27.26Z" fill="#282138"/>
</g>
</g>
</g>
<defs>
<filter id="filter0_b_27_5966" x="-30" y="-30" width="600" height="215" filterUnits="userSpaceOnUse" color-interpolation-filters="sRGB">
<feFlood flood-opacity="0" result="BackgroundImageFix"/>
<feGaussianBlur in="BackgroundImageFix" stdDeviation="15"/>
<feComposite in2="SourceAlpha" operator="in" result="effect1_backgroundBlur_27_5966"/>
<feBlend mode="normal" in="SourceGraphic" in2="effect1_backgroundBlur_27_5966" result="shape"/>
</filter>
<filter id="filter1_f_27_5966" x="-265.009" y="-218.009" width="546.018" height="546.018" filterUnits="userSpaceOnUse" color-interpolation-filters="sRGB">
<feFlood flood-opacity="0" result="BackgroundImageFix"/>
<feBlend mode="normal" in="SourceGraphic" in2="BackgroundImageFix" result="shape"/>
<feGaussianBlur stdDeviation="69.0046" result="effect1_foregroundBlur_27_5966"/>
</filter>
<filter id="filter2_f_27_5966" x="-265.009" y="-218.009" width="546.018" height="546.018" filterUnits="userSpaceOnUse" color-interpolation-filters="sRGB">
<feFlood flood-opacity="0" result="BackgroundImageFix"/>
<feBlend mode="normal" in="SourceGraphic" in2="BackgroundImageFix" result="shape"/>
<feGaussianBlur stdDeviation="69.0046" result="effect1_foregroundBlur_27_5966"/>
</filter>
<filter id="filter3_f_27_5966" x="271.927" y="-175.073" width="376.146" height="376.146" filterUnits="userSpaceOnUse" color-interpolation-filters="sRGB">
<feFlood flood-opacity="0" result="BackgroundImageFix"/>
<feBlend mode="normal" in="SourceGraphic" in2="BackgroundImageFix" result="shape"/>
<feGaussianBlur stdDeviation="47.5365" result="effect1_foregroundBlur_27_5966"/>
</filter>
<filter id="filter4_f_27_5966" x="271.927" y="-175.073" width="376.146" height="376.146" filterUnits="userSpaceOnUse" color-interpolation-filters="sRGB">
<feFlood flood-opacity="0" result="BackgroundImageFix"/>
<feBlend mode="normal" in="SourceGraphic" in2="BackgroundImageFix" result="shape"/>
<feGaussianBlur stdDeviation="47.5365" result="effect1_foregroundBlur_27_5966"/>
</filter>
<linearGradient id="paint0_linear_27_5966" x1="-95.0263" y1="-27.8947" x2="31.6842" y2="109.474" gradientUnits="userSpaceOnUse">
<stop stop-color="#C496FF"/>
<stop offset="1" stop-color="#FFA996"/>
</linearGradient>
<linearGradient id="paint1_linear_27_5966" x1="-95.0263" y1="-27.8947" x2="31.6842" y2="109.474" gradientUnits="userSpaceOnUse">
<stop stop-color="#129EF3"/>
<stop offset="1" stop-color="#F920FF"/>
</linearGradient>
<linearGradient id="paint2_linear_27_5966" x1="389.026" y1="-44.1053" x2="476.316" y2="50.5263" gradientUnits="userSpaceOnUse">
<stop stop-color="#C496FF"/>
<stop offset="1" stop-color="#FFA996"/>
</linearGradient>
<linearGradient id="paint3_linear_27_5966" x1="389.026" y1="-44.1053" x2="476.316" y2="50.5263" gradientUnits="userSpaceOnUse">
<stop stop-color="#129EF3"/>
<stop offset="1" stop-color="#F920FF"/>
</linearGradient>
<clipPath id="clip0_27_5966">
<rect width="540" height="155" rx="15" fill="white"/>
</clipPath>
<clipPath id="clip1_27_5966">
<rect x="15" y="15" width="125" height="125" rx="12" fill="white"/>
</clipPath>
</defs>
</svg>
