<svg width="15" height="15" viewBox="0 0 15 15" fill="none" xmlns="http://www.w3.org/2000/svg">
<path fill-rule="evenodd" clip-rule="evenodd" d="M5.50668 14.6788C9.26127 15.6135 13.0571 13.325 13.9911 9.57726C14.9229 5.82726 12.6381 2.01999 8.88123 1.09681C5.1358 0.162173 1.34229 2.45066 0.408218 6.19837C-0.525851 9.94608 1.75896 13.7419 5.50668 14.6788ZM8.95804 5.22466C9.93026 5.55455 10.6394 6.04253 10.5136 6.97723C10.4175 7.65765 10.0469 7.98983 9.53451 8.10667C10.2345 8.46635 10.5845 9.0116 10.2642 9.96692C9.86621 11.1651 8.88484 11.2728 7.57176 11.0391L7.2698 12.3151L6.50118 12.1296L6.80314 10.8741C6.60869 10.826 6.4051 10.7756 6.19006 10.7184L5.8881 11.983L5.11948 11.7974L5.42144 10.5213C5.31576 10.4907 5.20587 10.4643 5.09431 10.4375C5.02233 10.4202 4.94966 10.4027 4.87699 10.3839L3.87503 10.1502L4.23876 9.2636C4.23876 9.2636 4.81294 9.41022 4.80379 9.40106C5.01654 9.44917 5.1149 9.31171 5.15379 9.21549L5.62046 7.19946C5.63533 7.20404 5.64734 7.20633 5.65934 7.20862C5.67135 7.21091 5.68336 7.2132 5.69823 7.21778C5.679 7.20444 5.66071 7.19973 5.64463 7.19559C5.63585 7.19333 5.62773 7.19124 5.62046 7.188L5.96131 5.74699C5.97274 5.59121 5.91327 5.38731 5.60216 5.30942C5.62274 5.29797 5.04856 5.17196 5.04856 5.17196L5.24301 4.35409L6.30216 4.60839C6.38451 4.62786 6.46743 4.64505 6.55036 4.66223C6.63328 4.67941 6.71621 4.69659 6.79856 4.71606L7.10052 3.45146L7.8783 3.63703L7.58549 4.87414C7.78908 4.91538 7.99497 4.96349 8.19856 5.0116L8.49137 3.77448L9.26 3.96005L8.95804 5.22466ZM6.56534 9.8247C7.18334 9.98343 8.57696 10.3414 8.78418 9.45833C8.99274 8.5635 7.68627 8.2818 7.03075 8.14045C6.95287 8.12365 6.88417 8.10884 6.8283 8.09522L6.43026 9.79052C6.46938 9.80005 6.51476 9.81171 6.56534 9.8247ZM7.11892 7.34544C7.63439 7.47872 8.8077 7.78209 8.99693 6.97723C9.18888 6.16943 8.09387 5.93486 7.55231 5.81885C7.4872 5.8049 7.43009 5.79267 7.38418 5.78136L7.01359 7.31858C7.04443 7.32618 7.07978 7.33532 7.11892 7.34544Z" fill="#F2A900"/>
</svg>
