<svg width="208" height="38" viewBox="0 0 208 38" fill="none" xmlns="http://www.w3.org/2000/svg">
<g clip-path="url(#clip0_27_5748)">
<path d="M187.655 35.7048H120.31C111.044 35.7048 103.535 28.2003 103.535 18.9434C103.535 9.68199 111.044 2.17749 120.31 2.17749H187.655C196.921 2.17749 204.43 9.68199 204.43 18.9389C204.43 28.1958 196.921 35.7003 187.655 35.7003V35.7048Z" fill="white"/>
<g filter="url(#filter0_d_27_5748)">
<path d="M120.455 30.2751C126.98 30.2751 132.268 24.9863 132.268 18.4622C132.268 11.9381 126.98 6.64929 120.455 6.64929C113.931 6.64929 108.643 11.9381 108.643 18.4622C108.643 24.9863 113.931 30.2751 120.455 30.2751Z" fill="url(#paint0_linear_27_5748)"/>
</g>
<path d="M0.626953 24.3725L1.43052 22.5656C2.43384 23.3692 4.02282 23.9412 5.56185 23.9412C7.50948 23.9412 8.33121 23.2421 8.33121 22.3159C8.33121 19.6147 0.894809 21.3852 0.894809 16.7364C0.894809 14.7161 2.50194 13 5.93867 13C7.44138 13 9.0122 13.395 10.1063 14.1077L9.37539 15.9146C8.24949 15.2518 7.01463 14.9295 5.92505 14.9295C3.99558 14.9295 3.20563 15.6786 3.20563 16.6274C3.20563 19.2923 10.6239 17.5581 10.6239 22.1525C10.6239 24.1546 8.99858 25.8707 5.56185 25.8707C3.61422 25.8707 1.66206 25.2623 0.626953 24.368V24.3725Z" fill="white"/>
<path d="M31.2165 13.1816L27.067 25.6982H24.5973L21.5056 16.4367L18.3594 25.6982H15.8761L11.7266 13.1816H14.1418L17.2517 22.6927L20.4886 13.1816H22.636L25.8003 22.7472L29.001 13.1816H31.2165Z" fill="white"/>
<path d="M33.1094 13.1816H35.4338V25.6982H33.1094V13.1816Z" fill="white"/>
<path d="M41.3507 15.1474H37.2012V13.1816H47.8201V15.1474H43.6706V25.6982H41.3461V15.1474H41.3507Z" fill="white"/>
<path d="M48.5 19.4376C48.5 15.7013 51.3602 13 55.2055 13C57.2439 13 58.9963 13.7309 60.1585 15.0929L58.6558 16.5048C57.7433 15.5197 56.6174 15.0384 55.3144 15.0384C52.7221 15.0384 50.8426 16.8635 50.8426 19.4376C50.8426 22.0118 52.7221 23.8368 55.3144 23.8368C56.6219 23.8368 57.7478 23.3556 58.6558 22.3522L60.1585 23.7823C58.9963 25.1398 57.2439 25.8752 55.1873 25.8752C51.3602 25.8752 48.5 23.174 48.5 19.4376Z" fill="white"/>
<path d="M73.5115 13.1816V25.6982H71.1871V20.3365H64.7131V25.6982H62.3887V13.1816H64.7131V18.348H71.1871V13.1816H73.5115Z" fill="white"/>
<path d="M86.2597 23.746V25.6936H76.8711V13.1816H86.0054V15.1292H79.1955V18.3843H85.2382V20.2956H79.1955V23.746H86.2597Z" fill="white"/>
<path d="M97.041 25.6936L94.485 22.0299C94.3261 22.0481 94.1626 22.0481 94.0037 22.0481H91.1799V25.6936H88.8555V13.1816H94.0037C97.2952 13.1816 99.3336 14.8614 99.3336 17.6352C99.3336 19.5284 98.3666 20.9267 96.6687 21.585L99.547 25.6982H97.0455L97.041 25.6936ZM93.8948 15.1428H91.1754V20.1322H93.8948C95.9332 20.1322 96.9865 19.2015 96.9865 17.6307C96.9865 16.0599 95.9332 15.1474 93.8948 15.1474V15.1428Z" fill="white"/>
<path d="M137.271 16.2122V19.3129H141.729V20.4071H137.271V24.0027H136V15.1044H142.274V16.2076H137.267L137.271 16.2122Z" fill="#2991CF"/>
<path d="M144.072 15.1044H145.343V23.9981H144.072V15.1044Z" fill="#2991CF"/>
<path d="M155.657 15.1044V23.9981H154.617L149.283 17.3653V23.9981H148.012V15.1044H149.051L154.386 21.7373V15.1044H155.657Z" fill="#2991CF"/>
<path d="M163.994 21.7736H159.268L158.292 23.9981H156.984L161.011 15.1044H162.269L166.309 23.9981H164.975L163.999 21.7736H163.994ZM163.549 20.7566L161.629 16.3983L159.708 20.7566H163.545H163.549Z" fill="#2991CF"/>
<path d="M175.274 15.1044V23.9981H174.235L168.9 17.3653V23.9981H167.629V15.1044H168.669L174.003 21.7373V15.1044H175.274Z" fill="#2991CF"/>
<path d="M177.223 19.549C177.223 16.9204 179.229 15 181.935 15C183.306 15 184.5 15.4722 185.313 16.3847L184.487 17.1837C183.801 16.4619 182.961 16.1304 181.985 16.1304C179.978 16.1304 178.489 17.5787 178.489 19.549C178.489 21.5193 179.974 22.9676 181.985 22.9676C182.961 22.9676 183.801 22.6225 184.487 21.9007L185.313 22.6997C184.5 23.6122 183.306 24.098 181.921 24.098C179.229 24.098 177.223 22.1776 177.223 19.549Z" fill="#2991CF"/>
<path d="M193.585 22.8904V23.9936H187.129V15.1044H193.403V16.2076H188.396V18.9407H192.854V20.0212H188.396V22.8904H193.58H193.585Z" fill="#2991CF"/>
</g>
<defs>
<filter id="filter0_d_27_5748" x="100.643" y="2.64929" width="39.625" height="39.6258" filterUnits="userSpaceOnUse" color-interpolation-filters="sRGB">
<feFlood flood-opacity="0" result="BackgroundImageFix"/>
<feColorMatrix in="SourceAlpha" type="matrix" values="0 0 0 0 0 0 0 0 0 0 0 0 0 0 0 0 0 0 127 0" result="hardAlpha"/>
<feOffset dy="4"/>
<feGaussianBlur stdDeviation="4"/>
<feComposite in2="hardAlpha" operator="out"/>
<feColorMatrix type="matrix" values="0 0 0 0 0.140809 0 0 0 0 0.0572396 0 0 0 0 0.654167 0 0 0 0.5 0"/>
<feBlend mode="normal" in2="BackgroundImageFix" result="effect1_dropShadow_27_5748"/>
<feBlend mode="normal" in="SourceGraphic" in2="effect1_dropShadow_27_5748" result="shape"/>
</filter>
<linearGradient id="paint0_linear_27_5748" x1="108.643" y1="10.4885" x2="134.743" y2="14.6116" gradientUnits="userSpaceOnUse">
<stop stop-color="#129EF3"/>
<stop offset="1" stop-color="#B532FF"/>
</linearGradient>
<clipPath id="clip0_27_5748">
<rect width="208" height="38" fill="white"/>
</clipPath>
</defs>
</svg>
