<svg width="170" height="170" viewBox="0 0 170 170" fill="none" xmlns="http://www.w3.org/2000/svg">
<rect width="170" height="170" rx="85" fill="url(#paint0_linear_27_5815)"/>
<path d="M158.392 98.2146L156.552 98.0152L157.064 93.2909L141.573 91.6123L141.819 89.3496L157.309 91.0282L157.824 86.2791L159.664 86.4785L158.392 98.2146Z" fill="white"/>
<path d="M137.622 106.911L145.733 105.406L146.66 102.816L139.95 100.413L140.717 98.27L157.128 104.148L155.231 109.446C154.787 110.686 154.201 111.654 153.473 112.35C152.74 113.061 151.937 113.5 151.063 113.665C150.189 113.83 149.289 113.747 148.363 113.415C147.233 113.01 146.354 112.323 145.727 111.355C145.094 110.402 144.87 109.224 145.054 107.82L136.703 109.478L137.622 106.911ZM148.379 103.432L147.249 106.587C146.833 107.748 146.803 108.721 147.16 109.504C147.533 110.293 148.198 110.859 149.156 111.202C150.129 111.55 150.987 111.53 151.728 111.14C152.464 110.766 153.043 109.991 153.465 108.813L154.595 105.658L148.379 103.432Z" fill="white"/>
<path d="M143.635 131.146L137.642 120.462L132.131 116.87L133.374 114.964L138.885 118.556L151.092 119.706L149.712 121.822L139.967 120.605L145.014 129.029L143.635 131.146Z" fill="white"/>
<path d="M133.392 141.363L121.945 128.215L123.662 126.721L135.108 139.868L133.392 141.363Z" fill="white"/>
<path d="M119.301 151.115L118.33 149.54L122.376 147.048L114.206 133.78L116.144 132.587L124.314 145.854L128.382 143.35L129.352 144.925L119.301 151.115Z" fill="white"/>
<path d="M96.6317 158.552L96.2158 156.748L103.6 155.046L102.28 149.318L96.2844 150.701L95.8685 148.897L101.864 147.515L100.099 139.863L102.317 139.351L106.234 156.338L96.6317 158.552Z" fill="white"/>
<path d="M83.4986 141.655C85.1151 141.705 86.5784 142.125 87.8885 142.916C89.1981 143.724 90.2236 144.815 90.9652 146.189C91.6896 147.579 92.0256 149.124 91.9731 150.824C91.9206 152.524 91.4902 154.037 90.6819 155.363C89.8564 156.706 88.7654 157.731 87.409 158.44C86.0521 159.166 84.5654 159.503 82.9488 159.453C81.3156 159.403 79.8442 158.974 78.5347 158.166C77.2246 157.375 76.2071 156.293 75.4822 154.919C74.7573 153.545 74.4213 152 74.4743 150.284C74.5273 148.567 74.958 147.046 75.7663 145.72C76.5746 144.393 77.6572 143.368 79.0141 142.642C80.3705 141.933 81.8654 141.604 83.4986 141.655ZM83.4376 143.629C82.221 143.592 81.1207 143.841 80.1366 144.378C79.1358 144.915 78.3442 145.699 77.7618 146.732C77.1628 147.764 76.8419 148.972 76.7992 150.356C76.7559 151.755 77.0017 152.981 77.5364 154.032C78.0539 155.098 78.7872 155.93 79.7363 156.527C80.6854 157.123 81.7766 157.44 83.0098 157.478C84.2431 157.517 85.3517 157.267 86.3358 156.73C87.3199 156.194 88.1115 155.409 88.7106 154.377C89.2925 153.36 89.605 152.152 89.6482 150.752C89.691 149.369 89.4536 148.144 88.936 147.077C88.4018 146.01 87.6602 145.178 86.7111 144.581C85.7453 143.984 84.6542 143.667 83.4376 143.629Z" fill="white"/>
<path d="M64.6122 138.208L66.3912 146.263L69.0111 147.102L71.1858 140.314L73.3532 141.009L68.0347 157.61L62.6758 155.893C61.4214 155.491 60.4341 154.938 59.714 154.235C58.9781 153.526 58.5127 152.738 58.318 151.871C58.1233 151.003 58.176 150.1 58.4761 149.164C58.8424 148.02 59.4989 147.119 60.4456 146.459C61.3764 145.795 62.5465 145.53 63.956 145.667L62.016 137.377L64.6122 138.208ZM68.4541 148.841L65.2625 147.819C64.0875 147.442 63.1147 147.446 62.3441 147.829C61.5683 148.228 61.0253 148.912 60.715 149.881C60.3996 150.865 60.4492 151.722 60.8637 152.45C61.2624 153.173 62.0572 153.725 63.248 154.107L66.4396 155.129L68.4541 148.841Z" fill="white"/>
<path d="M36.1122 141.279L37.2226 139.798L43.2851 144.345L46.8115 139.643L41.8895 135.951L42.9999 134.471L47.9219 138.162L52.6338 131.88L54.4546 133.245L43.9954 147.191L36.1122 141.279Z" fill="white"/>
<path d="M39.5258 119.454L36.7909 127.236L38.5746 129.331L44.0013 124.709L45.4769 126.442L32.2053 137.744L28.5568 133.46C27.7027 132.457 27.1552 131.467 26.9142 130.49C26.6624 129.5 26.6825 128.585 26.9745 127.744C27.2666 126.904 27.7871 126.166 28.536 125.528C29.45 124.749 30.4831 124.33 31.6353 124.268C32.7767 124.194 33.9103 124.586 35.036 125.445L37.7583 117.378L39.5258 119.454ZM37.1846 130.514L35.0117 127.963C34.2117 127.023 33.3832 126.513 32.5263 126.433C31.6566 126.363 30.8346 126.658 30.0603 127.318C29.2732 127.988 28.8639 128.742 28.8323 129.579C28.7899 130.403 29.1741 131.292 29.9848 132.244L32.1577 134.795L37.1846 130.514Z" fill="white"/>
<path d="M21.7736 120.729L26.9273 118.009L23.9622 112.391L25.6211 111.515L28.5862 117.134L33.8946 114.332L30.5793 108.05L32.2382 107.175L36.6158 115.469L21.177 123.617L16.7994 115.323L18.4583 114.447L21.7736 120.729Z" fill="white"/>
<path d="M15.8842 107.449L21.4788 105.818L19.7014 99.7196L21.5022 99.1948L23.2797 105.294L29.0424 103.614L27.055 96.795L28.8558 96.2701L31.48 105.274L14.7202 110.159L12.096 101.155L13.8968 100.63L15.8842 107.449Z" fill="white"/>
<path d="M12.1077 68.3711L13.9376 68.648L13.2266 73.3464L28.6326 75.6777L28.292 77.928L12.8861 75.5967L12.1714 80.3199L10.3415 80.043L12.1077 68.3711Z" fill="white"/>
<path d="M33.1707 60.6679L25.0051 61.8372L23.9714 64.3867L30.577 67.0649L29.7219 69.1741L13.5671 62.6242L15.6815 57.4092C16.1764 56.1886 16.8016 55.2456 17.5571 54.5804C18.3189 53.8997 19.1397 53.4948 20.0197 53.3658C20.8996 53.2368 21.7954 53.3571 22.707 53.7267C23.8196 54.1778 24.6692 54.9001 25.2559 55.8936C25.8489 56.8717 26.0245 58.0584 25.7826 59.4537L34.195 58.1416L33.1707 60.6679ZM22.2795 63.7007L23.5387 60.5949C24.0023 59.4515 24.0719 58.4812 23.7474 57.6839C23.4075 56.8804 22.7663 56.2876 21.8237 55.9054C20.8657 55.517 20.0081 55.5021 19.251 55.8608C18.5001 56.2041 17.8897 56.9552 17.4198 58.114L16.1606 61.2198L22.2795 63.7007Z" fill="white"/>
<path d="M28.3079 35.995L33.826 46.9312L39.1734 50.7616L37.848 52.6118L32.5007 48.7815L20.3559 47.0964L21.8269 45.0428L31.5092 46.6868L26.8369 38.0486L28.3079 35.995Z" fill="white"/>
<path d="M38.9783 26.2235L49.8397 39.8583L48.0596 41.2763L37.1981 27.6416L38.9783 26.2235Z" fill="white"/>
<path d="M53.3302 17.1755L54.2301 18.7927L50.0777 21.1033L57.6541 34.7187L55.6653 35.8253L48.089 22.21L43.9148 24.5328L43.0149 22.9155L53.3302 17.1755Z" fill="white"/>
<path d="M76.094 10.7045L76.4338 12.5238L68.9846 13.9152L70.0637 19.6926L76.1116 18.563L76.4514 20.3823L70.4035 21.5119L71.8453 29.2316L69.6081 29.6495L66.4075 12.5137L76.094 10.7045Z" fill="white"/>
<path d="M88.5782 28.0704C86.9652 27.952 85.521 27.4698 84.2457 26.6238C82.9716 25.7612 81.9932 24.6278 81.3105 23.2234C80.6457 21.8037 80.3756 20.2458 80.5001 18.5497C80.6247 16.8536 81.1189 15.3601 81.9827 14.0694C82.8643 12.7632 83.9978 11.7848 85.383 11.1342C86.7695 10.4669 88.2692 10.1925 89.8822 10.311C91.5118 10.4306 92.9637 10.9218 94.2378 11.7844C95.5131 12.6303 96.4838 13.7548 97.1499 15.1579C97.8159 16.561 98.086 18.1189 97.9602 19.8317C97.8345 21.5444 97.3397 23.0462 96.4759 24.337C95.6121 25.6277 94.4869 26.6067 93.1005 27.274C91.7152 27.9246 90.2078 28.1901 88.5782 28.0704ZM88.7229 26.0999C89.9368 26.189 91.0467 25.9863 92.0527 25.4918C93.0753 24.9984 93.8994 24.2481 94.5251 23.2408C95.1674 22.2347 95.5392 21.0416 95.6405 19.6614C95.7431 18.2646 95.5495 17.0299 95.0599 15.9574C94.588 14.8695 93.8907 14.0075 92.9677 13.3713C92.0448 12.7351 90.968 12.3718 89.7375 12.2815C88.507 12.1911 87.3887 12.3932 86.3828 12.8878C85.3768 13.3823 84.5526 14.1327 83.9103 15.1388C83.2859 16.1295 82.9224 17.3232 82.8198 18.72C82.7185 20.1002 82.9037 21.3342 83.3756 22.4221C83.864 23.5112 84.5697 24.3739 85.4927 25.0101C86.4323 25.6475 87.509 26.0108 88.7229 26.0999Z" fill="white"/>
<path d="M107.246 32.2314L105.802 24.11L103.219 23.1628L100.765 29.855L98.6282 29.0715L104.629 12.705L109.913 14.6423C111.149 15.0958 112.113 15.6888 112.803 16.4214C113.509 17.1598 113.942 17.9665 114.1 18.8416C114.259 19.7167 114.169 20.616 113.83 21.5396C113.417 22.6667 112.724 23.5402 111.75 24.1601C110.793 24.7858 109.613 25.0013 108.21 24.8066L109.805 33.1699L107.246 32.2314ZM103.847 21.4487L106.994 22.6025C108.152 23.0272 109.124 23.064 109.91 22.7129C110.702 22.346 111.273 21.6852 111.623 20.7303C111.979 19.7597 111.965 18.9021 111.581 18.1575C111.212 17.4186 110.441 16.8339 109.267 16.4034L106.121 15.2496L103.847 21.4487Z" fill="white"/>
<path d="M136.113 30.4811L134.938 31.9118L129.081 27.1042L125.352 31.6475L130.108 35.5506L128.934 36.9813L124.178 33.0781L119.196 39.1487L117.437 37.7048L128.495 24.2297L136.113 30.4811Z" fill="white"/>
<path d="M131.823 52.1936L134.895 44.5382L133.204 42.3678L127.581 46.7478L126.183 44.9522L139.935 34.2405L143.393 38.68C144.202 39.7192 144.706 40.7323 144.904 41.7192C145.113 42.7194 145.053 43.6326 144.724 44.4591C144.396 45.2856 143.843 46.001 143.067 46.6055C142.12 47.3432 141.07 47.7176 139.916 47.7286C138.772 47.7528 137.657 47.3112 136.57 46.4038L133.498 54.3443L131.823 52.1936ZM134.645 41.2459L136.704 43.8899C137.462 44.8633 138.268 45.409 139.12 45.5268C139.986 45.6344 140.82 45.3758 141.623 44.7508C142.438 44.1156 142.88 43.3804 142.948 42.5454C143.027 41.7235 142.682 40.8192 141.913 39.8327L139.854 37.1887L134.645 41.2459Z" fill="white"/>
<path d="M149.587 51.6292L144.318 54.1172L147.03 59.8617L145.334 60.6626L142.622 54.9181L137.194 57.4809L140.227 63.9038L138.53 64.7047L134.526 56.2237L150.312 48.7703L154.316 57.2512L152.62 58.0521L149.587 51.6292Z" fill="white"/>
<path d="M154.85 64.9773L149.193 66.3729L150.714 72.5406L148.893 72.9899L147.371 66.8222L141.544 68.2598L143.245 75.1559L141.424 75.6052L139.177 66.4993L156.127 62.3184L158.373 71.4242L156.552 71.8735L154.85 64.9773Z" fill="white"/>
<rect x="41" y="41" width="88" height="88" rx="44" fill="#301859"/>
<rect x="0.497034" y="0.497034" width="169.006" height="169.006" rx="84.503" stroke="white" stroke-opacity="0.5" stroke-width="0.994068"/>
<defs>
<linearGradient id="paint0_linear_27_5815" x1="5.74347e-06" y1="27.625" x2="187.805" y2="57.293" gradientUnits="userSpaceOnUse">
<stop stop-color="#129EF3"/>
<stop offset="1" stop-color="#B532FF"/>
</linearGradient>
</defs>
</svg>
